<?xml version="1.0" encoding="utf-8"?>
<!-- Generator: Adobe Illustrator 28.1.0, SVG Export Plug-In . SVG Version: 6.00 Build 0)  -->
<svg version="1.1" id="Layer_1" xmlns="http://www.w3.org/2000/svg" xmlns:xlink="http://www.w3.org/1999/xlink" x="0px" y="0px"
	 viewBox="0 0 135 136.4" style="enable-background:new 0 0 135 136.4;" xml:space="preserve">
<style type="text/css">
	.st0{fill:#511110;}
</style>
<g>
	<path class="st0" d="M38.7,119.2c8.5,4.8,18.4,7.6,28.8,7.6c32.3,0,58.6-26.3,58.6-58.6c0-32.3-26.3-58.6-58.6-58.6l0,0
		C35.2,9.6,8.9,35.9,8.9,68.2c0,21.5,11.6,40.2,28.8,50.5 M38.4,119.1C38.4,119.1,38.5,119.1,38.4,119.1 M10.8,69.8
		C10.8,69.8,10.8,69.8,10.8,69.8c0.1-0.1,0.2-0.1,0.3-0.1c0,0.1,0.1,0.2,0.1,0.3c-0.1,0.3-0.2,0.5-0.2,0.8c0.2-0.2,0.4-0.5,0.8-0.9
		v0c-0.3,0.9-0.6,1.8-0.8,2.6C10.9,71.6,10.8,70.7,10.8,69.8z M11,73c0.1-0.2,0.2-0.4,0.4-0.7c-0.1,0.5-0.2,0.9-0.3,1.3
		C11,73.4,11,73.2,11,73z M12.3,71.1c0.1,0,0.2,0,0.2,0.1c-0.2,0.8-0.5,1.6-0.8,2.5c0,0,0.1,0,0.1,0l0,0c0.3-0.5,0.6-1,0.9-1.5
		c0,0,0.1,0,0.1,0.1c-0.1,0.5-0.1,1-0.2,1.5c0,0,0.1,0,0.1,0c0.1-0.2,0.2-0.4,0.5-0.8c-0.1,0.8-0.1,1.5-0.2,2.2c0.1,0,0.1,0,0.2,0
		c0.1-0.2,0.2-0.5,0.2-0.7c0,0,0.1,0,0.1,0c0.1,0.7,0.2,1.3,0.2,2h0.1c0-0.4,0.1-0.7,0.1-1.2c0.2,0.2,0.2,0.4,0.3,0.5
		c0.6,0.9,1.2,1.8,1.8,2.7c0.1-0.1,0.1-0.2,0.2-0.3c0.2,0.6,0.5,1,0.7,1.5l0.1,0L17.1,79c0.4,0.5,0.7,1.1,1,1.6
		c0.1-0.1,0.2-0.1,0.3-0.2c0.2,0.4,0.2,0.8,0.5,1.1c0.7,0.6,0.5,1.4,0.8,2.1c0.3-0.3,0.6-0.6,0.9-0.8l0.1,0.1c0,0.1,0,0.2-0.1,0.5
		c0.3-0.5,0.6-0.8,0.8-1.1c0.3,0.5,0.6,0.9,0.9,1.3c0.2,0.3,0,0.5-0.3,0.6c-1.2,0.8-2.2,1.8-2.9,3.1c1.2-0.6,2.1-1.8,3.7-1.9
		c-0.6,0.3-1,0.6-1.5,0.9c-0.9,0.5-1.5,1.3-2,2.1c-0.4,0.7-0.8,1.4-1.3,2.1c-0.5,0.7-1.1,1.3-1.7,1.8c0.4-0.2,0.8-0.3,1.2-0.6
		c1.2-0.8,2-2,2.9-3.1c0.6-0.7,1.3-1.3,2-2c0.2-0.2,0.6-0.3,0.9-0.3c-0.8,0.6-1.6,1.3-2.2,2.1c-0.9,0.9-2,2.1-2.8,3.2
		c-0.6,0.6-1.1,1.3-1.5,2.1c-3-5.9-4.9-12.3-5.7-19.2C11.5,73.3,11.9,72.2,12.3,71.1z M19.5,98.5c-0.2-0.3-0.4-0.5-0.5-0.8
		c0.1-0.1,0.1-0.2,0.2-0.3c0.8-1.3,2-2.3,2.2-3.9c0.6,1.4,1.1,2.7,2.6,3.6c-0.3-0.1-0.5-0.1-0.6-0.1c0,0,0,0.1-0.1,0.1
		c0.3,0.2,0.7,0.5,1.2,0.8c-0.4-0.1-0.6-0.2-1.1-0.3c0.3,0.3,0.6,0.5,0.8,0.7c0,0,0,0.1-0.1,0.1c-0.4-0.2-0.8-0.5-1.2-0.7
		c-1.1-0.7-2.5-0.6-3.3,0.2c-0.1,0.1-0.1,0.1-0.2,0.2c0.4-0.1,0.8-0.1,1.3-0.2c-0.4,0.5-0.1,0.6,0.2,0.6c-0.3,0-0.7,0-1,0
		C19.9,98.5,19.7,98.5,19.5,98.5z M31.3,111.5c0,0.1-0.1,0.2-0.1,0.3c-4.2-3.5-7.8-7.6-10.9-12.1l0,0c0.1,0,0.2,0,0.4-0.1
		c0.1,0,0.2-0.1,0.4-0.1c0-0.3,0.1-0.7,0.1-1c0,0,0,0,0,0c0.4,0.4,0.5,0.1,0.5-0.4c0.9,1,1.7,1.8,2.6,2.7c0,0.1-0.1,0.1-0.1,0.2
		c-0.9-0.2-1.7-0.3-2.7-0.4c1.3,1.5,3,2,4.7,2.5c-1.1-0.2-2.1-0.5-3.2-0.7l-0.1,0.2c0.9,0.4,1.8,0.7,2.7,1.1
		c-0.1,0.1-0.2,0.1-0.3,0.2c0.8,0.3,1.6,0.7,2.5,1c0.9,0.3,1.7,0.4,2.7,0.6c-1.7,0.8-3.4,0.3-5.2,0c0.5,0.6,1.2,0.9,1.9,1
		c0.8,0.2,1.7,0.3,2.5,0.3c0.5,0,0.7,0.3,0.8,0.7c0.3,1.2,0.5,2.4,0.2,3.7c0.2-0.5,0.5-1,0.7-1.5c0.1,0,0.1,0,0.2,0
		C31.5,110.3,31.4,110.9,31.3,111.5z M32.5,112.8L32.5,112.8c0.1-0.2,0.3-0.4,0.4-0.7l0.2,0.1c-0.1,0.3-0.2,0.5-0.3,0.8
		C32.6,112.9,32.5,112.9,32.5,112.8z M34.5,114.3c-0.5-0.4-1.1-0.8-1.6-1.2v0c0.3-0.8,0.6-1.7,0.9-2.5c0.1,0.7,0.1,1.3,0.2,2
		c0,0,0.1,0,0.1,0.1c0.2-0.4,0.5-0.9,0.8-1.4C35.1,112.5,35,113.4,34.5,114.3z M35.3,114.9c0.7-0.5,1.4-1,1.9-1.8
		c0.5,1.7,0.7,2.5,0.7,3.5C37,116.1,36.1,115.5,35.3,114.9z M38.2,84c-0.6,0.9-1.5,1.6-2.3,2.3c-0.9,0.8-1.8,1.5-2.8,2.1
		c-1,0.6-2.2,0.7-3.4,0.7c-0.9,0-1.6-0.3-2.2-0.9c-1.6-1.6-3.2-3.2-4.8-4.8c-0.1-0.1-0.1-0.3-0.2-0.5c0.1-0.1,0.2-0.1,0.2-0.2
		c0.1,0.2,0.2,0.4,0.3,0.6c0,0,0.1-0.1,0.1-0.1c0-0.2-0.1-0.4-0.1-0.6c0,0,0.1,0,0.1-0.1c0.3,0.5,0.6,1,1,1.6v-0.8
		c0.3,0.5,0.5,0.9,0.8,1.4v-0.9c0,0,0.1,0,0.1,0c0.2,0.5,0.4,1.1,0.7,1.8c0.1-0.3,0.1-0.5,0.1-0.7c0,0,0.1,0,0.1,0
		c0.1,0.3,0.2,0.8,0.4,0.9c0.6,0.2,0.5,0.8,0.7,1.2c0.6-0.6,0.8,0.1,1.2,0.5c0.2-0.9,0.3-1.8,0.5-2.6h0.2c0,0.2,0.1,0.4,0.1,0.7
		c0.5-1,0.9-2,1.4-2.9c0,0,0,0,0.1,0c-0.1,0.5-0.2,1-0.2,1.5c0.9-2,1.6-4.1,0.1-6.1c-0.2,0.3-0.5,0.6-0.9,1
		c-0.2-0.7-0.3-1.2-0.4-1.8c-0.2,0.4-0.3,0.7-0.5,1.1c-0.1-0.4-0.1-0.6-0.2-1c-0.3,0.5-0.6,0.9-0.9,1.3l-0.1,0v-0.8
		c-0.2,0.1-0.2,0.1-0.3,0.2c-0.2-0.4-0.4-0.8-0.6-1.2c-0.1-0.3-0.2-0.7-0.4-1.1c-0.1,0.1-0.2,0.2-0.3,0.2c-0.1-0.2-0.2-0.5-0.3-0.7
		c-0.2,0.1-0.3,0.2-0.5,0.3c-0.1-0.2-0.1-0.4-0.2-0.6c-0.2,0.3-0.4,0.5-0.6,0.7l-0.1,0c0.2-0.5,0.3-0.9,0.4-1.3l-0.1,0
		c-0.3,0.6-0.6,1.2-0.9,1.7c0,0-0.1,0-0.1,0c0-0.2,0-0.3,0.1-0.6c-0.2,0.1-0.2,0.2-0.5,0.3c0.2-0.9,0.4-1.7,0.6-2.4c0,0-0.1,0-0.1,0
		l-0.3,0.7H23l0.1-1.5c-0.1,0-0.1,0-0.2,0c-0.2,0.7-0.4,1.3-0.5,2h-0.1v-1.3c-0.1,0-0.1-0.1-0.2-0.1c-0.1,0.1-0.2,0.3-0.4,0.5
		c0.2-0.7,0.3-1.2,0.5-1.8c0.1,0.1,0.2,0.2,0.3,0.3c0.4-1.3,0.9-2.6,1.3-3.8l0.2,0.1c0,0.2,0,0.3,0.1,0.6c0.2-0.1,0.3-0.2,0.4-0.3
		c0.8,0.5,0,1.1,0.1,1.6c0.1-0.1,0.2-0.1,0.2-0.2c-0.1,0.4-0.1,0.7-0.2,1.1c0.3-0.5,0.5-0.9,0.6-1.4c0,0-0.1-0.1-0.2-0.1l0.3-0.6
		l0.2,0.1c-0.2,1-0.3,2-0.5,3.1c0.7-0.9,0.4-2.2,1.3-3c-0.2,0.8-0.4,1.6-0.6,2.4l0.1,0l1.1-2.6l0.1,0.1c0,0.3-0.1,0.6-0.1,0.9
		l0.7-0.5c-0.3,0.3-0.5,0.8-0.8,1c-0.5,0.4-0.5,0.7-0.1,1.1c0.3,0.4,0.5,0.9,0.8,1.3c0.2,0.2,0.5,0.2,0.7,0.4
		c0.2,0.2,0.4,0.4,0.6,0.5c0.1,0.1,2.5,2.9,3.1,2.6c0.2-0.1,0.2-0.6,0.1-1.1c0-0.3,0-0.6,0.1-0.9c0.1-1.1,0.1-2.2,0.3-3.3
		c0.2-0.9,0.5-1.7,0.8-2.6c0.3-0.8,0.1-1.5-0.2-2.2c-0.7-1.3-1-2.6-1.1-4.1c0-0.2,0.2-0.4,0.2-0.6c0.1-0.2,0.2-0.3,0.2-0.5
		c0.2-0.7,0.5-1.4,0.7-2.1c0.1,0,0.2,0,0.2,0c0,0.4,0,0.8,0,1.2l0,0c0.1,1.7,0.8,3.3,1.7,4.7c1.3,2,2.6,4,3.7,6.1
		c0.8,1.6,1.6,3.3,1.5,5.2c-0.1,1.3,0,2.5-0.1,3.8c0,0.4,0.2,1-0.6,1c-0.1,0-0.1,0.3-0.2,0.5C39,82.3,38.7,83.3,38.2,84z
		 M39.4,117.5L39.4,117.5c0-0.1,0-0.1,0.1-0.2c0.3-0.8,0.6-1.6,0.9-2.6c0.1,0.5,0.1,0.8,0.2,1.1c0.1-0.1,0.1-0.2,0.2-0.3l1.8,3.2
		c0.1,0.2,0.1,0.4,0.1,0.6C41.5,118.7,40.4,118.1,39.4,117.5z M43.7,119.7c0,0,0-0.1,0-0.2c0-0.3-0.1-0.8,0.3-0.9h0
		c0.3,0,0.7,0.3,0.9,0.5c0.3,0.4,0.6,0.9,0.8,1.4C45,120.3,44.3,120,43.7,119.7z M46.8,121L46.8,121c0-0.4,0-0.7,0.1-1.1
		c0.4,0.5,0.7,1,0.9,1.5C47.5,121.3,47.1,121.2,46.8,121z M99.7,56.6c-2.5-0.2-4.5-1.4-6.2-3.3c-1-1.1-2.1-2-3.2-2.9
		c-0.5-0.4-0.7-0.9-0.7-1.5V47h0.1c0,0.2,0,0.4,0.1,0.6c0.3-0.4,0.5-0.7,0.7-1c0,0,0.1,0,0.1,0.1c-0.2,0.5-0.5,1.1-0.7,1.6
		c0,0,0.1,0,0.1,0c1.1-1.4,2.2-2.8,3.5-4.3c-0.2,0.8-0.4,1.4-0.5,2.1c0.7-0.6,1.4-1.1,2.1-1.6c0.6-0.4,1.2-0.4,1.9,0
		c-0.4,0.4-0.7,0.8-1.1,1.3c0.4,0.1,0.9,0.1,1.2,0.3c0.3,0.2,0.5,0.5,0.7,0.7l0.5,1.3c-0.1,0-0.2-0.1-0.4-0.1
		c0.1,0.2,0.1,0.3,0.2,0.5c-0.1,0-0.2,0-0.2,0c-0.2-0.2-0.5-0.4-0.7-0.7c-1.4-1.7-4.1-1.4-5.1,0.2c-0.2,0.4-0.6,0.6-0.9,0.9
		c-0.6,0.5-0.7,1-0.1,1.5c0.8,0.7,1.9,1.4,2.9,1.9c1.1,0.5,1.7,0.8,2.8,0.9l1.2,0.2c1.1,0.1,1.5-0.1,2.2-0.1c0.5,0,0.7,0.2,0.7,0.7
		c-0.1,0.7-0.2,1.5-0.3,2.2C100.2,56.4,99.9,56.7,99.7,56.6z M100.1,60.9L100.1,60.9C100.1,61,100,61,100.1,60.9
		C100,60.9,100.1,60.9,100.1,60.9z M93.8,49.1L93.8,49.1c-0.1-0.1-0.3-0.3-0.3-0.3c0.1-0.2,0.2-0.4,0.4-0.4c1.2-0.2,1.9,0.5,1.6,1.6
		c-0.1,0.3-0.2,0.5-0.3,0.8c-0.3,0.8-1,1-1.8,0.6c-0.5-0.3-1-0.5-1.5-0.8c-0.6-0.4-0.5-0.5,0.2-0.9c0.1,0.7,0.6,1,1.2,1.1
		c0.9,0.1,1,0,1.5-1.1C94.4,49.6,94.1,49.4,93.8,49.1z M96,50.8c0.5,0,1,0.3,1.5,0.5c0.2,0.1,0.4,0.6,0.3,0.8
		c-0.1,0.2-0.5,0.3-0.8,0.5c-0.5-0.2-1-0.3-1.4-0.5c-0.2-0.1-0.4-0.4-0.3-0.5C95.5,51.4,95.8,50.8,96,50.8z M108.7,45.9
		c0.1,0,0.2-0.1,0.2-0.1c1.6,1.5,2.1,3.7,3.5,5.3c-1.6-3.4-3.6-6.6-6.6-9c1,0.2,1.7,1,2.3,1.7c0.7,0.8,1.5,1.6,2.2,2.4
		c0.1-0.1,0.2-0.1,0.3-0.2c-0.3-0.5-0.5-1-0.8-1.4c-0.3-0.4-0.2-0.9-0.7-1.2c-0.6-0.4-1.1-0.9-1.6-1.3c0,0,0.1-0.1,0.1-0.1
		c0.3,0.1,0.5,0.1,0.8,0.2c0,0,0-0.1,0-0.1c-0.4-0.3-0.8-0.6-1.3-1.1c0.4,0,0.7,0,1,0.1c0-0.1,0-0.1,0.1-0.2
		c-0.9-0.6-1.9-1.1-2.8-1.7c0.2-0.1,0.3-0.2,0.6-0.4c-0.5-0.2-0.9-0.4-1.2-0.6c0.3-0.9,1.4-1.3,1.1-2.5c-0.3,0.2-0.5,0.3-0.7,0.5
		c0,0,0-0.1-0.1-0.1c0.2-0.2,0.3-0.4,0.5-0.6c-0.4,0.2-0.7,0.4-1.1,0.6c-0.3,0.2-0.7,0.3-1.1,0.5c0.7-0.6,1-1,1-1.2
		c-0.8,1-1.7,0.3-2.6,0.4c0.2-0.2,0.3-0.4,0.5-0.6c-0.4,0.1-0.7,0.1-1,0.1v-0.1c0.3-0.2,0.6-0.3,1-0.5c-1.4,0-1.4-0.1-1.9-0.4
		c0.2-0.3,0.4-0.5,0.7-0.9c-0.8,0.3-1.5,0.5-2.1,0.8c0,0,0-0.1,0-0.1c0.2-0.2,0.3-0.3,0.5-0.4c-1,0.2-2.1,0.5-3.2,0.6
		c-0.2,0-0.6-0.2-0.8-0.3c-0.8-0.9-1.6-1.8-2.5-2.7c-2.2-2.1-4.7-3.7-7.4-5c-1.6-0.8-3.2-1.3-5-1.6c-2.5-0.3-4.9-0.3-7.3-0.1
		c-0.2,0-0.4-0.1-0.6-0.2c-0.5,0.1-1,0.2-1.5,0.3c0-0.1,0-0.1,0-0.2c-0.1,0.1-0.2,0.2-0.2,0.3c-0.2-0.2-0.3-0.3-0.3-0.3
		c-0.2,0.1-0.4,0.2-0.5,0.2c-1.2-0.9-2.7-0.7-3.9-1.1c-0.2,0-0.3,0-0.6-0.1c0.2,0.3,0.4,0.5,0.6,0.6c-0.8-0.6-1.7-0.3-2.6-0.4
		c0.9,0.3,1.7,0.6,2.6,0.8c0.1,0,0.2-0.1,0.2-0.2c0.4,0.2,0.8,0.5,1.3,0.9c-0.2-0.3-0.2-0.5-0.4-0.8c0.6,0.5,1,0.9,1.5,1.3
		c-0.1-0.3-0.1-0.5-0.2-0.7c0,0,0.1,0,0.1-0.1c0.3,0.3,0.5,0.7,0.8,1c0-0.1,0.1-0.2,0.1-0.4c0.7,0.7,1.7,0.9,2.1,1.9h0.1
		c0.2-0.4,0.4-0.9,0.6-1.5c0,0.3,0.1,0.5,0.1,0.6c0.6-1.2,1.7-1.3,2.8-1.6c0.6-0.2,1.4-0.7,2,0.2c0,0.1,0.2,0,0.3,0
		c0.2,0,0.4,0,0.7,0c-0.2,0.4-0.4,0.7-0.6,0.9c0,0,0.1,0.1,0.1,0.1c0.4-0.3,0.8-0.6,1.2-0.9c0,0,0,0.1,0.1,0.1
		c-0.2,0.3-0.4,0.6-0.5,0.8c0,0,0,0,0.1,0.1c0.3-0.2,0.5-0.4,0.8-0.6c0.1,0.2,0.2,0.4,0.4,0.7c0,0-0.1,0.2-0.2,0.5
		c0.3-0.2,0.6-0.4,0.9-0.6v0.9c0.2-0.2,0.4-0.3,0.7-0.5c-0.1,0.6-0.2,1-0.2,1.3c0.3-0.1,0.6-0.2,0.8-0.2c0.1,0.7,0.2,1.2,0.3,1.7
		c0.2-0.1,0.4-0.2,0.6-0.3c0,0.3,0.1,0.5,0.1,0.7c0.1,0,0.3-0.1,0.5-0.1c-0.2,0.4-0.3,0.8-0.4,1.2c0.3-0.2,0.4-0.3,0.8-0.5
		c-0.1,0.3-0.1,0.6-0.2,0.7c-0.5,0.7-1,1.3-1.6,2c1-0.6,1.3-2,2.9-2.2c-0.2,0.4-0.4,0.7-0.6,1.1c0.6-0.4,1-0.7,1.4-1.1
		c0,0,0.1,0.1,0.1,0.1c-0.1,0.2-0.1,0.3-0.2,0.5c0.2-0.1,0.3-0.1,0.4-0.2c0.1-0.1,0.2-0.1,0.3-0.1c-1.5,2.3-3.5,4.2-3.5,7.2
		c-0.1,2.8-0.2,5.5,1.8,7.8c-0.4-0.9-0.8-1.8-1.2-2.7c0.1,0,0.1-0.1,0.2-0.1c0.4,0.7,0.7,1.5,1.1,2.2c0.1-0.1,0.1-0.2,0.2-0.3
		c0.4,0.9,0.8,1.7,1.2,2.6c0,0,0.1,0,0.1-0.1c-0.1-0.2-0.1-0.4-0.1-0.6c0.3,0.2,0.5,0.5,0.6,0.8c0.1,0.2,0.2,0.5,0.3,0.5
		c0.5,0,0.8,0.4,1.2,0.6c2.7,1.7,5.1,3.7,7.2,6c0.6,0.7,1,1.5,1.3,2.4c0.4,1,0.6,2,0.7,3.1c0.3,1.8,1.3,3.5,1.6,5.4
		c0.2,1.9,1.1,3.7,0.8,5.7c-0.1,0.3-0.2,0.6-0.3,0.9L98.7,76c0.1,0.6,0.3,1.2,0.2,1.7c-0.1,0.8-0.2,1.5-0.4,2.3
		c-0.7,2.2-1.4,4.3-2.1,6.5c-0.1,0-0.1,0-0.2,0c-0.1-0.1-0.1-0.3-0.2-0.4c-0.5,0.4-0.9,0.8-1.4,1.2c0,0-0.1-0.1-0.1-0.1
		c0-0.1,0.1-0.2,0.1-0.4c-0.4,0.1-0.8,0.2-1.1,0.3c0,0,0-0.1,0-0.1c0.3-0.2,0.6-0.4,0.8-0.6c0,0,0-0.1,0-0.1
		c-0.4,0.1-0.8,0.2-1.2,0.2c0,0,0-0.1,0-0.1c0.1-0.1,0.3-0.2,0.4-0.2c-0.5-0.2-0.9-0.4-1.4-0.6c0.2-0.2,0.3-0.2,0.4-0.2
		c-0.5-0.3-0.9-0.6-1.4-0.8c0.1-0.1,0.3-0.2,0.4-0.3c-0.4-0.2-0.8-0.5-1.1-0.7c0.1,0,0.1,0,0.2,0c-0.1-0.7-0.2-1.4-0.3-2.1h-0.1
		c0,0.3-0.1,0.5-0.1,0.8H90c-0.1-0.6-0.2-1.2-0.4-1.8c0,0,0,0-0.1,0c-0.1,0.4-0.1,0.8-0.2,1.2c0,0-0.1,0-0.1,0
		c-0.1-0.8-0.1-1.7-0.2-2.7c-0.2,0.4-0.3,0.7-0.4,1c-0.1-0.7-0.1-1.3-0.2-1.9h-0.1c0,0.2-0.1,0.3-0.1,0.6c-0.1-0.5-0.2-0.9-0.3-1.3
		c-0.1,0-0.1,0-0.2,0c0,0.3-0.1,0.6-0.2,1.1c-0.1-0.8-0.2-1.4-0.3-2.1h-0.2c-0.1,0.4-0.3,0.8-0.4,1.3c0-0.1-0.1-0.2-0.1-0.2
		c-0.4-1.7-0.4-3.4-1.3-5c-0.4-0.8-0.2-1.9,0.2-3c1.2,1.1,1.8,2.6,3.3,3.4c-0.5-1.3-1.9-3.1-2.5-3.3c0.1,0.2,0.2,0.3,0.3,0.5
		c0,0-0.1,0-0.1,0.1c-0.3-0.3-0.6-0.6-0.8-0.9c0.6-1,2.3-2.1,3-1.9c0,0,0,0.1,0,0.1c-0.2,0-0.3,0-0.6,0c1,0.7,1.8,1.3,2.6,1.9
		c0,0,0-0.1,0.1-0.1c-0.4-0.5-0.8-1-1.2-1.5c0,0,0.1-0.1,0.1-0.1c0.5,0.3,1,0.6,1.5,1c0,0,0-0.1,0.1-0.1c-0.5-0.4-1-0.9-1.6-1.3
		c0-0.1,0.1-0.1,0.1-0.2c0.9,0.5,1.7,1,2.6,1.5c0,0,0-0.1,0-0.1c-0.3-0.2-0.6-0.5-0.9-0.7c0,0,0,0,0.1-0.1c0.2,0.1,0.3,0.2,0.5,0.2
		c0,0,0.1-0.1,0.1-0.1c-0.2-0.3-0.5-0.6-0.7-0.8c0.2-0.1,0.4-0.2,0.6-0.3c-0.4-0.3-0.7-0.6-1-0.8c0-0.1,0.1-0.2,0.2-0.2
		c0.6,0.3,1.3,0.6,1.9,0.8c0,0,0,0,0.1-0.1c-0.4-0.4-0.9-0.8-1.3-1.2c0,0,0.1,0,0.1-0.1c0.3,0.2,0.6,0.3,0.9,0.5
		c0-0.1,0.1-0.2,0.1-0.3c-0.6-0.2-1.1-0.4-1.6-0.6c0.7-1.1,1.5-2.3,2.4-3.5c0.2,0.2,0.4,0.6,0.7,1.1c-0.4-0.2-0.6-0.4-0.9-0.5
		c0,0-0.1,0.1-0.1,0.1c0.2,0.4,0.5,0.8,0.8,1.2c-0.2-0.1-0.5-0.1-0.9-0.2c0.6,0.7,1.1,1.3,1.5,1.9c0.1,0,0.2-0.1,0.2-0.2
		c-0.1-0.2-0.2-0.4-0.3-0.6c-0.1-0.2-0.2-0.4-0.3-0.6c0.1,0,0.2,0,0.5,0c-0.2-0.8-0.4-1.5-0.6-2.1c-0.1-0.5-0.2-1-0.2-1.4
		c0.2-1.5,0-2.8-0.7-4.1c-1.4-2.6-3.7-4.1-6.5-4.8c-1.4-0.3-2.9-0.3-4.3-0.3c-3.6-0.1-6.6,1.4-9,4.1c-1.4,1.6-1.9,3.4-1.2,5.5
		c0.1,0.2-0.1,0.6-0.1,0.8c0,0,0,0.1,0,0.1c0.2,0,0.3,0.1,0.5,0.1c-0.1,0.3-0.2,0.5-0.3,0.7c0.2-0.1,0.5-0.1,0.8-0.2
		c-0.3,0.4-0.5,0.7-0.7,1c0,0,0.1,0.1,0.1,0.1c0.2-0.1,0.5-0.3,0.8-0.5c-0.5,0.8-0.8,1.4-1.2,2.1c0,0,0.1,0.1,0.1,0.1
		c0.4-0.5,0.8-1,1.2-1.5c0,0,0,0,0,0c-0.4,0.9-0.8,1.8-1.2,2.6c0.1,0,0.1,0,0.2,0.1c0.1-0.1,0.2-0.2,0.3-0.2h0c0,0,0,0,0,0
		c0,0,0,0,0,0h0c0.2-0.2,0.5-0.5,0.7-0.7c0.1-0.1,0.2-0.3,0.2-0.4c0-0.4-0.1-0.4,0.3-0.4c0.1,0,0.2-0.1,0.2-0.1
		c0.4-0.7,1-0.3,1.7-0.5c-0.3,0.5-0.6,0.8-0.8,1.2c0,0,0.1,0,0.1,0.1c0.3-0.3,0.6-0.6,0.9-0.9c0,0,0.1,0,0.1,0.1
		c-0.1,0.3-0.2,0.7-0.2,1c0.2,0,0.4,0.1,0.8,0.1c-1.4,0.7-2.2,1.8-3,2.9c1-0.8,2-1.7,3.1-2.5c0.3,0.5,0.5,0.9,0.8,1.4
		c-0.1,0.1-0.2,0.4-0.3,0.7c0,0,0.1,0,0.1,0.1c0.2-0.2,0.4-0.3,0.7-0.6c0.1,1.3-0.7,2-1,3.1c0.7-0.7,1.4-1.3,2.2-2.1
		c-0.7,1-1.4,1.9-2,2.9c-0.1,0.2-0.1,0.5-0.1,0.7c0.1,0,0.1,0,0.2,0c0.6-0.7,1.3-1.4,1.9-2.1c0,0,0.1,0.1,0.1,0.1
		c-0.6,0.9-1.1,1.7-1.7,2.5c0,0,0.1,0.1,0.1,0.1c0.2-0.1,0.3-0.2,0.4-0.3c0,0,0.1,0.1,0.1,0.1c-0.6,0.9-1.2,1.9-1.7,2.9
		c0.1,0,0.2,0.1,0.2,0.1c1.1-1.5,2.2-3,3.3-4.4c0.1,0.2,0.2,0.5,0.1,0.7c-0.4,0.8-0.9,1.7-1.4,2.5c-0.4,0.6-0.7,1.2-1.1,1.8
		c0.1,0.1,0.1,0.1,0.2,0.2c0.1-0.1,0.1-0.2,0.2-0.2c0.9-1.2,1.7-2.5,2.5-3.7c0.7-0.9,1.3-1.9,1.3-3.1c0-0.1,0.1-0.2,0.2-0.4
		c0.3,0.9-0.2,1.5-0.4,2.1c-0.5,1.4-1.1,2.8-1.6,4.1c-0.1,0.2-0.1,0.4-0.2,0.6c0.1,0,0.1,0,0.2,0c0.2-0.6,0.5-1.1,0.8-1.6
		c0.2-0.5,0.5-1.1,0.7-1.6c-0.8,2.8-2.1,5.4-3.9,7.7C78.1,79.2,78,79.1,78,79c-0.3,0.4-0.5,0.7-0.8,1c-0.1-0.2-0.1-0.3-0.2-0.6
		c-0.6,0.6-1,1.1-1.6,1.8c0.1-0.4,0.2-0.7,0.2-1c-0.1,0-0.1,0-0.1-0.1c-0.6,0.7-1.1,1.4-1.7,2.1c0.2-0.5,0.3-0.9,0.4-1.3
		c0,0-0.1,0-0.1,0c-0.4,0.6-0.8,1.2-1.2,1.8c0,0,0,0-0.1,0c0.1-0.4,0.2-0.7,0.3-1.1c0,0-0.1,0-0.1,0c-0.3,0.5-0.6,0.9-0.9,1.5
		c0-0.3,0.1-0.4,0.1-0.6c-0.6,0.7-1.1,1.3-1.6,1.9c0,0-0.1-0.1-0.1-0.1c0.2-0.4,0.5-0.7,0.7-1.1c-0.6,0.5-1,1.1-1.5,1.7
		c-0.2,0.2-0.4,0.3-0.6,0.4c-0.3,0.2-0.6,0.2-0.8,0.4c-0.4,0.4-0.7-0.2-1.1,0c0-0.1,0-0.3,0.1-0.4c0.1-0.1,0.2-0.1,0.4-0.2
		c0,0,0-0.1,0-0.1c-0.9,0.2-1.7,0.5-2.6,0.7c0-0.1,0-0.1-0.1-0.2c0.2-0.1,0.3-0.2,0.5-0.4c-0.7,0.2-1.2,0.3-1.7,0.5
		c0,0,0-0.1-0.1-0.1c0.3-0.2,0.7-0.4,1-0.6c0,0,0,0,0-0.1c-0.7,0.2-1.3,0.3-2,0.5c0-0.1,0-0.1-0.1-0.2C62.8,85.1,63,85,63,85
		c-1-0.4-2.1-0.8-3.2-1.2c0.3-0.2,0.6-0.3,0.9-0.5c-0.6,0.1-1.1,0.1-1.6,0.2c0.1-0.2,0.2-0.3,0.2-0.4c-0.5-0.1-1-0.2-1.5-0.4
		c0-0.2,0.1-0.3,0.1-0.4c-0.2,0-0.3,0-0.4-0.1c0,0-0.1-0.1-0.1-0.1c0.2-0.1,0.3-0.1,0.5-0.2c0,0-0.1-0.1-0.1-0.1
		c-0.3-0.1-0.6-0.1-1-0.2c0.2-0.2,0.2-0.3,0.4-0.4c-0.4,0-0.6-0.1-0.9-0.1c0.1-0.2,0.2-0.3,0.4-0.5c-0.4,0.1-0.6,0.1-1,0.2
		c0.1-0.3,0.2-0.5,0.3-0.8c-1.6,0.8-2.8,2-3.5,3.5c0.5-0.5,1-1.1,1.4-1.6c-0.6,1-1.4,1.8-1.6,3c0.2-0.3,0.4-0.6,0.6-0.9
		c0,0,0,0,0.1,0c-0.4,0.9-0.7,1.8-1.1,2.7c0.1,0,0.1,0,0.2,0.1c0.2-0.5,0.4-1,0.6-1.5c0,0,0.1,0,0.1,0c-0.2,1-0.4,2-0.6,3
		c0.1,0,0.1,0,0.2,0.1c0.1-0.1,0.2-0.2,0.4-0.5c-0.1,0.6-0.2,1-0.2,1.4c0,0,0.1,0,0.2,0c0.1-0.2,0.2-0.4,0.3-0.6
		c0.2,0.5,0.3,0.9,0.5,1.4c0.1-0.1,0.2-0.1,0.4-0.3c-0.2,0.7-0.5,1.3-0.7,1.9c0.4-0.3,0.8-0.5,1.2-0.9c0.1,0.5,0.1,0.8,0.2,1.1
		c0.1,0,0.2-0.1,0.3-0.1c-0.1,0.3-0.2,0.5-0.3,0.9c0.3-0.2,0.4-0.3,0.6-0.5c-0.2,0.5-0.3,0.8-0.4,1.2c0,0,0,0,0.1,0
		c0.2-0.2,0.3-0.4,0.6-0.7c-0.1,0.4-0.2,0.7-0.2,1c0.1-0.1,0.2-0.1,0.3-0.1c0.1,0.4,0.1,0.9,0.2,1.3c0,0,0.1,0,0.2,0.1
		c-0.1,0.2-0.2,0.4-0.3,0.6c0.2,0,0.3,0,0.3,0c0.3,0.7,0.6,1.3,0.9,1.9c0.2,0.5,0.5,0.9,0.7,1.3c0.4-0.1,0.8-0.2,1.3-0.3
		c0,0.3-0.1,0.4-0.1,0.6c0.3-0.1,0.5-0.2,0.7-0.3c-0.1,0.2-0.1,0.4-0.1,0.5c0.6-0.1,1.2-0.2,1.8-0.2c0,0.2,0,0.3-0.1,0.4
		c0.7-0.3,1.3-0.5,2-0.8c0,0,0,0.1,0,0.3c1.2-1.3,2.9-1.2,4.4-2c0,0.4,0,0.6,0,0.8c0.2,0.8-0.2,1.8,0.8,2.4c0.5,0.3,1.2,0.4,1.5-0.1
		c0.3-0.4,0.5-0.9,0.7-1.2c0.2,0,0.3,0.1,0.4,0.1c0.4-0.3,0.8-0.5,1.1-0.9c0.5-0.6,1.1-0.6,1.8-0.3c-0.6,0.5-1.1,0.8-1.5,1.3
		c-0.4,0.5-0.6,1.1-0.9,1.7c0,0,0.1,0,0.1,0c0.6-0.5,1.1-1,1.7-1.4c0,0.1,0.1,0.1,0.1,0.2c-0.2,0.4-0.3,0.7-0.5,1.2
		c0.8-0.6,1.5-1.2,2.2-1.8c0,0,0.1,0.1,0.1,0.1c-0.2,0.4-0.5,0.9-0.7,1.3c0,0,0.1,0,0.1,0.1c0.1-0.1,0.2-0.2,0.3-0.3
		c0.1,0.1,0.2,0.3,0.3,0.4c0.3-0.5,0.6-1,0.9-1.5c0.1,0,0.1,0.1,0.2,0.1c-0.3,0.7-0.6,1.5-0.9,2.2c0,0,0.1,0,0.1,0
		c0.4-0.6,0.8-1.1,1.2-1.7c0,0,0.1,0,0.1,0.1v0.7c0.2-0.3,0.4-0.5,0.7-0.9c-0.1,0.6-0.2,1-0.3,1.5c0,0,0.1,0,0.1,0.1
		c0.2-0.4,0.4-0.8,0.7-1.1c0,0,0.1,0,0.1,0.1c-0.1,0.4-0.2,0.7-0.2,1.1c0,0,0.1,0,0.1,0c0.3-0.4,0.5-0.8,0.8-1.2c0,0,0.1,0,0.1,0.1
		c0,0.3-0.1,0.6-0.2,1.1c0.5-0.5,0.8-0.9,1-1.2c0.8-0.1,0.3,0.5,0.4,0.7c0.4-0.5,0.8-1,1.2-1.4c0.2,0.2,0.3,0.5,0.6,0.8
		c0.2-0.4,0.3-0.7,0.5-1.1c0.2,0.4,0.4,0.6,0.7,1.1c0.1-0.5,0.2-0.9,0.3-1.3c0.8-0.2,0.9,1,1.8,1.1c-0.3-0.5-0.6-1-0.9-1.4
		c0.1-0.1,0.1-0.1,0.1-0.2c0.6,0.4,1.1,0.7,1.7,1.1c0-0.1,0.1-0.1,0.1-0.2c-0.2-0.3-0.3-0.5-0.4-0.8c0,0,0.1-0.1,0.1-0.1
		c0.7,0.6,1.4,1.1,2.2,1.7c-0.3-0.7-0.5-1.4-0.8-2.1c0.6,0.5,1.1,1,1.6,1.5l0.1-0.1c-0.3-0.6-0.5-1.1-0.8-1.6c0,0,0.1-0.1,0.1-0.1
		c0.6,0.8,1.2,1.6,1.8,2.3c0.1,0,0.1,0,0.2-0.1c-0.4-0.7-0.7-1.4-1.1-2.1c0,0,0.1,0,0.1-0.1c0.5,0.7,1,1.4,1.5,2
		c0,0,0.1-0.1,0.1-0.1c-0.2-0.5-0.4-0.9-0.5-1.3c0,0,0.1,0,0.1,0c0.3,0.5,0.6,1.1,0.9,1.6c0.1,0,0.1,0,0.2-0.1
		c-0.2-0.8-0.5-1.5-0.7-2.3c0.1,0,0.1,0,0.1,0c0.2,0.5,0.4,1.1,0.7,1.6c0.2-0.8,0.3-1.6,0.4-2.3c0.1,0,0.1,0,0.2,0
		c0.3,2.2,0.1,6.4-1.7,7.2c-0.1-0.1-0.1-0.2-0.2-0.4c-0.1,0.3-0.2,0.5-0.3,0.7c-0.1-0.1-0.2-0.2-0.3-0.3c-0.1,0.4-0.2,0.7-0.4,1
		c-0.1-0.1-0.2-0.2-0.3-0.2c-0.2,0.6-0.3,1.1-0.5,1.7c-0.1,0-0.1,0-0.2,0v-1.4h-0.1c-0.1,0.5-0.2,1-0.4,1.7
		c-0.2-0.4-0.2-0.6-0.4-0.9c-0.2,0.7-0.3,1.2-0.4,1.7h-0.1c-0.2-0.5-0.4-1-0.7-1.5c-0.1,0.2-0.1,0.4-0.2,0.7c0,0-0.1-0.1-0.1-0.1
		c-0.2,0.3-0.5,0.7-0.8,1c-0.1,0-0.2,0-0.2,0v-3.1c-0.1,0-0.2,0-0.2,0c-0.2,1-0.3,2-0.5,3.1h-0.2v-2.5c0,0-0.1,0-0.1,0
		c-0.2,0.8-0.3,1.7-0.4,2.5h-0.1c-0.1-0.2-0.2-0.4-0.3-0.7c-0.2,0.6-0.3,1.1-0.4,1.7c-0.2-0.4-0.3-0.8-0.5-1.2
		c-0.2,0.5-0.3,0.8-0.5,1.2c-0.1,0-0.1,0-0.2,0v-3.2h-0.1c-0.3,0.7-0.5,1.3-0.8,2c0,0-0.1,0-0.1,0c0.1-0.6,0.2-1.1,0.3-1.7
		c-0.2,0.2-0.3,0.5-0.4,0.8c-0.1,0.2-0.1,0.7-0.6,0.5c0.1-0.5,0.2-0.9,0.3-1.4c-0.4,0.6-0.8,1.1-1.1,1.5c-0.2-0.5-0.4-0.8-0.6-1.3
		c-0.3,0.6-0.6,1.1-0.9,1.6c0,0-0.1,0-0.1-0.1c0.1-0.5,0.3-0.9,0.4-1.4c0,0-0.1,0-0.1,0c-0.3,0.6-0.6,1.2-0.8,1.8c0,0-0.1,0-0.1,0
		c0.2-0.6,0.3-1.2,0.5-1.9c0,0-0.1,0-0.1,0c-0.3,0.6-0.6,1.2-0.9,1.8c0,0-0.1,0-0.1,0c0.2-0.8,0.5-1.6,0.7-2.4c0,0-0.1,0-0.1,0
		c-0.4,0.8-0.7,1.5-1.1,2.3c0,0-0.1,0-0.1-0.1c0.1-0.4,0.2-0.7,0.4-1.1c0,0,0,0-0.1,0c-0.2,0.3-0.3,0.5-0.5,0.8c0,0,0,0-0.1,0
		c0.1-0.4,0.3-0.9,0.4-1.3c0,0-0.1,0-0.1,0c-0.4,0.6-0.7,1.2-1.1,1.7c0,0-0.1-0.1-0.2-0.1l0.8-1.7c0,0-0.1,0-0.1,0
		c-0.4,0.4-0.7,0.9-1,1.3c-0.2-0.2-0.4-0.4-0.6-0.6c0.1-0.5,0.2-1,0.4-1.5c-0.1,0-0.2-0.1-0.2-0.1c-0.4,0.2-0.9,0.3-1.3,0.5
		c-1.1,0.4-1.6,0.3-2.4-0.5c-0.2-0.2-0.4-0.4-0.6-0.7c-0.6-0.8-1.3-1.1-2.3-1.2c-2.8-0.1-5.6-0.3-8.3-0.4c-0.1,0-0.2,0-0.5,0
		c0.6,0.7,1,1.3,1.5,1.8c0,0,0.1,0,0.1-0.1c-0.1-0.3-0.2-0.5-0.2-0.8c0,0,0,0,0.1-0.1c0.3,0.4,0.7,0.8,1,1.3
		c0.2-0.4,0.3-0.6,0.4-0.8c0.3,0.4,0.5,0.7,0.7,1c0,0,0.1-0.1,0.1-0.1c-0.1-0.2-0.1-0.3-0.2-0.7c0.5,0.6,0.9,1,1.3,1.5
		c0,0,0.1,0,0.1-0.1c0-0.3-0.1-0.6-0.2-1c0.4,0.6,0.6,1.1,0.9,1.6c0,0,0.1,0,0.1-0.1c-0.2-0.5-0.4-0.9-0.6-1.4
		c0.1,0,0.1-0.1,0.2-0.1c0.3,0.5,0.6,1.1,0.9,1.6c0,0,0.1,0,0.1,0c-0.1-0.4-0.2-0.9-0.3-1.3c0,0,0.1,0,0.1,0
		c0.2,0.4,0.5,0.7,0.8,1.2c0-0.4,0.1-0.7,0.1-1c0.1,0,0.1-0.1,0.2-0.1c0.1,0.1,0.2,0.3,0.3,0.4c0-0.2,0.1-0.3,0.1-0.4
		c0.3,0.3,0.5,0.7,0.8,1c0,0,0.1,0,0.1-0.1v-1.1c0.2,0.4,0.3,0.7,0.5,0.9c0.1,0.2,0.3,0.3,0.6,0.6c0,0.5,0.1,1.1,0.2,2
		c0.4-1.2-0.1-2.4,0.2-3.4c0.1,0,0.2,0,0.3,0c0.2,0.4,0.3,0.7,0.5,1.1c0.1-0.2,0.2-0.4,0.2-0.6c0.4,0.3,0.4,0.7,0.3,1.1
		c-0.2,0.9-0.4,1.9-0.6,2.8c0.1,0,0.1,0,0.2,0c0.2-0.9,0.5-1.7,0.8-2.7c0,0.4,0.1,0.6,0.1,0.9c0.1-0.2,0.2-0.3,0.4-0.6
		c0.1,0.6,0.1,1.1,0.1,1.7c0.2-0.4,0.4-0.7,0.5-1c0.1,0,0.1,0,0.2,0.1c-0.2,0.9-0.5,1.7-0.7,2.6c0,0,0.1,0,0.1,0
		c0.2-0.5,0.4-0.9,0.6-1.4c0.1,0.3,0.1,0.6,0.1,1c-0.1,1.9-0.2,3.9-0.3,5.8c0,0.2,0.2,0.4,0.3,0.6c0.1-0.2,0.3-0.4,0.3-0.6
		c0.1-0.8,0.1-1.5,0.2-2.3c0-0.1,0-0.1,0.1-0.2c0.1,0.2,0.1,0.4,0.1,0.4c0.4-0.4,0.8-0.7,1.3-1.2c0,0.4,0.1,0.6,0.1,0.9
		c0.2-0.1,0.3-0.2,0.5-0.4c-0.1,1.1-0.2,2.1-0.2,3.1c0,0,0.1,0,0.1,0c0.2-0.7,0.3-1.4,0.5-2.1c0,0,0,0,0.1,0v2.6
		c0.3-0.8,0.7-1.7,1-2.6c0.2,0.9,0.4,1.8,0.4,2.7c0.1,0.6,0.4,0.8,1,0.8c0.1-1.3,0.1-2.5,0.2-3.7H77v3.7h0.1v-1
		c0.1,0.4,0.1,0.8,0.2,1.2c0.1,0,0.2,0,0.3,0c0-0.5,0-1,0-1.6c0-0.5,0.1-1,0.1-1.5c0,0,0.1,0,0.1,0c0.1,0.2,0.1,0.4,0.2,0.6h0.2
		c0.2-1.1,0.4-2.2,0.6-3.3c0,0,0.1,0,0.1,0c0.1,0.7,0.2,1.5,0.2,2.2h0.1c0-0.1,0.1-0.2,0.1-0.4c0.1,0.1,0.1,0.2,0.2,0.5
		c0.1-1.3,0.2-2.4,0.3-3.4c0.1,0,0.1,0,0.2,0c0.1,0.3,0.2,0.6,0.3,1.1c0.2-0.4,0.3-0.7,0.4-0.9c0.6,0.2,0.2,0.8,0.4,1.2
		c0.1-0.3,0.2-0.6,0.4-0.9c0.1,0.7,0.2,1.3,0.3,1.9c0,0,0.1,0,0.1,0l1-2.5c0,0,0.1,0,0.1,0c0.2,2.1,0.4,4.2,0.5,6.4
		c0.6-0.1,0.8-0.4,0.8-1c0-1.7,0-3.4,0.1-5h0.2c-0.1,0.7-0.1,1.3-0.2,2c0,0.6,0,1.3,0,2c0.2-1.8,0.2-3.5,1.3-5.1
		c-0.1,1.2-0.1,2.3-0.2,3.5c0,0,0,0,0.1,0c0.1-0.3,0.2-0.5,0.2-0.8c0.1,0.4,0.1,0.8,0.2,1.2c0.4-0.8,0.1-1.8,0.7-2.7
		c0,0.4,0.1,0.6,0.1,0.9c0.1-0.5,0.2-0.9,0.3-1.3c0,0,0.1,0,0.1,0v1.3h0.1c0.1-0.8,0.2-1.6,0.2-2.3c0.1,0,0.1,0,0.1,0
		c0.1,0.7,0.2,1.5,0.4,2.2h0.1v-1.3c0,0,0.1,0,0.1,0c0.1,0.7,0.2,1.4,0.3,2.2H89c0-0.6,0.1-1.2,0.1-2c0.1,0.2,0.2,0.4,0.3,0.5
		c0.3-1.7,0.6-3.2,0.8-4.9h0.9c0.1-0.5,0.2-1,0.3-1.4c0.1,0,0.1,0,0.2,0c0.1,0.3,0.2,0.6,0.2,0.8c0,0,0,0,0.1,0
		c0.1-1,0.2-1.9,0.3-2.9c0,0,0.1,0,0.1,0v6.1h0.1c0.1-1.2,0.2-2.4,0.3-3.6h0.1c0,0.8,0.1,1.7,0.1,2.5c0.1-0.1,0.2-0.1,0.2-0.2
		c-0.1-2.2-0.1-4.4-0.2-6.6c-0.1-1.6-0.2-3.2-0.3-4.8c-0.1-1.4,0.1-1.8,1.4-2.1c0.3,1.3,0.7,2.7,1,4l0.2,0.9c0.3,0.9,0.4,2,1,2.7
		c0.9,1.1,1.2,2.1,1,3.4c-0.1,0.6,0,1.1,0.4,1.6c0.6,0.7,1.1,1.4,1.6,2.2c1,1.5,1.4,3.1,1.2,4.9c0,0.1,0,0.1-0.1,0.2
		c-0.2,0.1-0.4,0.3-0.6,0.4c-0.1-0.2-0.3-0.3-0.4-0.5c-0.2-0.3-0.2-0.6-0.4-0.9c-0.4-0.8-0.9-1.5-1.3-2.2c-0.1,0-0.2,0.1-0.2,0.1
		c0.8,1.2,1.2,2.5,1.4,3.8c0,0.1,0,0.2,0,0.3c-8.9,5.8-19.6,9.2-31,9.2c-6.3,0-12.4-1.1-18.1-3l-0.1,0c0-0.1,0-0.2-0.1-0.4
		c-0.6-2.5-1.8-4.7-3.5-6.6c-1.1-1.2-2.1-2.4-2.6-4c-0.7-2.1-0.3-4,1.3-5.6c0.5-0.5,1-0.9,1.7-1.5c-1.8,0.4-3.1,1.2-3.9,2.7
		l-0.1-0.1l0.8-1.5c0,0-0.1-0.1-0.1-0.1c-0.5,0.6-1,1.1-1.5,1.7c0.4-1.7,1.2-3.1,2.6-3.9c1.9-1.1,3.9-2.1,5.5-3.6
		c0,0.1,0.1,0.1,0.1,0.2c-0.3,0.3-0.7,0.6-1,0.9c-0.4,0.3-0.8,0.6-1.3,1c0.3-0.1,0.4-0.1,0.7-0.2c-0.5,0.4-0.9,0.6-1.4,1
		c1.3,0.1,2.1-0.6,3.1-0.9c-0.6,0.4-1.2,0.8-1.9,1.3c0.9,0.2,1.5-0.4,2.1-0.6c0,0,0,0,0,0c-0.3,0.3-0.5,0.7-0.8,1h0
		c0.9-0.3,1.6-0.9,2.1-1.9c-0.5,0.3-0.9,0.6-1.3,0.8c0,0,0,0,0,0c0.2-0.2,0.6-0.5,0.8-0.8c0.3-0.4,0.8-0.7,0.5-1.4
		c-0.1-0.2,0.2-0.7,0.4-1.1h-0.4c0.1-0.3,0.2-0.6,0.2-1c-0.2,0-0.3,0-0.4,0v-3.3c0,0-0.2,0.1-0.3,0.1c-0.1-0.8-0.2-1.7-0.3-2.5
		c-0.1,0.1-0.2,0.2-0.4,0.3v-1.8c-0.2,0.3-0.2,0.4-0.3,0.6c-0.1-1-0.2-1.8-0.4-2.7c-0.1,0-0.2,0-0.2,0c-0.2-1.1-0.4-2.1-0.4-3.2
		c0-0.5,0.2-1,0.2-1.6c0.1-1.4,0.2-2.8,0.4-4.2c0.1-0.9,0.5-1.7,0.9-2.5c2-3.3,4.4-6.3,7.6-8.5c1.6-1.1,2.8-2.6,3.6-4.3
		c0.3-0.6,0.4-1.3,1-1.8c-0.2,0-0.4,0-0.5,0c0,0,0-0.1,0-0.1c0.7-1.7,1.3-3.4,2-5c0.6-1.2,1.2-2.4,2-3.5c0.4-0.6,1-0.9,1.5-1.4H67
		c0,0,0,0,0-0.1c0.6-0.2,1.2-0.4,1.7-0.6l0-0.2c-0.2-0.1-0.3-0.1-0.6-0.2c0.4-0.1,0.7-0.2,1.1-0.4c-0.3-0.1-0.6-0.3-1-0.4
		c0,0,0-0.1,0.1-0.1c0.4,0,0.8,0.1,1.4,0.2c-0.3-0.2-0.4-0.3-0.6-0.5c0.5-0.1,1-0.1,1.5-0.2v-0.1l-1.1-0.4c0-0.1,0-0.1,0-0.2
		c0.3,0.1,0.6,0.2,1.1,0.3c-0.4-0.5-0.6-0.8-0.9-1.1l0.1-0.1c0.5,0.3,0.9,0.6,1.4,1l0.1-0.1c-0.2-0.4-0.5-0.8-0.7-1.2l0.1-0.1
		l0.6,0.7c0,0,0.1,0,0.1,0c-0.1-0.2-0.2-0.5-0.3-0.9c0.2,0.3,0.3,0.5,0.6,0.8c-0.1-0.9-0.2-1.6-0.2-2.3c0,0,0.1,0,0.1,0
		c0.1,0.3,0.3,0.7,0.4,1.1c0.1-0.2,0.1-0.3,0.1-0.5c0.2,0.4,0.4,0.7,0.5,1c0,0,0.1,0,0.1,0c-0.2-0.4-0.2-0.8-0.4-1.2
		c-0.3-0.6-0.1-1.2-0.1-1.8c0-0.7-0.1-1.4-0.2-2.1c0-0.1,0.1-0.2,0.2-0.3c0.1,0,0.2,0.1,0.2,0.1c-0.1-0.3-0.1-0.6-0.2-1
		c-0.3-2.5-0.8-5-2-7.3c-0.6-1.2-1.3-2.3-2-3.5c-0.1-0.1-0.1-0.3-0.2-0.5c-0.9-2.6-3.3-4.4-6.1-4.6c-0.8,0-1.6-0.1-2.4-0.2
		c0.5-0.1,0.9-0.3,1.4-0.4c0-0.1,0-0.1,0-0.2c-1.2,0.2-2.4,0.4-3.6,0.7c1.3-0.9,2.9-0.6,4.3-0.9v-0.2c-0.6,0-1.2-0.1-1.7,0
		c-1.3,0.3-2.5,0.7-3.7,1.2c-4,1.7-7.7,4-11.2,6.7c-0.6,0.5-1.2,0.6-1.9,0.4c-0.8-0.2-1.5-0.4-2.3-0.4c-0.9,0-1.9,0.1-2.9,0.2
		c0.6,0.2,1.1,0.3,1.7,0.5c0,0,0,0.1,0,0.1c-0.2,0-0.5,0.1-0.8,0.1c1,0.5,2.1,0.4,2.8,1.2c-2-1-4.1-0.5-6.2-0.7
		c0.1,0.1,0.2,0.3,0.2,0.4c-0.5-0.4-1.1-0.3-1.8-0.1c0.6,0.1,0.9,0.2,1.4,0.4c-0.6,0.1-1.2,0-1.7-0.4c-0.5-0.4-0.9-0.8-1.4-1.2
		c0.1,0.8,0.8,1.8,2.1,3.2c-0.2-0.1-0.4-0.1-0.7-0.1c0.1,0.1,0.2,0.2,0.3,0.4c-0.8-0.1-1.6-0.2-2.4-0.4l0,0c0.6,0.3,1.2,0.6,1.9,0.9
		c-1.3,0.6-2.5,1.2-3.7,1.7l0,0.1l2.4-0.5c0,0.1,0,0.1,0,0.2c-0.6,0.2-1.1,0.3-1.7,0.6c-0.7,0.2-1.3,0.5-2,0.9
		c-0.2,0.1-0.4,0.4-0.4,0.6c0,0.2,0,0.4,0.1,0.6c-0.6,0.4-1.2,0.8-1.8,1.1l0.1,0.1l1-0.4c-0.8,0.3-0.8,1.1-0.9,1.7
		c0.1,0,0.3-0.1,0.6-0.2c0.2,0.5-0.1,0.7-0.5,0.9c-0.7,0.3-1.3,0.7-2,1.1c-0.2,0.1-0.4,0.3-0.5,0.5c0.2-0.1,0.5-0.2,0.8-0.2
		c-0.3,0.2-0.5,0.5-0.9,0.8c0.3,0.1,0.4,0.1,0.6,0.1c-0.5,0.7-1,1.3-1.6,2c0.3-0.1,0.4-0.1,0.7-0.2c-0.7,0.8-1.4,1.5-2,2.2
		c-0.5-0.1-0.9-0.2-1.3-0.2l0,0.2c0.2,0.1,0.5,0.2,0.8,0.3C21.1,50.9,21,51,21,51c0.5,0.8-0.2,0.7-0.5,0.6c-0.7-0.1-1.5-0.3-2.1-0.5
		c0.1,0.2,0.3,0.4,0.5,0.7c-1-0.2-1.9-0.4-2.8-0.6L16,51.5l2.7,0.7c0,0,0,0.1,0,0.1c-0.6,0.1-1.2,0.1-1.8,0.2c0,0.1,0,0.2,0,0.2
		c0.4,0.2,0.8,0.4,1.3,0.7c-0.3,0.1-0.6,0.2-0.9,0.4c-0.9,0.4-1.8,0.8-2.6,1.3c1,0,1.9-0.5,2.8,0c-0.7,0.4-1.4,0.7-2,1.1
		c-0.3,0.2-0.4,0.5-0.6,0.8c-0.3,0.6-0.9,0.8-1.4,1.1c-0.2,0.1-0.3,0.2-0.6,0.4c0.3,0,0.5-0.1,0.9-0.1c-0.8,0.5-1.5,0.9-2.1,1.3
		c0,0,0,0.1,0.1,0.1c0.6-0.3,1.3-0.7,2-1c-0.6,0.7-1.1,1.3-1.8,2c0.6,0.1,1,0.1,1.4,0.1c-0.7,0.9-1.4,1.9-2.1,2.8
		c0.1,0.1,0.1,0.1,0.2,0.2c0.6-0.4,0.8-1.5,1.8-1.4c-0.3,0.4-0.6,0.9-0.9,1.3c0.9-0.5,1.8-1,2.7-1.5l0.1,0.1c0,0.1-0.1,0.2-0.1,0.2
		c0,0,0.1,0,0.1,0c0.4-0.2,0.8-0.3,1.2-0.5c0.6-0.2,1.1-0.7,1.7-0.3c0.1,0,0.3-0.1,0.4-0.2c0.4-0.2,0.8-0.4,1.3-0.6
		c0.4-0.2,0.7-0.2,0.6,0.4c0.3-0.2,0.6-0.3,1-0.5c-0.4,0.5-0.6,0.9-0.9,1.3l0.1,0.1c0.3-0.2,0.7-0.5,1-0.7l0.1,0.1
		c-0.1,0.3-0.2,0.6-0.4,0.9c-0.5,0.6-1.1,1.3-1.9,1.4c-0.4,0.1-0.8,0.1-1.3,0.2c0.2-0.3,0.4-0.5,0.6-0.9c-0.9,0.3-1.9,0.2-2.7,0.8
		c-0.1,0.1-0.2,0.1-0.3,0.1c-0.1,0-0.1-0.1-0.1-0.1c0.4-0.4,0.7-0.8,1.1-1.2l-0.1-0.2c-1,0.5-2.1,0.9-3.2,1.5
		c0.1-0.3,0.2-0.5,0.3-0.7c-1.3,0.5-2.6,3-2.1,4.1c0.3-0.1,0.6-0.2,0.9-0.4c-0.3,0.6-0.8,1-1.3,1.6c0-0.2,0-0.4,0-0.6
		c0-31.3,25.5-56.8,56.8-56.8c31.3,0,55.9,24.7,56.7,55.3c-0.4-0.2-0.8-0.5-1.2-0.7c0.3,0,0.5,0.1,0.7,0.1c-1.4-0.8-2.8-1.6-4.2-2.4
		c0-0.1,0.1-0.1,0.1-0.2c0.3,0.1,0.6,0.2,1,0.3c-0.3-0.4-0.6-0.8-0.9-1c-1.7-1.3-3.4-2.7-5.2-3.9c-0.8-0.6-1.3-1.2-1.6-2.1
		c-0.7-1.9-1.4-3.8-2.1-5.7c0-0.1,0-0.1,0-0.2l0.1-0.1c0.2,0.2,0.3,0.5,0.5,0.8c0,0,0.1-0.1,0.1-0.1c-0.5-0.9-1.1-1.8-1.6-2.7
		c0.2,0,0.3,0.1,0.4,0.2c0.1,0.1,0.2,0.2,0.4,0.4C110.1,48.2,109.4,47,108.7,45.9z M79.2,91.2c0.2,0.2,0.5,0.4,0.6,0.7
		c0.3,0.7,0.5,1.5,0.7,2.2c0.1,0,0.1,0,0.2-0.1c0-1.2,0-2.4,0-3.5c0-0.3,0.1-0.7,0.4-0.9c1.3-1.5,3.1-1.7,4.9-1.5
		c0.3,0,0.6,0.1,0.9,0.1c0,0,0,0,0.1,0.1H85v0.1c0.8,0.2,1.7,0.3,2.5,0.5c0.3,0.1,0.6,0.3,0.7,0.6c0.5,1.3,0.6,2.7,0.3,4.1
		c0,0.2-0.1,0.3-0.2,0.5h0c-1.5,1.6-3.1,2.9-5.4,2.9c-1.6,0-3.3,0.2-4.9,0c-2.5-0.2-4.4-1.7-6.2-3.3c-0.3-0.3-0.7-0.5-1-0.8
		c-0.5-0.4-1-0.8-1.4-1.3c-0.5-0.7-1-1.2-2-1c0.8-0.9,1.8-1.3,3-1.5c1.5-0.2,3-0.3,4.5-0.4c0.2,0,0.5,0.2,0.7,0.2
		c0.4,0.1,0.9,0.2,1.3,0.2c0.6,0,0.9,0.2,1.2,0.7c0.3,0.4,0.7,0.7,1.3,1.1c-0.6-0.3-1-0.5-1.4-0.7c0,0.1-0.1,0.1-0.1,0.2
		C78.3,90.7,78.7,90.9,79.2,91.2z M78.9,64L78.9,64c-1.6-0.3-3.3-0.8-4.6-2c-0.9-0.9-1.7-1.8-1.7-3.2c0-0.8,0.3-1.5,0.9-2.1
		c0.3,1,0.6,2,0.8,2.9c0,0-0.1,0-0.1,0.1c-0.3-0.5-0.5-1-0.8-1.5c0,0-0.1,0-0.1,0c0,0.3,0.1,0.6,0.1,0.9c0.5,1.6,1.8,2.7,3.4,2.8
		c1.2,0.1,2.4,0.1,3.5,0c1,0,1.5-0.6,1.8-1.5c0.2-0.6,0.4-1.3,0.7-1.8c0.1-0.2,0.3-0.2,0.5-0.3c0.1,0.2,0.2,0.3,0.2,0.5
		c0.1,1.4-0.2,2.8-1.2,3.8C81.6,63.4,80.3,64.3,78.9,64z M80.4,67.8L80.4,67.8c-0.6,0.7-1.2,1.5-1.8,2.2c-0.1-0.1-0.1-0.1-0.2-0.2
		c0.6-0.7,1.3-1.4,1.9-2.1C80.4,67.7,80.4,67.8,80.4,67.8z M84.7,61.6c0.1,2.2,0,4.4-0.5,6.5c-0.1,0-0.1,0-0.2,0
		c0.2-2.2,0.3-4.3,0.5-6.5v0C84.6,61.6,84.7,61.6,84.7,61.6z M84.4,53.8L84.4,53.8c-0.1,0.7-0.9,1.4-1.6,1.2
		c-1.3-0.4-2.4,0.1-3.4,0.7c-0.1,0.1-0.2,0.1-0.3,0.2c-0.2-0.3-0.5-0.6-0.7-0.9c-1,0.8-1.9,1.5-2.3,2.9c0.2-0.2,0.3-0.3,0.5-0.4
		c0.6-0.5,0.7-0.5,1.2,0.1c0.1,0.1,0.2,0.1,0.2,0.2c0.9,0.3,1.1,1.3,0.4,2.1c-0.1-0.2-0.1-0.4-0.2-0.5c-0.1-0.3-0.3-0.6-0.5-0.8
		c-0.5-0.4-0.8-0.3-1.1,0.3c-0.1,0.3-0.3,0.5-0.5,0.7c-0.2-0.2-0.5-0.5-0.6-0.7c-0.7-1.4-0.4-3,0.9-3.8c0.9-0.6,1.8-1.3,2.8-1.5
		c1.6-0.3,3.2-0.3,4.8-0.4C84.3,53,84.5,53.3,84.4,53.8z M83,74.3c0.1-0.7,0.2-1.4,0.3-2c0.1-0.7,0.1-1.4,0.1-2.1
		c-0.1,0-0.1,0-0.2,0C83.1,70.4,83,70.7,83,71c-0.4,1.6-0.8,3.2-1.4,4.7c-0.3,0.7-1.1,1.2-1.7,1.8c1.7-2.6,2.4-5.6,3.4-8.5
		C83.8,70.8,83.7,72.6,83,74.3z M87.2,61.6L87.2,61.6c0.6,0.8,1.4,1.5,2.4,1.8c0.3,0.1,0.6,0.3,0.9,0.5c-0.2,0.3-0.4,0.6-0.6,0.9
		c-0.7-0.6-1.3-0.2-1.9-0.3c-0.6-0.1-1.2-0.2-1.9-0.3v-0.3c0.4-0.1,0.8-0.2,1.3-0.4c-0.3-0.3-0.5-0.6-0.7-0.9
		c-1.4-1.6-1.4-3.4-0.9-5.3c0.2-0.9,1.5-2,2.5-1.8c0,0-0.1,0.1-0.1,0.1c-1.3,0.3-1.8,1-2,2.3C86.2,59.2,86.5,60.5,87.2,61.6z
		 M92.2,56.4c-0.1,0.2-0.2,0.4-0.3,0.6c-0.9-0.9-1.7-1.7-2.7-2.7l1-0.2c1.5,0.3,3,2.5,3.3,4.1c0.1,0.4,0.2,0.9-0.4,1.1
		C93.2,58,93,57.2,92.2,56.4z M91.8,59.3L91.8,59.3c-0.2,0.4-0.6,0.4-1.1,0.3c-0.2-0.1-0.4-0.2-0.8-0.3c0.1-0.3,0.2-0.7,0.5-0.9
		c0.3-0.4,0.7-0.4,1-0.1C91.9,58.5,92.1,58.9,91.8,59.3z M58.2,95.7L58.2,95.7C58.1,95.7,58.2,95.6,58.2,95.7c0.8,0.6,1.6,1.3,2.5,2
		c-1.3,0.4-2.4,0.1-2.9-0.9c-1-1.9-1.7-4.1-2.3-6.2c1.3,0,1.2,0.9,1.3,1.7c0.2,0.9,0.3,1.7,0.5,2.6c0.2,1,0.6,1.9,1.7,2.3
		C58.6,96.6,58.4,96.1,58.2,95.7z M44.3,45.6L44.3,45.6c-0.5-1.1,0.1-1.8,0.4-2.7c0.3-0.8,0.7-1.5,1-2.2c0-0.1,0-0.2,0-0.4
		c-0.1,0-0.1,0-0.2,0c0.6-1,1.1-1.9,1.7-3c-0.2,0.1-0.3,0.2-0.5,0.2c0.6-1,1.3-2,1.9-3.1c-0.2,0-0.3,0.1-0.5,0.1
		c0.5-0.5,0.8-0.9,1.3-1.5c-0.3,0.2-0.5,0.3-0.8,0.5c0.2-0.2,0.3-0.4,0.4-0.5c0.7-0.9,1.5-1.8,2-2.8c0.7-1.3,1.8-2.1,3-2.9
		c-0.4,0.6-0.8,1.1-1.2,1.8c0.4-0.2,0.7-0.3,1-0.4c-0.6,0.6-1.1,1.2-1.7,1.9h0.6c-0.6,0.8-0.8,1.3-0.6,1.4c-0.1,0.2-0.2,0.4-0.5,0.7
		c0.3-0.2,0.5-0.2,0.9-0.4c-0.4,0.5-0.7,0.9-1,1.3c1.1,0.4,1.9-0.4,2.8-0.9c0.8-0.5,1.5-0.7,2.5-0.6c-0.9,0.6-2.2,0.7-2.4,2.1
		c0.7-0.5,1.3-1.2,2.4-1.3c-0.8,0.6-1.5,1.1-2.2,1.6c0,0,0.1,0.1,0.1,0.1c0.5-0.2,0.9-0.5,1.4-0.8c0,0,0,0.1,0.1,0.1
		c-0.4,0.4-0.9,0.7-1.3,1.1c0,0,0.1,0.1,0.1,0.1c0.5-0.3,0.9-0.7,1.5-1.1c-0.4,0.9-1.3,1.3-1.3,2.2c0.1,0,0.1,0.1,0.2,0.1
		c0.3-0.2,0.6-0.4,0.9-0.6c0,0,0.1,0.1,0.1,0.1c-0.2,0.4-0.4,0.8-0.7,1.3c0.3,0,0.5-0.1,0.8-0.1c-0.4,0.3-0.7,0.6-1.1,0.9
		c0.4-0.1,0.6-0.1,1-0.2c-0.5,0.5-0.9,0.9-1.3,1.3l0.1,0.1c0.3-0.1,0.6-0.3,0.9-0.4c0.2,0.3,0.3,0.5,0.5,0.7
		c-0.4,0.6-0.8,1.1-1.2,1.7c0.1,0,0.2,0,0.3,0.1c-0.5,0.4-1,0.8-1.4,1.2l0,0.1c0.2-0.1,0.5-0.2,0.8-0.3c-0.9,0.8-1.6,1.4-2.4,2.1
		l0.1,0.2c0.3-0.1,0.6-0.3,0.9-0.4c-1.1,1.2-2.3,2.2-2.6,3.9c0.2-0.1,0.3-0.2,0.4-0.3c-0.5,0.8-0.9,1.5-1.3,2.3l0.2,0.1
		c0.2-0.3,0.5-0.6,0.7-0.9l0.1,0c0,0.1-0.1,0.3-0.1,0.4c-0.2,0.7-0.4,1.4-0.6,2c-0.1,0.4-0.3,0.8-0.6,1.1c-0.6,0.7-1.2,1.4-1.9,2.1
		c0.3-0.6,0.7-1.1,1-1.6c0,0-0.1-0.1-0.1-0.1c-0.5,0.6-1.1,1.3-1.6,1.9l-0.1,0c0.4-0.7,0.8-1.4,1.1-2.1l-0.1-0.1
		c-0.2,0.2-0.5,0.4-0.8,0.6c0.1-0.2,0.1-0.3,0.2-0.6c-0.5,0.6-0.9,1-1.4,1.4c0-0.9,0.8-1.4,1-2.2c-0.1,0-0.1,0-0.1,0
		c-0.6,0.5-1.3,1.1-1.9,1.6l-0.2-0.1l1.4-2.2c-0.9,0.1-1.2,1-2.1,1.2c0.2-0.4,0.4-0.7,0.5-0.9c0,0,0,0-0.1-0.1
		c-0.2,0.1-0.3,0.2-0.6,0.5c0.2-0.8,0.5-1.3,0.7-2c-0.6,0.7-1.1,1.4-1.7,2c-0.1,0-0.1-0.1-0.2-0.1c0.2-0.5,0.5-1.1,0.7-1.6
		c0.7-1.3,0.8-2.7,0.9-4C44.4,46.4,44.5,45.9,44.3,45.6z M59.7,54.9c0.2-0.1,0.3-0.2,0.5-0.3c0,0.3-0.1,0.5-0.1,0.9
		c0.3-0.1,0.6-0.2,1-0.4c-0.6,0.7-1.1,1.3-1.7,1.9c0-0.6-0.4-0.8-0.9-1c-0.3,0.2-0.6,0.5-1,0.8c0.1-0.3,0.1-0.4,0.2-0.6
		c-0.2,0.1-0.3,0.1-0.5,0.2c0.1-0.3,0.2-0.6,0.3-0.9c0,0-0.1,0-0.1-0.1L56.9,56c0,0-0.1-0.1-0.1-0.1c0.2-0.5,0.4-0.9,0.6-1.5
		c-0.5,0.4-1,0.8-1.4,1.2c0,0-0.1-0.1-0.1-0.1c0.3-0.5,0.6-0.9,0.9-1.4l-0.1-0.1c-0.2,0.2-0.5,0.3-0.8,0.5c0.1-0.2,0.1-0.4,0.2-0.6
		c-0.2,0-0.4,0.1-0.6,0.1c0.3-0.2,0.5-0.3,0.7-0.5c0,0,0-0.1,0-0.1c-0.7,0.1-1.4,0.2-2.1,0.4c0.2-0.2,0.5-0.5,0.7-0.8
		c0.2-0.3,0.3-0.6,0.4-0.9c0.7,0.2,1.4,0.6,2.2,0.7c0.7,0.1,1.4,0,2-0.3c1.7-0.9,3.3-1.5,5.2-1.7c0.6-0.1,0.7-0.3,0.3-0.8
		c-0.8-0.9-1.8-1.7-2.7-2.5c-0.3-0.3-0.7-0.5-1-0.8c-1.2-0.8-2.5-0.7-3.6,0.2c-0.4,0.4-0.8,0.7-1.1,1.2c-0.3,0.6-0.6,0.5-1,0.1
		c0.6-0.6,0.7-1.6,1.7-1.8c-0.1-0.1-0.1-0.2-0.2-0.3l0,0c0.4,0,0.9,0,1.3-0.1c0-0.6,0.3-0.7,1.3-0.4c0-0.1,0.1-0.2,0.1-0.4
		c0.9,0.4,1.8,0.7,2.6,1.1c0,0,0-0.1,0-0.1c0.5,0.3,0.9,0.7,1.5,1.1c0-0.1,0.1-0.2,0.2-0.3c0.5,0.3,0.4,1.1,1.1,1.1
		c0.1,0.3,0.2,0.8,0.4,1.3c0.2-0.4,0.3-0.6,0.5-1c-0.1,1.2-0.2,2.3-0.4,3.4c-0.1,0.6-0.4,0.8-1,0.9c-1.2,0.1-2.5,0.4-3.7,0.6
		c-0.4,0.1-0.7,0.2-1.1,0.2C59.7,54.1,59.7,54.5,59.7,54.9z M59.5,49L59.5,49c-0.4,0-0.7-0.1-1.1-0.2c-0.1,0-0.1-0.4-0.1-0.4
		c0.3-0.2,0.7-0.5,1-0.5c0.5-0.1,1.6,0.8,1.7,1.4c0.2,0.6-0.1,1.3-0.7,1.7c-1.1,0.8-2,0.8-2.8-0.1c-0.2-0.2-0.2-0.7-0.4-1.1
		c0.9,0,1,1.3,1.9,0.7c0.6-0.4,1.3-0.7,1.3-1.7C60.1,48.8,59.8,49,59.5,49z M58.6,52.4c-0.6,0-1.2,0-1.9,0c-0.1,0-0.3-0.2-0.3-0.3
		c-0.1-0.4-0.1-0.8-0.1-1.1C57.1,51.5,57.8,51.9,58.6,52.4z M61.3,51.1c0.2-0.7,0.5-1.2,0.7-1.9c0.5,0.4,1,0.8,1.5,1.2
		C62.7,50.7,62.1,50.9,61.3,51.1L61.3,51.1z M109.3,87.4c-0.1,0-0.2,0-0.3,0c0-1.3,0.1-2.6,0.1-4c0.1,0,0.2,0,0.2,0
		c0,0.1,0.1,0.2,0.1,0.3c0.1-0.1,0.1-0.1,0.1-0.2c0.1-1.6,0-3.1,0.2-4.6c0.2-1.3,0.5-2.6,1.6-3.7c0.5-0.5,0.5-1.3,0.9-1.9
		c0.7-0.9,1-1.7,1.2-2.7c0-0.1,0.3-0.2,0.5-0.3c0,0,0.1,0.1,0.2,0.1c0-0.4,0-0.8,0-1.2c0.1,0,0.1,0,0.2,0c0.1,0.6,0.3,1.2,0.2,1.7
		c-0.2,0.8-0.5,1.8-1.2,2.4c-1.1,0.9-1.1,2.2-1.9,3.2c-1.7,2.1-1.4,4.5-1.5,6.9c-0.2,2.9,0.6,5.6,2,8.4c-0.2-0.1-0.3-0.2-0.5-0.3
		c0,0.2,0,0.4,0.1,0.6l0,0c-1.6-2.2-1.3-4.6-2-6.8L109.3,87.4z M111.4,104.2c-0.1-0.2-0.3-0.3-0.4-0.5c-0.1-0.1-0.1-0.1-0.3-0.3
		c0.3,0.1,0.5,0.1,0.9,0.2c-0.7-0.6-1.3-1.1-1.9-1.7c0,0,0.1-0.1,0.1-0.1c0.4,0.2,0.9,0.4,1.3,0.5l0.2-0.2c-0.5-0.8-0.9-1.7-1.3-2.5
		h0.9c0.1-1.4,0.2-2.8,0.2-4.4c0.8,0.7,1.3,1.2,2,1.7c0.4,0.4,0.9,0.7,1.4,1c0.5,0.3,0.9,0.1,0.9-0.5c0-0.7,0.1-1.5-0.1-2.2
		c-0.5-1.7-1.1-3.3-1.7-5c-0.2-0.6-0.1-1.2,0.4-1.7c0.6-0.5,1.1-1,1.6-1.6c0.3-0.3,0.5-0.7,0.8-0.8c0.7-0.3,1-0.9,1.4-1.5
		c0.5-0.7,0.9-1.6,1.6-2.2c0.8-0.9,1-1.9,1-3c0,0,0-0.1,0-0.2c0.1,0.2,0.2,0.3,0.2,0.5c0,0,0.1,0,0.1,0c0-0.3-0.1-0.6-0.1-0.9
		c0.1,0.2,0.2,0.3,0.4,0.5v-2c0.2,0.4,0.3,0.6,0.4,0.9c0,0,0.1,0,0.1,0c0-0.2-0.1-0.5-0.1-0.8c0.2,0.2,0.3,0.4,0.4,0.5
		c0,0,0.1,0,0.1-0.1c-0.2-0.6-0.3-1.1-0.5-1.4c0.2-0.2,0.4-0.3,0.4-0.4c0-0.2-0.1-0.3-0.1-0.5c-0.4-1-0.9-2-1.3-3.2
		c0.7,0.2,1.3,0.4,2.1,0.6c-0.4-0.6-0.8-1-1.2-1.6c0.4,0,0.7,0.1,1.1,0.1c-0.7-0.6-1.3-1.2-2-1.8c0,0,0.1-0.1,0.1-0.1
		c0.4,0.2,0.7,0.4,1.1,0.6c0,0,0.1-0.1,0.1-0.1c-0.4-0.6-0.8-1.1-1.3-1.7c0.6,0,1.1,0,1.7,0.1c-0.7-0.9-1.3-1.7-1.9-2.5
		c0,0,0.1-0.1,0.1-0.1c0.3,0.3,0.6,0.6,0.9,0.8c0-0.1,0-0.1,0-0.2c0.9-0.1,1.7,0.3,2.6,0.4c0,0,0,0.1,0,0.1c0.1,0,0.2,0,0.3-0.1
		c0,0,0,0-0.1,0c0.1,0,0.1,0,0.2,0c0,0.4,0,0.8,0,1.2C124.3,81.9,119.4,94.4,111.4,104.2L111.4,104.2z"/>
	<path class="st0" d="M87.3,68.5c0.8,0.7,1.6,1.5,2.4,2.2c0,0,0.1-0.1,0.1-0.1l0,0c-0.1-0.1-0.2-0.3-0.4-0.6
		c0.3,0.2,0.5,0.3,0.6,0.4c0,0,0.1-0.1,0.1-0.1C89.2,69.7,88.3,69,87.3,68.5C87.3,68.4,87.3,68.5,87.3,68.5z"/>
	<path class="st0" d="M93,63.4c0.4,0.5,0.9,1.1,1.3,1.6c0.1-0.1,0.1-0.1,0.2-0.2c-0.4-0.5-0.9-1.1-1.3-1.6
		C93.1,63.3,93.1,63.4,93,63.4z"/>
	<path class="st0" d="M92.6,63.8c0.4,0.5,0.9,1,1.3,1.5c0.1,0,0.1-0.1,0.2-0.1c-0.4-0.5-0.9-1-1.3-1.6
		C92.7,63.8,92.7,63.8,92.6,63.8z"/>
	<path class="st0" d="M92.4,64.5L92.4,64.5c0.4,0.5,0.8,0.9,1.3,1.4c0,0,0.1-0.1,0.1-0.1c-0.4-0.5-0.8-1-1.2-1.4
		C92.6,64.4,92.5,64.5,92.4,64.5z"/>
	<path class="st0" d="M37.9,72.7c-0.1-0.5-0.3-0.9-0.5-1.4c0,0-0.1,0-0.1,0c0.2,0.8,0.3,1.6,0.5,2.3c0,0-0.1,0-0.1,0
		c-0.3-0.4-0.6-0.8-0.9-1.4c0,0.4,0,0.6,0,0.9c-0.2-0.4-0.4-0.7-0.5-1c0,0-0.1,0-0.1,0c0.2,0.8,0.3,1.6,0.5,2.5c0,0,0,0-0.1,0
		c-0.1-0.2-0.3-0.5-0.4-0.7c0,0,0,0-0.1,0.1c0,0.3,0,0.6,0.1,1c-0.3-0.4-0.5-0.6-0.8-0.9c0,0-0.1,0.1-0.1,0.1
		c0.2,0.8,0.4,1.5,0.7,2.4c-0.3-0.1-0.4-0.1-0.5-0.1c-0.2,0.5-0.3,1-0.5,1.6c-0.2-0.9-0.2-1.7-1-2.2c0,0.7,0.1,1.3,0.1,1.9
		c0,0-0.1,0-0.1,0c-0.2-0.7-0.4-1.4-0.6-2.1c0,0-0.1,0-0.1,0c0,0.2-0.1,0.4-0.1,0.7c-0.1-0.5-0.2-0.9-0.3-1.4
		c-0.3,0.9-0.5,1.7,0,2.5c0.2,0.4,0.4,0.8,0.4,1.3c0.5,2.4,0.1,4.8-1,7c-0.1,0.3-0.3,0.5-0.4,0.9c0.7-0.3,1.3-0.5,2-0.8
		c0,0.2,0,0.3-0.1,0.3c0.4-0.1,0.8,0,1-0.2c1.2-1.3,2.4-2.5,3.4-3.9c0.6-0.9,0.7-2.1,0.8-3.2c0.1-0.8,0.2-1.6,0.1-2.3
		C38.7,75.4,38.3,74,37.9,72.7z"/>
</g>
</svg>
