<?xml version="1.0" encoding="utf-8"?>
<!-- Generator: Adobe Illustrator 28.1.0, SVG Export Plug-In . SVG Version: 6.00 Build 0)  -->
<svg version="1.1" id="Layer_1" xmlns="http://www.w3.org/2000/svg" xmlns:xlink="http://www.w3.org/1999/xlink" x="0px" y="0px"
	 viewBox="0 0 523 66.8" style="enable-background:new 0 0 523 66.8;" xml:space="preserve">
<style type="text/css">
	.st0{fill:#550000;}
</style>
<g>
	<g>
		<path class="st0" d="M10.8,62.2C6.8,60.6,3.1,58.2,0,55l9.3-8.2c1.2,4.2,3.3,7.5,6.1,10c2.8,2.5,5.8,3.7,9.2,3.7
			c3.6,0,6.4-1,8.5-2.9s3-4.4,3-7.3c0-2.3-0.7-4.3-2-5.9c-1.3-1.6-3-2.9-4.9-3.9c-1.9-1-4.6-2.2-8.1-3.6c-4-1.6-7.2-3-9.7-4.3
			c-2.5-1.3-4.6-3.1-6.3-5.4c-1.7-2.3-2.5-5.2-2.5-8.6c0-3.2,0.8-6,2.5-8.4c1.7-2.5,4.1-4.4,7.2-5.8c3.2-1.4,6.9-2.1,11.2-2.1
			c4.9,0,9.3,0.9,13,2.7s6.6,4.1,8.6,6.8l-9.8,6.1c-1-3.5-2.6-6.2-5-8.3c-2.4-2.1-5-3.1-7.9-3.1c-3.2,0-5.7,0.8-7.6,2.4
			c-1.8,1.6-2.8,3.7-2.8,6.3c0,2.1,0.7,4,2,5.6c1.3,1.6,3,2.8,5,3.8c2,1,4.7,2.2,8.1,3.5c4.1,1.6,7.4,3.1,9.9,4.4
			c2.5,1.4,4.7,3.2,6.5,5.5c1.8,2.3,2.7,5.2,2.7,8.7c0,3.5-1,6.7-2.8,9.4c-1.9,2.7-4.5,4.8-7.9,6.3c-3.4,1.5-7.1,2.2-11.2,2.2
			C19.4,64.7,14.9,63.9,10.8,62.2L10.8,62.2z"/>
		<path class="st0" d="M76.5,39.3l-5.2,1.3c-2.9,0.7-5.2,1.6-6.9,2.5c-1.7,0.9-2.9,2.1-3.7,3.4c-0.8,1.3-1.2,2.9-1.2,4.8
			c0,2.1,0.6,3.9,1.8,5.3c1.2,1.4,2.8,2.1,4.9,2.1c2,0,3.9-0.6,5.6-1.8c1.7-1.2,3.1-2.9,4.2-5.2v3.1c-1.4,3.3-3.4,5.7-5.8,7.4
			c-2.4,1.6-5.3,2.5-8.6,2.5c-3.7,0-6.7-1.1-9-3.4c-2.3-2.3-3.5-5.2-3.5-8.7c0-2.9,0.8-5.2,2.4-7.2c1.6-1.9,3.7-3.5,6.5-4.7
			c2.7-1.2,6.3-2.3,10.7-3.4l1.6-0.4l6.2-1.3V39.3L76.5,39.3z M81.3,21.7c3,3.1,4.5,7.3,4.5,12.7v17.5c0,2.1,0.4,3.7,1.1,4.6
			c0.7,0.9,2.2,1.3,4.4,1.3h1v2.9l-14.3,4h-2.1V33.8c0-4-0.9-7.2-2.6-9.5c-1.7-2.3-4.1-3.5-7-3.5c-2.3,0-4.2,0.7-5.5,2.1
			c-1.4,1.4-2,3.2-2,5.3c0,1.5,0.4,3.1,1.3,4.9l-8.8,3.1c-1.1-2-1.6-3.8-1.6-5.6c0-2.5,0.8-4.8,2.5-6.9c1.7-2.1,3.9-3.7,6.8-5
			c2.9-1.2,6.1-1.9,9.6-1.9C74,17,78.3,18.6,81.3,21.7L81.3,21.7z"/>
		<path class="st0" d="M111.8,58.7c0.9,0.7,2.5,1.3,4.7,1.8v2.9h-22v-2.9c2.1-0.5,3.7-1.1,4.6-1.8c0.9-0.7,1.4-1.9,1.4-3.7V29
			c0-1.7-0.4-3-1.1-3.9c-0.7-0.9-2-1.4-3.8-1.6l-1.1-0.3v-2.6l13.7-3.7h2.1v38C110.4,56.8,110.9,58,111.8,58.7z M126.9,26.1
			c-1.3-1.6-3.2-2.4-5.8-2.4c-1.9,0-3.8,0.6-5.7,1.7c-1.9,1.1-3.8,3-5.8,5.6l-1.2-1.2c2.6-4.5,5.3-7.8,7.9-9.8c2.7-2,5.6-3,8.7-3
			c2.7,0,5.1,0.6,7.2,1.7c2,1.2,3.6,2.9,4.8,5.2c1.1,2.3,1.7,5,1.7,8.2v22.9c0,1.7,0.5,2.9,1.4,3.7c0.9,0.7,2.5,1.3,4.7,1.8v2.9
			h-21.5v-2.9c2-0.4,3.4-1,4.2-1.7c0.9-0.7,1.3-2,1.3-3.7V33C128.9,30,128.2,27.7,126.9,26.1L126.9,26.1z"/>
		<path class="st0" d="M204.6,7.2c3.7,2.4,5.6,6,5.6,10.9c0,2.6-0.6,4.8-1.9,6.7c-1.2,1.9-2.9,3.5-5,4.7c-2.1,1.2-4.4,1.9-6.9,2.2
			c5.7,0.6,10.1,2.3,13.1,4.8c3,2.5,4.5,6.1,4.5,10.6c0,3.2-0.9,6-2.6,8.5c-1.7,2.5-4.3,4.4-7.7,5.8c-3.4,1.4-7.5,2.1-12.3,2.1
			h-29.5v-2.9c3-0.3,5.1-0.9,6.4-1.9c1.3-1,2-2.5,2-4.6V13.3c0-2.4-0.6-4.1-1.9-5c-1.3-1-3.4-1.5-6.5-1.7V3.7h26.3
			C195.5,3.7,201,4.9,204.6,7.2L204.6,7.2z M180.9,7.5v23h6.1c4.1,0,7.1-1,9.1-3.1c2-2.1,3-5.2,3-9.3c0-3.1-1.1-5.6-3.3-7.6
			c-2.2-2-5.5-2.9-9.8-2.9L180.9,7.5L180.9,7.5z M180.9,34.4v20.4c0,1.2,0.3,2.1,0.8,2.9c0.5,0.7,1.3,1.2,2.4,1.5
			c1,0.3,2.5,0.4,4.4,0.4h2.1c4,0,7.1-1,9.2-3.2c2.1-2.1,3.1-5.2,3.1-9.4c0-3.7-1.2-6.7-3.6-9.1c-2.4-2.4-5.9-3.6-10.6-3.6H180.9z"
			/>
		<path class="st0" d="M249.6,19.9c2.7,1.9,4.7,4.5,6,7.9c1.3,3.3,2,7.1,2,11.3h-30.3c0.3,5.6,1.8,10,4.4,13.2
			c2.6,3.3,6.1,4.9,10.3,4.9c2.8,0,5.3-0.7,7.5-2.1c2.2-1.4,4.1-3.2,5.6-5.5l2.3,1c-1.2,4.1-3.6,7.5-6.9,10.2c-3.4,2.7-7.4,4-12.2,4
			c-4.2,0-7.9-1-11-3.1c-3.1-2.1-5.5-4.8-7.1-8.3s-2.4-7.2-2.4-11.2c0-5.1,0.9-9.6,2.8-13.3c1.8-3.7,4.4-6.7,7.7-8.7
			c3.3-2,7.1-3,11.5-3C243.7,17,247,18,249.6,19.9L249.6,19.9z M230.8,24.8c-1.8,2.5-2.9,5.9-3.3,10.3h20.1
			c-0.2-4.4-1.1-7.9-2.6-10.3c-1.5-2.5-3.7-3.7-6.7-3.7C235.1,21,232.6,22.3,230.8,24.8z"/>
		<path class="st0" d="M265,58.6c0.8-0.8,1.2-2.1,1.2-3.8V29c0-1.7-0.4-3-1.1-3.9c-0.7-0.9-2-1.4-3.8-1.6l-1.1-0.3v-2.6L274,17h2.1
			v37.8c0,1.8,0.6,3.1,1.7,3.8c1.2,0.8,3.3,1.4,6.6,1.9v2.9h-24.2v-2.9C262.6,60,264.2,59.4,265,58.6L265,58.6z M281.3,20.9
			c2.4-2.5,5.2-3.9,8.3-4.1c0.8-0.1,1.7,0,2.7,0c0.9,0.1,1.7,0.2,2.2,0.5l-1.3,10.6c-0.8-0.8-1.9-1.4-3.1-1.8
			c-1.2-0.4-2.5-0.6-3.6-0.5c-2.3,0.2-4.4,1-6.3,2.6c-1.9,1.6-3.3,3.7-4.2,6.4l-0.3-2.3C277,27.3,278.9,23.4,281.3,20.9L281.3,20.9z
			"/>
		<path class="st0" d="M312.9,58.7c0.9,0.7,2.5,1.3,4.7,1.8v2.9h-22v-2.9c2.1-0.5,3.7-1.1,4.6-1.8c0.9-0.7,1.4-1.9,1.4-3.7V29
			c0-1.7-0.4-3-1.1-3.9c-0.7-0.9-2-1.4-3.8-1.6l-1.1-0.3v-2.6l13.7-3.7h2.1v38C311.5,56.8,312,58,312.9,58.7z M328,26.1
			c-1.3-1.6-3.2-2.4-5.8-2.4c-1.9,0-3.8,0.6-5.7,1.7c-1.9,1.1-3.8,3-5.8,5.6l-1.2-1.2c2.6-4.5,5.3-7.8,7.9-9.8c2.7-2,5.6-3,8.7-3
			c2.7,0,5.1,0.6,7.2,1.7c2,1.2,3.6,2.9,4.8,5.2s1.7,5,1.7,8.2v22.9c0,1.7,0.5,2.9,1.4,3.7c0.9,0.7,2.5,1.3,4.7,1.8v2.9h-21.5v-2.9
			c2-0.4,3.4-1,4.2-1.7c0.9-0.7,1.3-2,1.3-3.7V33C330,30,329.3,27.7,328,26.1L328,26.1z"/>
		<path class="st0" d="M376.3,39.3l-5.2,1.3c-2.9,0.7-5.2,1.6-6.9,2.5c-1.7,0.9-2.9,2.1-3.7,3.4c-0.8,1.3-1.2,2.9-1.2,4.8
			c0,2.1,0.6,3.9,1.8,5.3c1.2,1.4,2.8,2.1,4.9,2.1c2,0,3.9-0.6,5.6-1.8c1.7-1.2,3.1-2.9,4.2-5.2v3.1c-1.4,3.3-3.4,5.7-5.8,7.4
			c-2.4,1.6-5.3,2.5-8.6,2.5c-3.7,0-6.7-1.1-9-3.4c-2.3-2.3-3.5-5.2-3.5-8.7c0-2.9,0.8-5.2,2.4-7.2s3.7-3.5,6.5-4.7
			c2.7-1.2,6.3-2.3,10.7-3.4l1.6-0.4l6.2-1.3V39.3L376.3,39.3z M381,21.7c3,3.1,4.5,7.3,4.5,12.7v17.5c0,2.1,0.4,3.7,1.1,4.6
			c0.7,0.9,2.2,1.3,4.4,1.3h1v2.9l-14.3,4h-2.1V33.8c0-4-0.9-7.2-2.6-9.5c-1.7-2.3-4.1-3.5-7-3.5c-2.3,0-4.2,0.7-5.5,2.1
			c-1.4,1.4-2,3.2-2,5.3c0,1.5,0.4,3.1,1.3,4.9l-8.8,3.1c-1.1-2-1.6-3.8-1.6-5.6c0-2.5,0.8-4.8,2.5-6.9c1.7-2.1,3.9-3.7,6.8-5
			c2.9-1.2,6.1-1.9,9.6-1.9C373.8,17,378.1,18.6,381,21.7L381,21.7z"/>
		<path class="st0" d="M399.1,58.6c0.8-0.8,1.2-2.1,1.2-3.8V29c0-1.7-0.4-3-1.1-3.9c-0.7-0.9-2-1.4-3.8-1.6l-1.1-0.3v-2.6L408,17
			h2.1v37.8c0,1.8,0.6,3.1,1.7,3.8c1.2,0.8,3.3,1.4,6.6,1.9v2.9h-24.2v-2.9C396.7,60,398.3,59.4,399.1,58.6L399.1,58.6z M415.4,20.9
			c2.4-2.5,5.2-3.9,8.3-4.1c0.8-0.1,1.7,0,2.7,0c0.9,0.1,1.7,0.2,2.2,0.5l-1.3,10.6c-0.8-0.8-1.9-1.4-3.1-1.8
			c-1.2-0.4-2.5-0.6-3.6-0.5c-2.3,0.2-4.4,1-6.3,2.6c-1.9,1.6-3.3,3.7-4.2,6.4l-0.3-2.3C411,27.3,413,23.4,415.4,20.9L415.4,20.9z"
			/>
		<path class="st0" d="M437.7,61.8c-2.9-1.9-5.1-4.6-6.6-7.9c-1.5-3.4-2.2-7.2-2.2-11.6c0-5.1,1-9.6,3-13.4c2-3.8,4.7-6.8,8.1-8.8
			c3.4-2.1,7.1-3.1,11.2-3.1c2,0,3.8,0.3,5.4,0.8c1.6,0.6,3,1.4,4.1,2.4v-8.3c0-1.7-0.4-3-1.1-3.9c-0.7-0.9-2-1.4-3.7-1.6l-1.2-0.2
			V3.7L468.5,0h2.1v52.2c0,2,0.3,3.5,1,4.3c0.7,0.8,1.8,1.2,3.5,1.2h1.8v2.9l-14.1,4h-2.1v-7.9c-1.5,2.5-3.4,4.4-5.6,5.8
			c-2.3,1.4-4.5,2.1-6.9,2.1C444.1,64.7,440.6,63.8,437.7,61.8L437.7,61.8z M440.6,49.2c1,2.9,2.4,5.3,4.2,6.9
			c1.8,1.7,4.1,2.5,6.7,2.5c1.9,0,3.7-0.4,5.3-1.3c1.6-0.9,2.9-2.1,3.9-3.7V34.2c-0.1-2.5-0.6-4.7-1.3-6.7c-0.8-2-1.9-3.5-3.4-4.6
			c-1.5-1.1-3.4-1.7-5.7-1.7c-2.1,0-4,0.7-5.7,2.2c-1.7,1.5-3,3.5-4,6.3c-1,2.7-1.5,5.9-1.5,9.4C439.2,42.9,439.7,46.3,440.6,49.2
			L440.6,49.2z"/>
		<path class="st0" d="M489.3,61.8c-3.3-2-5.8-4.7-7.5-8.2c-1.8-3.5-2.6-7.4-2.6-11.8c0-4.8,1-9,2.9-12.8c1.9-3.7,4.6-6.7,8-8.8
			c3.4-2.1,7.1-3.2,11.2-3.2c4.4,0,8.2,1,11.5,3c3.3,2,5.8,4.8,7.6,8.2S523,35.7,523,40c0,4.8-1,9.1-2.9,12.8
			c-2,3.7-4.6,6.6-8.1,8.7c-3.4,2.1-7.2,3.1-11.3,3.1C496.4,64.7,492.6,63.7,489.3,61.8z M507.8,58.5c1.6-1.4,2.8-3.4,3.7-6
			c0.8-2.6,1.3-5.5,1.3-8.9c0-3.6-0.5-7.2-1.5-10.6c-1-3.4-2.4-6.3-4.4-8.5c-1.9-2.2-4.3-3.3-7-3.3c-2.1,0-4,0.7-5.6,2.1
			c-1.6,1.4-2.8,3.4-3.7,6c-0.9,2.5-1.3,5.4-1.3,8.7c0,3.7,0.5,7.4,1.5,10.8c1,3.5,2.4,6.3,4.3,8.5c1.9,2.2,4.2,3.3,7,3.3
			C504.4,60.6,506.2,59.9,507.8,58.5L507.8,58.5z"/>
	</g>
</g>
</svg>
