<?xml version="1.0" encoding="utf-8"?>
<!-- Generator: Adobe Illustrator 28.1.0, SVG Export Plug-In . SVG Version: 6.00 Build 0)  -->
<svg version="1.1" id="Layer_1" xmlns="http://www.w3.org/2000/svg" xmlns:xlink="http://www.w3.org/1999/xlink" x="0px" y="0px"
	 viewBox="0 0 311 311" style="enable-background:new 0 0 311 311;" xml:space="preserve">
<style type="text/css">
	.st0{fill:#550000;}
</style>
<g>
	<path class="st0" d="M222,148.3c0-0.2,0.1-0.4,0-0.7C222,147.8,222,148.1,222,148.3z"/>
	<path class="st0" d="M65,164.7c0,0,0-0.1,0-0.1C65,164.6,65,164.7,65,164.7C65,164.7,65,164.7,65,164.7z"/>
	<path class="st0" d="M64.9,164.8C64.9,164.8,64.9,164.8,64.9,164.8C64.8,164.8,64.8,164.8,64.9,164.8z"/>
	<path class="st0" d="M174.3,158.5c0.1-0.1,0.1-0.2,0.2-0.3C174.5,158.3,174.4,158.4,174.3,158.5
		C174.3,158.5,174.3,158.5,174.3,158.5z"/>
	<path class="st0" d="M180.9,161.2c0,0.1-0.1,0.1-0.1,0.2c-0.5,1.5-1,3.1-1.6,4.6C179.9,164.4,180.5,162.8,180.9,161.2z"/>
	<path class="st0" d="M98.9,158.9c0.3-1,0.5-2,0.7-2.8c0,0,0,0-0.1-0.1c-0.3,0.8-0.6,1.7-0.8,2.5c0,0.1,0,0.2,0,0.4
		C98.8,158.9,98.9,158.9,98.9,158.9z"/>
	<path class="st0" d="M252.8,155.9c-0.1-53.2-43.3-96.4-96.4-96.4c-53.1,0-96.3,43.2-96.3,96.3c0,35.3,19,66.1,47.4,82.9v0.1
		c-0.1,0.3,0.3,0.7,0.6,1.3c0.2-0.4,0.4-0.6,0.5-0.7c0.1,0,0.1,0.1,0.2,0.1v0.4c0.1,0,0.2,0,0.2,0.1c0-0.1,0.1-0.2,0.1-0.3
		c14,7.9,30.2,12.5,47.4,12.5C209.6,252.2,252.8,209,252.8,155.9z M193,110.3c-0.6,0.5-1.3,1.1-1.9,1.7c0-2.5,1.9-3.4,3.4-4.6
		c0.1-0.1,0.5-0.1,0.7,0c0.4,0.2,0.8,0.6,1.2,0.9c-0.8,0.6-1.8,1.3-2.8,2.2c1.1-0.4,2.1-0.8,3.1-1.1c0,0.1,0,0.1,0,0.2
		c-1.3,1.3-2.7,2.7-4,4c-0.1,0-0.1-0.1-0.2-0.1c0.6-0.9,1.2-1.9,1.9-2.8c0-0.3,0-0.4-0.1-0.4c-0.8,0.7-1.7,1.4-2.5,2.1
		c0-0.1-0.1-0.1-0.1-0.1c0.5-0.7,1-1.3,1.4-1.9L193,110.3z M188.9,106.9c0.5-1.5,0.9-2.8,1.3-4.2c-0.6,0.7-1.1,1.3-1.7,1.9
		c-0.1,0-0.2-0.1-0.3-0.1c0.4-1.2,0.7-2.3,1.1-3.4c-0.3,0.3-0.7,0.8-1,1.2c-0.1-1.2,0.8-2.3,2-2.9c0.3,0.2,0.5,0.5,0.8,0.5
		c0.3,0.1,0.7,0,1.3,0c-0.6,0.7-1.1,1.3-1.6,1.8c0,0.1,0.1,0.1,0.1,0.2c0.6-0.3,1.1-0.5,1.5-0.7c-0.1,0.8-0.3,1.5-0.4,2.3
		c0.5-0.2,0.9-0.3,1.3-0.4c0.1,0.1,0.2,0.1,0.3,0.2c-1.2,1.7-2.4,3.5-3.6,5.3c-0.1,0-0.2-0.1-0.3-0.1c0.1-0.8,0.2-1.5,0.3-2.4
		C189.6,106.2,189.3,106.5,188.9,106.9z M185.8,102.5c0.2-1.4,1.5-3,3.2-3.8c0.4,0.7,0.4,0.8-2.2,3.5c0-0.4,0-0.6,0.1-1
		C186.5,101.7,186.1,102.1,185.8,102.5z M186.3,98.7c0.5-0.7,1.1-1.4,1.6-2c0.1,0.1,0.2,0.2,0.3,0.3c-1.2,1.4-2.4,2.9-3.6,4.3
		c0.2-1.8,1.2-3.1,2.5-4.2c-0.3,0.5-0.7,1-1.1,1.4C186.2,98.6,186.2,98.6,186.3,98.7z M194.7,105.1c-1.4,1.1-2.7,2.2-4,3.2
		C191.3,106.5,193.3,104.8,194.7,105.1z M197,110.7c-1,1.1-1.9,2.1-2.9,3.2c-0.1-0.1-0.2-0.2-0.3-0.3c1-1.1,1.9-2.2,2.8-3.2
		C196.8,110.5,196.9,110.6,197,110.7z M192.6,121h0.2c0,0.3,0.1,0.6,0.2,1.1c0.5-0.6,0.8-1.1,1.2-1.7c0.1,0,0.1,0.1,0.2,0.1
		c-0.4,0.9-0.8,1.8-1.2,2.7c0,0,0.1,0,0.1,0.1c1.8-2.3,3.7-4.6,5.7-7.1c-0.3,1.3-0.6,2.3-0.9,3.5c1.2-0.9,2.3-1.7,3.4-2.6
		c1-0.7,1.9-0.7,3.1,0.1c-0.6,0.7-1.2,1.4-1.8,2.1c0.7,0.2,1.5,0.1,2,0.5c1,0.8,1.8,1.9,2,3.4c-0.3-0.1-0.5-0.2-0.8-0.3
		c0.1,0.3,0.2,0.6,0.3,0.9c-0.1,0-0.3,0-0.3-0.1c-0.4-0.3-0.8-0.7-1.1-1.1c-2.3-2.7-6.7-2.3-8.4,0.3c-0.4,0.6-1,1-1.6,1.5
		c-1,0.8-1.1,1.7-0.2,2.4c1.4,1.2,3.1,2.3,4.8,3.1c1.8,0.9,2.8,1.3,4.5,1.6l1.9,0.3c1.8,0.2,2.4-0.1,3.6-0.2c0.8,0,1.2,0.3,1.1,1.1
		c-0.1,1.2-0.3,2.4-0.6,3.6c-0.1,0.3-0.7,0.6-1,0.6c-4.1-0.4-7.4-2.3-10.2-5.4c-1.6-1.7-3.4-3.2-5.2-4.7c-0.8-0.7-1.2-1.5-1.2-2.5
		L192.6,121z M206.9,115.3c0.1-0.1,0.1-0.1,0.2-0.2c0.7,0.6,1.3,1.2,1.9,1.8c-1.1,0.2-2-0.2-2.7-1.2c0.5,0.1,0.7,0.2,1.1,0.3
		C207.2,115.7,207,115.5,206.9,115.3z M213,131.4c-1.7-1.2-2.2-3-1.6-5.1c0.8,1.2,1.3,2.1,1.9,3.1c-0.1,0.1-0.2,0.2-0.3,0.2
		c-0.2-0.3-0.4-0.6-0.7-0.9c-0.1,0-0.1,0.1-0.1,0.1C212.5,129.6,212.7,130.4,213,131.4z M209.8,121.5c0.8,0.4,1.4,0.6,1.7,1.1
		c0.7,1,1.1,2.2,1.7,3.6C211.9,125.5,211.1,124.3,209.8,121.5z M207.6,117.5c1.7,0.7,2.4,1.9,2.7,3.6
		C209.4,119.9,208.5,118.8,207.6,117.5z M199.5,124.5c-0.2-0.1-0.5-0.4-0.5-0.5c0.1-0.3,0.4-0.6,0.6-0.7c1.9-0.4,3.1,0.8,2.6,2.7
		c-0.1,0.4-0.3,0.9-0.4,1.3c-0.6,1.3-1.7,1.6-2.9,1c-0.8-0.5-1.7-0.8-2.5-1.3c-0.9-0.6-0.8-0.9,0.3-1.5c0.2,1.2,0.9,1.7,1.9,1.8
		c1.5,0.2,1.7,0,2.4-1.8C200.6,125.2,200,124.9,199.5,124.5z M202.1,128.7c0.3-0.6,0.7-1.4,1.1-1.4c0.8,0.1,1.7,0.4,2.5,0.9
		c0.3,0.2,0.7,1,0.5,1.3c-0.2,0.4-0.8,0.6-1.3,0.8c-0.9-0.3-1.6-0.5-2.3-0.8C202.3,129.4,202,128.8,202.1,128.7z M212.8,144.6
		c-1-0.2-1.8-0.4-3-0.7C211.1,143.1,212,143.4,212.8,144.6z M211.3,153.6c0.3,0.1,0.6,0.1,1,0.2c-0.2-0.3-0.3-0.7-0.4-1
		c0.9,0.3,1.4,1,1,1.6c-0.3,0.5-0.2,0.7,0,1c0.2,0.4,0.3,0.9,0.5,1.5c-0.3,0-0.5,0.1-0.8,0.2c0.3,0.5,0.6,1,0.9,1.5
		c-1.2-0.4-1.5-0.8-1.6-2.2c0-0.4-0.5-0.8-0.8-1.4c0.3,0.1,0.5,0.1,0.8,0.2C211.8,154.6,211.6,154.1,211.3,153.6z M212.2,159.7
		c0.7,0.8,1.3,1.6,2,2.4c-0.1,0.1-0.2,0.2-0.3,0.3c-0.7-0.8-1.3-1.6-2-2.4C212,159.9,212.1,159.8,212.2,159.7z M215,168.2
		c-0.1,0.3-0.5,0.4-0.7,0.6c-0.1-0.1-0.2-0.1-0.3-0.2v-2c0.2,0,0.4,0.1,0.8,0.2c-0.5-0.7-0.8-1.2-1.2-1.8c-0.4-0.6-0.8-1.1-1.2-1.7
		C214.2,164.4,215.4,166.7,215,168.2z M213.5,229.5c0-0.1,0-0.3,0.2-0.5c1.4-2.1,3-4.1,3-7c0.7,1.1,1.2,2.4,1.4,3.7
		C216.6,227,215.1,228.3,213.5,229.5z M223.4,147.6c-0.2,0.3-0.3,0.7-0.6,1.2c0-0.3,0-0.4,0-0.6c0,0,0-0.1,0-0.1
		c-0.2,6.5-0.3,12.9-0.3,19.3c0,2.7-0.8,5.3-1.3,7.9c-1.7,7.7-3.4,15.3-5.2,23c-0.3-1.5-0.4-3.1-0.8-4.6c-0.8-2.9,0.1-5.7,0.5-8.5
		c0.7-4.5,1.7-9,2.2-13.5c0.5-4.7,0.8-9.4,0.9-14.2c-0.2-4-1-8.1-1.9-12.2c-0.4-2.1-0.1-4.1,0.8-6.1c0.5-1.1,1.1-2.3,1.7-3.5
		c0.2-0.3,0.2-0.8,0.3-1.4c0.3,0.3,0.7,0.6,0.9,1c2.1,3.7,2.8,7.8,2.8,11.9C223.4,147.4,223.5,147.5,223.4,147.6z M221.5,118.2
		c-1.8-1.4-3.7-2.8-5.7-4.5C218.5,114.5,219.9,116.4,221.5,118.2z M216.3,111.1c0-0.1,0-0.2,0-0.3c1.2,0.2,2.4,0.3,3.6,0.4v0.3
		C218.7,111.4,217.5,111.2,216.3,111.1z M222.5,133.1c0,0-0.1,0-0.1,0.1c-1-1.8-1.9-3.6-2.9-5.4c0-0.1-0.1-0.1-0.1-0.2
		c0.1-0.4,0.3-0.8,0.2-1.2c0-0.4-0.3-0.8-0.6-1.2c0.1-0.1,0.2-0.1,0.3-0.2c1.1,1.9,2.1,3.8,3.2,5.7c-0.1,0.1-0.2,0.1-0.3,0.2
		c-0.5-0.8-1-1.5-1.5-2.2c-0.1,0-0.1,0.1-0.2,0.1C221.2,130.2,221.8,131.6,222.5,133.1z M218.9,123.2c0.1-0.1,0.2-0.1,0.3-0.2
		c0.8,1,1.7,2,2.6,3c-0.1,0.1-0.2,0.1-0.2,0.2C220.6,125.3,219.7,124.2,218.9,123.2z M222.2,125.1c-1.5-1-2-2.7-3.2-3.8
		c-0.5-0.5-0.8-1.1-1.1-1.7c3.1,2.1,5.6,4.5,5.6,8.5C223.1,127.1,223,125.7,222.2,125.1z M223.2,136.5l-2.8-5.7
		c0.1-0.1,0.2-0.2,0.3-0.2c1,1.9,2,3.7,3,5.6C223.5,136.3,223.4,136.4,223.2,136.5z M224.4,185c1,3.2,2,6.5,3,9.7
		C225.6,191.8,224.8,188.5,224.4,185z M225.8,181.3c-0.2-2.6-0.5-5.1-0.4-7.6c0.1-2.2,0.2-4.4,1.3-6.4c0.5-0.9,0.4-2.2,0.8-3.2
		c0.7-1.5,1-3.1,1.1-4.7c0-0.2,0.3-0.4,0.5-0.6c0.1,0,0.2,0.1,0.3,0.1c-0.1-0.7-0.1-1.3-0.2-1.9c0.1,0,0.2,0,0.2-0.1
		c0.2,0.9,0.6,1.9,0.5,2.8c-0.2,1.4-0.3,3-1.1,4.1c-1.2,1.7-1,3.8-1.9,5.5c-1.8,3.8-1,7.7-0.8,11.6c0.3,4.7,1.6,9,3.7,13.3
		c-0.3-0.2-0.4-0.2-0.6-0.4c0.4,0.5,0.5,0.8,0.5,1.2c-2.4-3.3-2.4-7.1-3.6-10.7v3.4c-0.1,0-0.3,0-0.4,0c-0.2-2.2-0.3-4.3-0.5-6.5
		c0.1,0,0.2,0,0.3,0c0.1,0.1,0.1,0.3,0.2,0.4C225.8,181.5,225.9,181.4,225.8,181.3z M229.3,152.8c1.2,1.7,1.6,3.5,1.2,5.6
		c-0.6-1.6-1.2-3.1-1.8-5c0.4,0.2,0.5,0.3,0.7,0.3C229.4,153.4,229.4,153.1,229.3,152.8z M234,172.4c-0.2-0.4-0.3-0.5-0.3-0.7
		c-0.3,0.6-0.5,1.2-0.9,1.7c-0.3,0.5-0.8,0.9-1.2,1.4c-0.1-0.1-0.2-0.3-0.3-0.5c-0.2,0.2-0.4,0.4-0.6,0.6c-0.8-0.9,0-1.4,0.6-2
		c-0.1,0.3-0.1,0.5-0.1,0.7c0.1,0,0.2,0.1,0.3,0.1c0.6-2,1.2-4,1.9-6.1C234.2,169,233.9,170.6,234,172.4z M233.3,198.8
		c-0.1,0-0.2,0.1-0.3,0.1c-1.9-4.7-3.8-9.5-5.8-14.2c0.1,0,0.2-0.1,0.3-0.1C229.4,189.3,231.4,194.1,233.3,198.8z M229.6,142.5
		c1.4,1,2.8,3.2,3.2,5.2C231.8,147.1,230.9,145.6,229.6,142.5z M231.4,148.1c-0.1,0-0.2,0.1-0.3,0.1c-0.4-0.9-0.8-1.7-1.2-2.6
		c0.1-0.1,0.3-0.1,0.4-0.2C230.7,146.3,231,147.2,231.4,148.1z M229.8,150c0.6,0.5,1.1,1.2,1.8,1.9c-0.7-1.6-1.2-3.1-1.8-4.5
		c0.1,0,0.2-0.1,0.3-0.1c1.2,1.5,1.7,3.3,1.8,5.4c-0.3-0.2-0.5-0.4-0.9-0.7v2.7c-0.1,0-0.2,0-0.3,0c-0.4-1.3-0.9-2.7-1.4-4.2
		c0.3,0.3,0.5,0.4,0.9,0.8C230.1,150.7,229.9,150.4,229.8,150z M228.5,214.9c-0.2-0.3-0.4-0.5-0.7-0.8c-0.1-0.1-0.2-0.2-0.4-0.4
		c0.5,0.1,0.9,0.2,1.4,0.3c-1.1-1-2.1-1.8-3.1-2.7c0.1-0.1,0.1-0.1,0.2-0.2c0.7,0.3,1.4,0.6,2.2,0.9l0.3-0.3
		c-0.8-1.4-1.5-2.7-2.2-4.1h1.4c0.1-2.3,0.3-4.6,0.4-7.2c1.2,1.1,2.2,2,3.2,2.8c0.7,0.6,1.5,1.2,2.3,1.6s1.5,0.2,1.5-0.8
		c0.1-1.2,0.1-2.5-0.2-3.6c-0.8-2.8-1.8-5.5-2.8-8.2c-0.4-1.1-0.2-2,0.6-2.7c0.9-0.8,1.8-1.7,2.7-2.6c0.4-0.4,0.8-1.1,1.2-1.3
		c1.2-0.5,1.6-1.6,2.3-2.5c0.9-1.2,1.6-2.6,2.6-3.7c1.3-1.4,1.7-3.1,1.6-4.9c0-0.1,0-0.1,0.1-0.3c0.2,0.3,0.3,0.6,0.4,0.8
		c0.1,0,0.1,0,0.2,0c-0.1-0.5-0.1-0.9-0.2-1.5c0.2,0.3,0.3,0.4,0.6,0.8V171c0.3,0.7,0.5,1,0.7,1.4c0,0,0.1,0,0.2,0
		c-0.1-0.4-0.1-0.8-0.2-1.3c0.3,0.3,0.5,0.6,0.7,0.9l0.1-0.1c-0.3-0.9-0.6-1.8-0.8-2.3c0.3-0.4,0.6-0.5,0.6-0.7
		c0-0.3-0.1-0.6-0.2-0.8c-0.7-1.7-1.4-3.4-2.2-5.2c1.1,0.3,2.2,0.7,3.4,1.1c-0.7-1-1.3-1.7-2-2.7c0.7,0.1,1.2,0.1,1.8,0.2
		c-1.2-1.1-2.2-2-3.3-2.9c0.1-0.1,0.1-0.1,0.2-0.2c0.6,0.3,1.2,0.6,1.8,1c0-0.1,0.1-0.1,0.1-0.2c-0.7-0.9-1.3-1.8-2.1-2.8
		c1,0,1.8,0.1,2.8,0.1c-1.2-1.5-2.2-2.8-3.1-4.1c0.1,0,0.1-0.1,0.2-0.2c0.5,0.5,1,0.9,1.6,1.3c0-0.1,0-0.2,0-0.3
		c1.4-0.2,2.8,0.6,4.4,0.6c0,0.1,0,0.1,0,0.2c0.2,0,0.3-0.1,0.5-0.1c-0.1,0-0.1-0.1-0.1-0.1c0.1,0,0.2,0,0.3,0c0,0.7,0.1,1.3,0.1,2
		C249.6,178.3,241.7,198.8,228.5,214.9z M67.4,143.5c-1.1,1.5-2.2,3-3.4,4.5c0.2-2.2,0.4-4.3,0.7-6.4c0,0,0,0,0,0.1
		c1.1-0.6,2.1-1.1,3.3-1.7c-1,1.1-1.9,2.1-3,3.3C66,143.4,66.7,143.4,67.4,143.5z M63.7,155.7c0-2.5,0.1-5,0.3-7.4
		c0.1,0.1,0.1,0.1,0.2,0.2c1.1-0.7,1.3-2.4,2.9-2.4c-0.5,0.7-0.9,1.4-1.4,2.2c1.5-0.8,3-1.6,4.4-2.4l0.2,0.2
		c-0.1,0.1-0.2,0.3-0.2,0.4c0.1,0,0.1,0.1,0.2,0.1c0.7-0.3,1.3-0.6,1.9-0.8c0.9-0.3,1.7-1.1,2.8-0.5c0.1,0.1,0.5-0.1,0.7-0.3
		c0.7-0.3,1.4-0.7,2.1-1c0.6-0.3,1.1-0.4,1.1,0.6c0.5-0.3,1-0.5,1.7-0.8c-0.6,0.9-1,1.5-1.4,2.2l0.1,0.1c0.5-0.4,1.1-0.8,1.6-1.2
		l0.2,0.1c-0.2,0.5-0.4,1-0.7,1.4c-0.8,1.1-1.7,2.1-3.2,2.3c-0.7,0.1-1.3,0.2-2.2,0.3c0.3-0.5,0.6-0.9,1-1.4
		c-1.5,0.6-3.1,0.3-4.4,1.3c-0.1,0.1-0.3,0.2-0.4,0.2c-0.1-0.1-0.2-0.1-0.2-0.2c0.6-0.7,1.2-1.3,1.8-2l-0.2-0.3
		c-1.7,0.8-3.4,1.5-5.3,2.4c0.2-0.5,0.3-0.8,0.5-1.1c-2.2,0.8-4.3,5-3.4,6.8c0.5-0.2,0.9-0.4,1.4-0.6c-0.5,1-1.4,1.7-2.1,2.6
		C63.7,156.4,63.7,156,63.7,155.7z M89.6,114.4c-0.1-0.1-0.1-0.3-0.2-0.3c3.4-1.7,6.9-3.3,10.4-5l0.2,0.4
		C96.5,111.1,93.1,112.8,89.6,114.4z M97.1,147.4c0.2,1.3,0.4,2.7,0.6,4c-0.2,0.1-0.3,0.1-0.4,0.1c-0.2-1.3-0.4-2.7-0.6-4
		C96.9,147.5,97,147.4,97.1,147.4z M94,143.6c-0.5,2.5-1.1,4.9-1.7,7.3C92.1,148.3,92.6,145.9,94,143.6z M91.1,152.1
		c-0.7-2.5,0.1-4.5,1.2-6.7C91.9,147.7,91.5,149.8,91.1,152.1z M92.5,157.2c0.1,0,0.2,0,0.3-0.1c0.1,0.1,0.2,0.2,0.2,0.3
		c0.5-0.3,1.1-0.7,1.9-1.3c-0.3,1.3-0.6,2.3-0.9,3.4c-0.1,0-0.2,0-0.2,0c-0.1-0.2-0.1-0.3-0.3-0.8c-0.4,1-0.7,1.7-1,2.6V157.2z
		 M94,153.5c-1.5-3.1-0.2-5.7,1.3-8.3C94.4,147.9,93.8,150.6,94,153.5z M95.5,147.6c0.2,1.5,0.3,3.1,0.5,4.6c-0.1,0-0.3,0-0.3,0
		c-0.2-1.6-0.3-3.1-0.4-4.7L95.5,147.6z M92.5,138.8c-0.7,1-0.3,2.3-1.3,3.1c-1,0.8-1.9,1.6-3.1,2.6c0.7-0.2,1.1-0.3,1.5-0.4
		c-0.3,1.1-0.5,2.2-0.8,3.2l0.2,0.1c0.5-0.5,0.9-1,1.5-1.7c-0.1,0.9-0.7,1.6-0.7,2.4c0.2,0.1,0.3,0.2,0.5,0.2
		c-1.6,1.6-3.1,3.2-4.7,4.8c-0.1-0.1-0.2-0.2-0.3-0.2c0.3-0.8,0.5-1.7,0.8-2.7c-0.6,0.3-1,0.5-1.5,0.8c0-0.5,0.1-0.8,0.2-1.2
		c-0.1,0-0.1-0.1-0.2-0.1c-1,1.2-2.1,2.4-3,3.6c-0.5,0.6-0.1,1.5,0.7,1.7c0.2,0,0.4,0.3,0.7,0.5c0.1-0.1,0.3-0.2,0.9-0.5
		c-0.2,0.9-0.2,1.7-0.4,2.4c-0.1,0.2-0.7,0.3-1.1,0.4c0-0.3,0.1-0.7,0.2-1.2c-0.4,0.5-0.7,0.8-1.1,1.3c-0.3-0.9-0.4-1.6-0.6-2.3
		c-0.5,0.6-1.1,1.3-1.7,2c-0.5-1.6-0.5-3-0.2-4.2c-0.6,0.8-1.1,1.4-1.5,2l-0.2-0.1l1.3-3c-0.1,0-0.1-0.1-0.2-0.1l-1.5,2.2l-0.3-0.1
		c0.2-0.8,0.5-1.5,0.7-2.3c0.5-2.4,2.5-3.2,4.3-4.3c0,0.3-0.6,1.2-1.9,2.6c0.6,0.2,1.4-1,1.8,0.7c1.1-1.5,2-2.8,3-4.2
		c0,0.5,0.1,0.9,0.1,1.2l0.2,0.1c1.6-2.6,3.2-5.2,4.9-7.8h0.1c-0.1,0.4-0.3,0.7-0.5,1.2C90.9,141.1,91.5,139.8,92.5,138.8z
		 M81.3,161.2l0.4,0.1l-1.3,3.7c-0.1,0-0.2-0.1-0.3-0.1L81.3,161.2z M78.8,163.6c-0.3-1.4,0-2,1.3-2.5
		C79.6,162.1,79.2,162.8,78.8,163.6z M88.5,120c-0.7,0.8-1.6,1.2-1.9,2.4c-0.3,1.3-1.7,2.1-2.7,3.3c0.6-3.6,3.5-5.6,6.1-6.8
		C89.5,119.3,89,119.6,88.5,120z M85.1,129.3c-0.8,1.6-4.6,4.2-6.6,4.4C80.7,132.3,83,130.7,85.1,129.3z M78.9,134.6v0.2l-5.4,1.5
		c0-0.1-0.1-0.2-0.1-0.3C75.2,135.5,77,135,78.9,134.6z M63.2,158.5c0.1-0.1,0.3-0.1,0.4-0.1c0.1,0.2,0.2,0.3,0.1,0.4
		c-0.1,0.4-0.3,0.8-0.3,1.4c0.5-0.5,0.8-1,1.4-1.6c-0.5,1.5-0.9,2.9-1.4,4.3C63.3,161.4,63.2,160,63.2,158.5z M63.5,163.8
		c0.2-0.4,0.4-0.7,0.6-1.2c-0.1,0.8-0.3,1.4-0.5,2.1C63.5,164.4,63.5,164.1,63.5,163.8z M74.3,199.8c0.7-2.4,1.6-4.7,3.3-6.7
		c-0.1,0-0.1-0.1-0.2-0.2c-0.2,0.1-0.4,0.2-0.6,0.3c-1.6,1.2-2.8,2.7-3.6,4.4c-4.9-9.7-8.1-20.3-9.3-31.5c0.7-1.9,1.3-3.7,1.9-5.6
		c0.1,0,0.3,0.1,0.4,0.1c-0.4,1.3-0.8,2.6-1.2,4c0.5-0.7,0.9-1.5,1.4-2.3c0.1,0,0.2,0.1,0.2,0.1c-0.1,0.8-0.2,1.7-0.3,2.5
		c0.1,0,0.1,0.1,0.2,0.1c0.2-0.3,0.4-0.7,0.8-1.2c-0.1,1.3-0.2,2.5-0.3,3.6c0.1,0,0.2,0,0.3,0c0.1-0.4,0.3-0.8,0.4-1.2
		c0.1,0,0.1,0,0.2,0c0.1,1.1,0.3,2.2,0.4,3.2h0.2c0.1-0.6,0.1-1.2,0.2-2c0.3,0.4,0.3,0.6,0.5,0.8c1,1.5,2,3,3,4.5
		c0.1-0.2,0.2-0.3,0.3-0.6c0.4,0.9,0.8,1.7,1.2,2.5l0.2-0.1l-0.2-0.9c0.7,0.8,1.1,1.8,1.6,2.7c0.2-0.1,0.3-0.2,0.4-0.3
		c0.3,0.6,0.4,1.4,0.9,1.8c1.1,1,0.9,2.3,1.3,3.4c0.5-0.4,1-0.9,1.6-1.3l0.2,0.2c0,0.2-0.1,0.4-0.2,0.8c0.5-0.8,0.9-1.2,1.4-1.9
		c0.5,0.8,1,1.4,1.5,2.1c0.4,0.6,0,0.8-0.5,1c-2,1.3-3.6,2.9-4.8,5c2-1.1,3.5-2.9,6.1-3.2c-0.9,0.5-1.7,1-2.5,1.4
		c-1.5,0.8-2.4,2.1-3.3,3.4c-0.7,1.1-1.4,2.4-2.2,3.5c-0.8,1.1-1.7,2.1-2.8,3c0.7-0.3,1.4-0.6,2-0.9c2-1.3,3.2-3.3,4.7-5
		c1-1.2,2.2-2.2,3.3-3.2c0.4-0.3,0.9-0.4,1.5-0.6c-2.5,1.8-4.4,4.1-5.9,7.1c0.5-0.3,0.8-0.5,1-0.7c-2.1,2.7-3,5.8-4.1,8.9
		C74.7,200.5,74.5,200.1,74.3,199.8z M77.5,205.6c-0.3-0.4-0.6-0.9-0.9-1.3c0.1-0.2,0.2-0.3,0.3-0.5c1.4-2.1,3.4-3.7,3.7-6.4
		c0.9,2.3,1.9,4.5,4.3,5.9c-0.6-0.1-0.8-0.2-1-0.2c0,0.1-0.1,0.1-0.1,0.2c0.6,0.4,1.2,0.8,2,1.3c-0.7-0.2-1.1-0.3-1.7-0.5
		c0.6,0.5,0.9,0.9,1.2,1.2c0,0.1-0.1,0.1-0.1,0.2c-0.6-0.4-1.3-0.8-1.9-1.2c-1.9-1.2-4-1-5.5,0.4c-0.1,0.1-0.2,0.2-0.3,0.3
		c0.7-0.1,1.4-0.2,2.2-0.3c-0.4,0.6-0.3,0.8-0.1,0.9c-0.4,0-0.7,0-1.1,0C78.1,205.5,77.8,205.5,77.5,205.6z M96.8,227.2
		c0,0.2-0.1,0.3-0.2,0.5c-6.8-6-12.8-12.7-17.8-20.2c0.2,0,0.4-0.1,0.6-0.1c0.2,0,0.4-0.1,0.6-0.2c0.1-0.5,0.1-0.9,0.2-1.2
		c0.5,0.4,0.7,0,0.7-0.9c1.5,1.6,2.9,3,4.2,4.4c-0.1,0.1-0.1,0.2-0.1,0.3c-1.4-0.3-2.8-0.5-4.4-0.7c2.1,2.5,4.9,3.2,7.8,4
		c-1.7-0.4-3.5-0.8-5.3-1.2l-0.1,0.3c1.5,0.6,2.9,1.2,4.5,1.8c-0.1,0.1-0.3,0.2-0.5,0.4c1.4,0.6,2.7,1.2,4.1,1.6
		c1.4,0.4,2.8,0.7,4.4,1c-2.8,1.3-5.6,0.4-8.5,0c0.9,1,1.9,1.5,3.1,1.7c1.3,0.3,2.7,0.4,4.1,0.6c0.8,0.1,1.2,0.4,1.3,1.2
		c0.6,2,0.8,4,0.3,6.1c0.4-0.8,0.8-1.6,1.2-2.4c0.1,0,0.2,0,0.3,0.1C97.1,225.3,97,226.3,96.8,227.2z M98.8,229.1
		c0.2-0.4,0.4-0.7,0.6-1.1l0.3,0.1c-0.2,0.4-0.3,0.9-0.5,1.3C99,229.3,98.9,229.2,98.8,229.1z M102.1,231.6
		c-0.9-0.6-1.8-1.3-2.6-1.9c0.5-1.4,1-2.7,1.6-4.1c0.1,1.1,0.2,2.2,0.3,3.2c0.1,0,0.2,0.1,0.2,0.1c0.4-0.7,0.8-1.4,1.3-2.3
		C103.2,228.6,102.9,230.2,102.1,231.6z M103.4,232.6c1.2-0.8,2.2-1.7,3.1-2.9c0.9,2.7,1.2,4,1.2,5.7
		C106.2,234.5,104.8,233.5,103.4,232.6z M108.2,181.8c-1.1,1.4-2.5,2.7-3.8,3.8c-1.4,1.2-2.9,2.4-4.6,3.4s-3.7,1.2-5.6,1.2
		c-1.4,0-2.7-0.6-3.7-1.6c-2.7-2.6-5.3-5.3-7.9-7.9c-0.2-0.2-0.2-0.5-0.3-0.8c0.1-0.1,0.3-0.2,0.4-0.3c0.2,0.3,0.3,0.6,0.5,0.9
		c0.1-0.1,0.2-0.1,0.2-0.2c-0.1-0.3-0.1-0.7-0.2-1c0,0,0.1-0.1,0.2-0.1c0.5,0.8,1.1,1.7,1.7,2.6v-1.4c0.5,0.8,0.8,1.4,1.2,2.2v-1.4
		c0.1,0,0.1,0,0.2-0.1c0.3,0.9,0.7,1.8,1.1,2.9c0.1-0.5,0.1-0.8,0.2-1.1h0.1c0.2,0.5,0.3,1.3,0.6,1.4c1,0.4,0.8,1.4,1.2,2
		c1.1-1.1,1.4,0.1,2,0.8c0.3-1.5,0.5-2.9,0.8-4.3h0.3c0.1,0.3,0.1,0.6,0.2,1.2c0.8-1.7,1.5-3.2,2.2-4.7h0.1
		c-0.1,0.8-0.3,1.6-0.4,2.4c1.5-3.3,2.6-6.7,0.2-10c-0.4,0.5-0.8,1-1.4,1.7c-0.3-1.1-0.5-1.9-0.7-3c-0.3,0.6-0.6,1.1-0.9,1.8
		c-0.1-0.6-0.2-1-0.3-1.7c-0.6,0.9-1,1.5-1.4,2.2l-0.2-0.1v-1.3c-0.3,0.1-0.4,0.2-0.5,0.3c-0.3-0.7-0.7-1.3-0.9-1.9
		c-0.2-0.6-0.4-1.1-0.6-1.7c-0.2,0.2-0.3,0.3-0.5,0.4c-0.2-0.4-0.4-0.8-0.6-1.2c-0.3,0.2-0.5,0.3-0.8,0.5c-0.1-0.3-0.2-0.6-0.3-1
		c-0.4,0.4-0.7,0.8-1,1.1l-0.1-0.1c0.3-0.8,0.5-1.5,0.7-2.2l-0.2-0.1c-0.5,1-1,1.9-1.5,2.8c0,0-0.1,0-0.2-0.1c0-0.3,0.1-0.5,0.1-0.9
		c-0.3,0.2-0.4,0.3-0.8,0.5c0.4-1.5,0.7-2.7,1-4c-0.1,0-0.1,0-0.2-0.1l-0.5,1.2h-0.1l0.2-2.4c-0.1,0-0.2,0-0.3-0.1
		c-0.3,1.1-0.6,2.2-0.9,3.3H82v-2.2c-0.1-0.1-0.2-0.1-0.3-0.2c-0.2,0.2-0.3,0.5-0.6,0.9c0.3-1.1,0.6-2,0.8-3
		c0.2,0.2,0.3,0.3,0.5,0.4c0.7-2.1,1.4-4.2,2.1-6.3l0.3,0.1c0,0.3,0.1,0.5,0.1,0.9c0.3-0.2,0.5-0.3,0.7-0.5c1.3,0.8-0.1,1.7,0.2,2.6
		c0.1-0.1,0.3-0.2,0.4-0.3c-0.1,0.6-0.2,1.2-0.3,1.8c0.5-0.8,0.8-1.6,1-2.4c0,0-0.2-0.2-0.3-0.2l0.5-1.1l0.3,0.1
		c-0.3,1.7-0.6,3.4-0.9,5c1.1-1.5,0.7-3.6,2.1-4.9c-0.3,1.3-0.7,2.7-1,4l0.2,0.1l1.7-4.3l0.2,0.2c-0.1,0.5-0.1,0.9-0.2,1.4l1.1-0.8
		c-0.4,0.6-0.8,1.3-1.3,1.7c-0.8,0.6-0.8,1.1-0.2,1.8c0.5,0.7,0.8,1.5,1.3,2.2c0.3,0.3,0.8,0.4,1.2,0.7c0.7,0.6,1.3,1.3,1.9,1.9
		c0.2,0.2,0.3,0.4,0.6,0.7c0.1-0.3,0.1-0.3,0.1-0.4c-0.8-1.7-0.1-3.4,0-5c0.1-1.7,0.8-3.4,1.2-5c0.2-0.5,0.5-0.9,0.9-1.3
		c0.6,2.8-0.5,5.3-0.9,8c0-0.6-0.1-1.1-0.1-1.7c-0.1,0-0.2,0-0.3,0c0.2,1.3-1.1,2.4,0,3.8c0.6,0.8,0.8,1.9,1.4,2.8
		c0.3,0.5,0.8,0.8,1.3,1.3c0.1-1,0.1-2.1,0.2-3.2c0.1-1.8,0.2-3.6,0.5-5.4c0.1-0.4,0.2-0.8,0.3-1.3c0-0.4,0.1-0.9,0.1-1.3
		c-0.4,0.3-0.9,0.6-1.4,1c-0.1-0.1-0.2-0.1-0.2-0.1c0.3-1.1,0.7-2.2,1.1-3.3c0.5,0.5,0.8,0.8,1.2,1.2c0.1-0.1,0.1-0.3,0.2-0.4
		c0.4-1.3,0.2-2.5-0.4-3.6c-1.2-2.1-1.7-4.3-1.7-6.7c0-0.3,0.3-0.6,0.4-0.9c0.1-0.3,0.3-0.5,0.4-0.8c0.4-1.1,0.8-2.3,1.1-3.4
		c0.1,0,0.3,0,0.4,0c0.1,1.1,0,1.8,0.2,2.4c0.2,2.9,1.3,5.4,2.8,7.8c2.1,3.3,4.3,6.5,6.1,10c1.4,2.6,2.6,5.4,2.4,8.5
		c-0.1,2.1,0,4.2-0.1,6.3c0,0.6,0.3,1.7-1,1.7c-0.1,0-0.2,0.5-0.3,0.8C109.4,179.1,109,180.6,108.2,181.8z M102.7,145.3
		c0.5,2,1.2,4,1.9,6.2c-3.8-5-4.1-12.8-0.8-15.6l0.1,0.1C101.6,138.9,101.9,142.1,102.7,145.3z M106.5,130.2
		c0.1-0.1,0.3-0.1,0.4-0.2c1.6,3.4,3.2,6.9,4.8,10.3c-0.2,0.1-0.3,0.1-0.4,0.2C109.7,137.1,108.1,133.6,106.5,130.2z M110.2,152.3
		c-0.4-2.2,0.3-4.1,0.6-6.1C111.2,148.3,111.3,150.2,110.2,152.3z M108.4,131.1l-2.5-3.3c0.1-0.1,0.1-0.1,0.2-0.2
		c0.8,1.1,1.7,2.2,2.6,3.3L108.4,131.1z M110.1,236.8c0-0.1,0.1-0.2,0.1-0.3c0.5-1.3,0.9-2.6,1.4-4.2c0.1,0.8,0.2,1.2,0.3,1.9
		c0.2-0.3,0.3-0.4,0.5-0.7c1.2,2.1,2.7,3.9,3,6.2C113.7,238.8,111.9,237.8,110.1,236.8z M115.9,239.8c0.1-0.4,0-0.8-0.2-1.3
		c-1-1.9-2.1-3.6-3.1-5.5c-0.3-0.5-0.5-0.9-0.9-1.6c2,1,4,5,4.9,8.7C116.4,240,116.2,239.9,115.9,239.8z M117.2,240.4
		c0-0.1,0-0.2,0-0.3c0-0.5-0.2-1.3,0.5-1.4c0.5-0.1,1.2,0.4,1.5,0.9c0.6,0.7,1,1.5,1.4,2.3C119.5,241.4,118.3,240.9,117.2,240.4z
		 M122.3,242.6c0-0.6,0.1-1.2,0.1-1.8c0.6,0.8,1.1,1.6,1.5,2.5C123.4,243.1,122.9,242.9,122.3,242.6z M126.6,244.2
		c0-0.2-0.1-0.4-0.1-0.6c-1-4.1-2.9-7.7-5.7-10.8c-1.7-2-3.4-4-4.2-6.5c-1.2-3.5-0.5-6.6,2.2-9.2c0.8-0.8,1.7-1.5,2.8-2.5
		c-3,0.7-5.1,1.9-6.5,4.5l-0.2-0.2l1.2-2.5c0,0-0.1-0.1-0.2-0.1c-0.8,0.9-1.6,1.8-2.5,2.7c0.6-2.8,1.9-5,4.3-6.4
		c3.1-1.8,6.4-3.5,9.1-6c0.1,0.1,0.2,0.2,0.2,0.3c-0.6,0.5-1.1,1.1-1.7,1.5c-0.6,0.5-1.2,1-2.1,1.6c0.4-0.1,0.7-0.1,1.2-0.3
		c-0.9,0.6-1.5,1-2.3,1.6c2.1,0.1,3.5-1,5.1-1.6c-1,0.7-2,1.3-3.1,2.1c1.5,0.3,2.4-0.7,3.5-1c0.4-0.4,0.9-0.8,1.3-1.2
		c0.5-0.7,1.4-1.1,0.9-2.3c-0.2-0.4,0.4-1.1,0.6-1.8h-0.7c0.2-0.5,0.3-1,0.4-1.6c-0.3,0-0.5,0-0.6,0v-5.4c0,0-0.3,0.1-0.6,0.2
		c-0.2-1.4-0.3-2.7-0.5-4.1c-0.2,0.1-0.4,0.3-0.7,0.5v-2.9c-0.3,0.4-0.3,0.6-0.6,1c-0.2-1.7-0.4-3-0.6-4.4c-0.1,0-0.3,0.1-0.4,0.1
		c-0.3-1.8-0.6-3.5-0.7-5.3c-0.1-0.8,0.3-1.7,0.4-2.6c0.2-2.3,0.3-4.7,0.7-6.9c0.2-1.4,0.8-2.8,1.6-4.1c3.3-5.5,7.2-10.4,12.6-14
		c2.6-1.8,4.6-4.3,5.9-7.1c0.4-1,0.7-2.1,1.7-2.9c-0.4,0-0.6,0-0.8-0.1c0-0.1-0.1-0.1,0-0.2c1.1-2.7,2.1-5.5,3.4-8.2
		c0.9-2,2.1-3.9,3.3-5.7c0.6-0.9,1.7-1.6,2.5-2.3h-1.1v-0.1c1-0.3,1.9-0.6,2.8-0.9v-0.3c-0.3-0.1-0.5-0.2-0.9-0.3
		c0.7-0.2,1.2-0.4,1.8-0.6c-0.5-0.2-1-0.5-1.6-0.7c0-0.1,0.1-0.1,0.1-0.2c0.7,0.1,1.3,0.2,2.3,0.3c-0.5-0.4-0.7-0.6-1-0.8
		c0.9-0.1,1.7-0.2,2.4-0.3v-0.2l-1.9-0.7c0-0.1,0.1-0.2,0.1-0.3c0.5,0.2,1,0.3,1.8,0.6c-0.6-0.8-1.1-1.3-1.5-1.8l0.2-0.2
		c0.8,0.5,1.5,1.1,2.3,1.6l0.1-0.1c-0.4-0.6-0.8-1.3-1.2-1.9l0.2-0.1l0.9,1.1c0.1,0,0.1,0,0.2-0.1c-0.1-0.4-0.3-0.8-0.5-1.5
		c0.3,0.5,0.5,0.8,0.9,1.3c-0.2-1.5-0.3-2.7-0.4-3.8c0.1,0,0.1,0,0.2-0.1c0.2,0.5,0.4,1.1,0.7,1.7c0.1-0.3,0.1-0.5,0.2-0.8
		c0.3,0.7,0.6,1.2,0.9,1.7c0.1,0,0.1,0,0.2-0.1c-0.3-0.7-0.4-1.4-0.7-2c-0.5-1-0.2-1.9-0.2-2.9c0.1-1.1-0.2-2.3-0.3-3.4
		c0-0.2,0.2-0.3,0.3-0.5c0.1,0.1,0.3,0.1,0.4,0.2c-0.1-0.5-0.2-1.1-0.3-1.6c-0.6-4.2-1.3-8.3-3.2-12.1c-1-2-2.2-3.8-3.2-5.7
		c-0.2-0.2-0.2-0.5-0.3-0.8c-1.4-4.3-5.4-7.3-10-7.6c-1.3-0.1-2.6-0.2-3.9-0.4c0.8-0.2,1.6-0.4,2.3-0.7c0-0.1-0.1-0.2-0.1-0.3
		c-1.9,0.4-3.9,0.7-5.9,1.1c2.2-1.5,4.7-0.9,7-1.5v-0.3c-0.9,0-1.9-0.2-2.8,0c-2.1,0.5-4.2,1.1-6.1,1.9c-6.6,2.8-12.7,6.6-18.4,10.9
		c-1,0.8-1.9,1-3.2,0.7c-1.2-0.3-2.5-0.6-3.8-0.7c-1.6,0-3.1,0.2-4.8,0.3c0.9,0.3,1.8,0.5,2.8,0.8c0,0.1,0,0.1,0,0.2
		c-0.4,0-0.8,0.1-1.4,0.1c1.6,0.8,3.5,0.6,4.6,2.1c-3.2-1.6-6.7-0.8-10.1-1.1c0.1,0.2,0.3,0.4,0.4,0.7c-0.8-0.7-1.8-0.5-3-0.2
		c0.9,0.2,1.6,0.4,2.2,0.6c-1,0.2-2,0.1-2.8-0.6c-0.8-0.6-1.5-1.2-2.3-2c0.1,1.2,1.3,3,3.5,5.3c-0.4-0.1-0.7-0.2-1.1-0.2
		c0.2,0.2,0.3,0.3,0.5,0.6c-1.4-0.2-2.7-0.4-3.9-0.6v0.1c1,0.5,2,0.9,3.1,1.4c-2.1,1-4.1,1.9-6.1,2.8l0.1,0.2l3.9-0.8
		c0,0.1,0,0.2,0.1,0.3c-0.9,0.3-1.8,0.5-2.7,0.9c-1.1,0.4-2.2,0.9-3.2,1.4c-0.3,0.2-0.6,0.6-0.7,1c-0.1,0.3,0.1,0.7,0.1,1
		c-1,0.6-1.9,1.2-2.9,1.9l0.1,0.2l1.6-0.7c-1.2,0.5-1.4,1.7-1.5,2.8c0.2-0.1,0.6-0.2,0.9-0.3c0.3,0.8-0.1,1.2-0.8,1.5
		c-1.1,0.6-2.2,1.2-3.3,1.8c-0.3,0.2-0.6,0.4-0.8,0.8c0.4-0.1,0.8-0.3,1.3-0.4c-0.4,0.4-0.8,0.8-1.4,1.3c0.5,0.1,0.7,0.1,1,0.2
		c-0.8,1.1-1.7,2.2-2.6,3.4c0.4-0.1,0.7-0.2,1.2-0.3c-1.2,1.3-2.2,2.5-3.2,3.6c-0.8-0.1-1.4-0.3-2.1-0.4l-0.1,0.3
		c0.4,0.2,0.8,0.3,1.3,0.6c-0.1,0.1-0.3,0.3-0.3,0.4c0.8,1.3-0.4,1.1-0.8,1c-1.2-0.2-2.4-0.5-3.5-0.8c0.2,0.3,0.4,0.7,0.8,1.2
		c-1.6-0.4-3.1-0.7-4.6-1l-0.1,0.3l4.5,1.2c0,0.1,0,0.1,0,0.2c-1,0.1-2,0.2-2.9,0.3c0,0.1,0,0.3-0.1,0.3c0.7,0.3,1.3,0.7,2.2,1.1
		c-0.6,0.2-1,0.4-1.4,0.6c-1.4,0.7-2.9,1.3-4.3,2.1c1.6,0,3.1-0.9,4.6,0.1c-1.1,0.6-2.2,1.1-3.3,1.8c-0.4,0.3-0.7,0.8-1,1.3
		c-0.6,1-1.5,1.3-2.4,1.9c-0.3,0.2-0.5,0.3-1,0.7c0.6-0.1,0.8-0.1,1.4-0.2c-1.3,0.8-2.3,1.5-3.4,2.1c6.9-44.7,45.6-78.9,92.1-78.9
		c51.4,0,91.9,40.5,93.2,90.9c-0.7-0.4-1.3-0.8-1.9-1.2c0.6,0.1,0.9,0.1,1.2,0.2c-2.3-1.3-4.6-2.6-6.9-3.9c0.1-0.1,0.1-0.2,0.2-0.3
		c0.5,0.2,1,0.3,1.7,0.5c-0.6-0.6-1-1.2-1.6-1.7c-2.8-2.2-5.6-4.4-8.5-6.5c-1.2-0.9-2.1-2-2.7-3.4c-1.2-3.1-2.4-6.2-3.5-9.4
		c0-0.1,0-0.2,0-0.3l0.2-0.2c0.3,0.4,0.5,0.8,0.8,1.2c0.1-0.1,0.2-0.1,0.2-0.2c-0.9-1.5-1.7-2.9-2.6-4.4c0.4,0,0.5,0.2,0.7,0.4
		s0.3,0.3,0.7,0.6c-1.2-2.1-2.4-4-3.6-6c0.1-0.1,0.3-0.2,0.4-0.2c2.7,2.4,3.4,6.1,5.8,8.7c-2.6-5.6-5.9-10.8-10.8-14.7
		c1.7,0.4,2.7,1.7,3.8,2.9c1.2,1.3,2.4,2.6,3.6,3.9c0.2-0.1,0.3-0.2,0.4-0.3c-0.4-0.8-0.8-1.6-1.4-2.2c-0.6-0.6-0.3-1.5-1.1-2
		c-0.9-0.6-1.7-1.5-2.6-2.2c0-0.1,0.1-0.1,0.1-0.1c0.4,0.1,0.9,0.2,1.3,0.3c0-0.1,0.1-0.1,0.1-0.2c-0.6-0.5-1.3-1.1-2.1-1.7
		c0.7,0,1.2,0.1,1.6,0.1c0-0.1,0.1-0.2,0.1-0.3c-1.5-0.9-3.1-1.8-4.6-2.8c0.3-0.2,0.6-0.4,0.9-0.6c-0.8-0.4-1.4-0.7-2-1
		c0.4-1.5,2.4-2.1,1.8-4.1c-0.5,0.3-0.8,0.5-1.2,0.8l-0.1-0.1c0.3-0.3,0.5-0.7,0.8-1c-0.7,0.3-1.2,0.7-1.8,1.1
		c-0.6,0.3-1.2,0.5-1.8,0.8c1.1-1,1.6-1.6,1.7-2c-1.2,1.6-2.8,0.5-4.3,0.6c0.3-0.4,0.5-0.7,0.8-1.1c-0.7,0.1-1.2,0.2-1.7,0.2v-0.1
		c0.5-0.3,1-0.5,1.7-0.9c-2.2-0.1-2.4-0.1-3.1-0.7c0.3-0.4,0.7-0.9,1.2-1.4c-1.3,0.5-2.4,0.8-3.5,1.2c0-0.1-0.1-0.1-0.1-0.2
		c0.3-0.3,0.6-0.5,0.8-0.7c-1.7,0.3-3.5,0.8-5.3,1c-0.4,0-1-0.3-1.3-0.6c-1.4-1.4-2.6-3-4-4.4c-3.6-3.4-7.7-6.1-12.2-8.2
		c-2.6-1.3-5.3-2.2-8.1-2.6c-4-0.5-8-0.4-12-0.1c-0.3,0-0.7-0.2-1-0.3c-0.8,0.2-1.7,0.3-2.5,0.5c0-0.1,0-0.2-0.1-0.3
		c-0.1,0.2-0.3,0.3-0.4,0.5c-0.3-0.3-0.4-0.5-0.5-0.5c-0.4,0.1-0.7,0.3-0.8,0.3c-1.9-1.4-4.4-1.1-6.5-1.9c-0.3-0.1-0.5-0.1-0.9-0.1
		c0.4,0.4,0.7,0.8,0.9,1.1c-1.3-1-2.9-0.5-4.3-0.7c1.4,0.5,2.8,0.9,4.2,1.3c0.1,0,0.3-0.2,0.4-0.3c0.7,0.4,1.3,0.8,2.2,1.4
		c-0.3-0.5-0.4-0.8-0.6-1.3c0.9,0.8,1.6,1.4,2.5,2.2c-0.1-0.5-0.2-0.8-0.3-1.1c0.1,0,0.1-0.1,0.2-0.1c0.4,0.5,0.9,1.1,1.4,1.7
		c0.1-0.2,0.1-0.4,0.2-0.7c1.2,1.1,2.8,1.5,3.5,3.1h0.2c0.3-0.7,0.6-1.5,1-2.4c0.1,0.5,0.1,0.8,0.1,1c0.9-1.9,2.8-2.2,4.5-2.6
		c1-0.3,2.3-1.2,3.3,0.3c0.1,0.1,0.3,0,0.5,0c0.3,0,0.7,0,1.1,0.1c-0.3,0.6-0.6,1.1-0.9,1.6c0.1,0.1,0.1,0.1,0.2,0.1
		c0.6-0.5,1.2-0.9,1.9-1.4c0,0.1,0.1,0.1,0.1,0.1c-0.3,0.5-0.6,0.9-0.9,1.3l0.1,0.1c0.4-0.3,0.9-0.7,1.2-1c0.2,0.4,0.4,0.7,0.6,1.1
		c0,0.1-0.2,0.3-0.4,0.8c0.6-0.4,0.9-0.6,1.4-0.9v1.5c0.4-0.3,0.6-0.5,1.2-0.9c-0.2,1-0.3,1.7-0.4,2.2c0.5-0.1,1-0.3,1.3-0.3
		c0.2,1.1,0.3,2,0.5,2.9c0.3-0.1,0.6-0.3,1-0.4c0,0.5,0.1,0.8,0.1,1.2c0.2-0.1,0.5-0.1,0.8-0.2c-0.3,0.7-0.4,1.2-0.7,2
		c0.4-0.3,0.7-0.4,1.2-0.8c-0.1,0.6-0.1,0.9-0.3,1.2c-0.8,1.1-1.7,2.2-2.6,3.3c1.7-1,2.2-3.4,4.7-3.6c-0.4,0.7-0.7,1.1-1.1,1.8
		c0.9-0.7,1.7-1.2,2.4-1.7c0.1,0.1,0.1,0.1,0.1,0.2c-0.1,0.3-0.2,0.5-0.4,0.8c0.3-0.1,0.5-0.2,0.6-0.3c0.2-0.1,0.3-0.2,0.5-0.2
		c-2.5,3.7-5.7,6.9-5.8,11.8c-0.1,4.6-0.3,9,2.9,12.8c-0.7-1.5-1.3-2.9-1.9-4.4c0.1-0.1,0.2-0.1,0.3-0.1c0.6,1.2,1.2,2.4,1.8,3.7
		c0.1-0.2,0.2-0.3,0.3-0.5c0.7,1.5,1.3,2.8,2,4.2c0.1,0,0.1-0.1,0.2-0.1c-0.1-0.3-0.2-0.7-0.2-1.1c0.5,0.4,0.8,0.9,1.1,1.3
		c0.2,0.3,0.3,0.8,0.5,0.8c0.8,0,1.3,0.7,2,1c4.4,2.7,8.4,6,11.9,9.9c1,1.1,1.7,2.5,2.2,3.9c0.6,1.6,0.9,3.4,1.2,5.1
		c0.5,3,2.2,5.7,2.6,8.8c0.4,3.1,1.8,6.1,1.3,9.4c-0.1,0.5-0.3,0.9-0.5,1.6c0.5,0.7,1.1,1.6,1.8,2.6c-0.1,0-0.1,0.1-0.1,0.1
		c-0.8-0.8-1.5-1.6-2.2-2.4c-0.5,3,0.8,5.3,2,7.8c-0.7-1.1-1.3-2.2-2-3.2c0.2,1,0.4,1.9,0.4,2.8c-0.1,1.2-0.3,2.5-0.7,3.7
		c-1.1,3.6-2.3,7.1-3.5,10.7c-0.1,0-0.2-0.1-0.3-0.1c-0.1-0.2-0.2-0.4-0.3-0.6c-0.8,0.7-1.6,1.3-2.3,2c-0.1-0.1-0.1-0.1-0.1-0.2
		c0.1-0.2,0.1-0.3,0.2-0.6c-0.7,0.2-1.2,0.3-1.8,0.5c0,0,0-0.1-0.1-0.1c0.5-0.3,0.9-0.7,1.4-1c0,0,0-0.1-0.1-0.1
		c-0.7,0.1-1.3,0.3-2,0.4c0-0.1,0-0.1,0-0.2c0.2-0.1,0.5-0.3,0.7-0.4c-0.8-0.3-1.5-0.6-2.4-0.9c0.4-0.3,0.5-0.4,0.6-0.4
		c-0.8-0.5-1.5-0.9-2.2-1.4c0.2-0.2,0.4-0.3,0.7-0.5c-0.7-0.4-1.2-0.8-1.8-1.1c0.1,0,0.2-0.1,0.3-0.1c-0.2-1.2-0.3-2.3-0.5-3.5h-0.1
		c-0.1,0.4-0.1,0.9-0.2,1.3h-0.2c-0.2-1-0.4-2-0.6-2.9h-0.1c-0.1,0.7-0.2,1.3-0.3,2c-0.1,0-0.1,0-0.2,0c-0.1-1.4-0.2-2.7-0.3-4.4
		c-0.3,0.7-0.5,1.1-0.7,1.7c-0.1-1.2-0.2-2.1-0.3-3.1h-0.1c0,0.3-0.1,0.5-0.2,0.9c-0.2-0.8-0.4-1.5-0.5-2.2c-0.1,0-0.2,0-0.3,0
		c-0.1,0.5-0.2,1.1-0.3,1.8c-0.2-1.3-0.4-2.3-0.5-3.4h-0.3c-0.2,0.7-0.4,1.4-0.7,2.1c-0.1-0.2-0.1-0.3-0.2-0.4c-0.4-1.9-0.6-4-1.2-6
		c0.4,1.2,0.7,2.3,1.1,3.5c0.1,0,0.2-0.1,0.3-0.1c-0.6-2.1-1.3-4.2-1.9-6.3c-0.1,0.1-0.3,0.1-0.4,0.1c0.3,0.8,0.5,1.6,0.8,2.4
		c-0.2-0.6-0.4-1.2-0.8-1.8c-0.7-1.3-0.3-3.1,0.3-4.9c1.9,1.8,3,4.3,5.4,5.6c-0.9-2.2-3.1-5-4.2-5.5c0.2,0.3,0.3,0.6,0.4,0.8
		l-0.1,0.1c-0.5-0.5-0.9-1-1.3-1.5c0.9-1.7,3.8-3.5,4.9-3.2c0,0,0,0.1,0.1,0.2c-0.3,0-0.5,0-1-0.1c1.6,1.1,2.9,2.1,4.3,3.1l0.1-0.1
		c-0.6-0.8-1.3-1.6-1.9-2.4c0.1,0,0.1-0.1,0.2-0.1c0.8,0.5,1.7,1.1,2.5,1.6c0,0,0.1-0.1,0.1-0.2c-0.8-0.7-1.7-1.5-2.6-2.2
		c0.1-0.1,0.2-0.2,0.2-0.3c1.4,0.8,2.8,1.6,4.3,2.4c0,0,0.1-0.1,0.1-0.2c-0.5-0.4-0.9-0.8-1.4-1.2l0.1-0.1c0.3,0.1,0.5,0.3,0.8,0.4
		c0.1-0.1,0.1-0.1,0.2-0.2c-0.4-0.5-0.8-0.9-1.2-1.3c0.3-0.2,0.6-0.3,1-0.5c-0.6-0.5-1.2-0.9-1.7-1.3c0.1-0.1,0.2-0.3,0.3-0.4
		c1,0.5,2.1,0.9,3.1,1.4l0.1-0.1c-0.7-0.7-1.4-1.3-2.2-2c0.1,0,0.1-0.1,0.1-0.1c0.4,0.3,0.8,0.4,1.3,0.7c0.3,0.3,0.6,0.7,0.9,1
		c0.1-0.1,0.1-0.1,0.2-0.2c-0.3-0.3-0.5-0.6-0.8-1c0-0.1,0-0.1,0.1-0.1c-0.1,0-0.2-0.1-0.3-0.1c-0.3-0.4-0.6-0.8-1-1.2
		c-0.1,0.1-0.2,0.2-0.3,0.3c0.2,0.2,0.4,0.4,0.6,0.6c-0.6-0.2-1.1-0.4-1.6-0.5c1.2-1.7,2.5-3.7,3.9-5.8c0.3,0.4,0.6,1,1.2,1.7
		c-0.7-0.4-1.1-0.6-1.4-0.8c0,0.1-0.1,0.2-0.2,0.2c0.4,0.7,0.8,1.3,1.2,2c-0.4-0.1-0.8-0.2-1.6-0.3c1,1.2,1.7,2.2,2.5,3.1
		c0.1-0.1,0.3-0.2,0.3-0.3c-0.2-0.3-0.4-0.6-0.6-0.9s-0.3-0.7-0.5-1.1c0.2,0,0.4,0,0.9,0.1c-0.3-1.3-0.7-2.4-0.9-3.5
		c-0.2-0.8-0.4-1.6-0.3-2.3c0.4-2.4,0.1-4.6-1.1-6.8c-2.3-4.3-6.1-6.7-10.7-7.8c-2.2-0.6-4.7-0.4-7.1-0.5c-6-0.1-10.9,2.3-14.8,6.8
		c-2.3,2.6-3.1,5.6-2,9c0.1,0.4-0.1,0.9-0.1,1.3c0,0.1,0,0.1,0,0.2c0.3,0.1,0.5,0.1,0.8,0.2c-0.2,0.4-0.3,0.8-0.4,1.2
		c0.4-0.1,0.8-0.2,1.2-0.3c-0.5,0.7-0.8,1.1-1.2,1.6c0.1,0,0.1,0.1,0.2,0.1c0.4-0.2,0.8-0.4,1.4-0.8c-0.8,1.3-1.3,2.3-1.9,3.4
		c0.1,0,0.1,0.1,0.2,0.1c0.6-0.8,1.2-1.6,1.9-2.4c0,0,0,0,0.1,0.1c-0.7,1.4-1.3,2.8-1.8,4.2c-0.1,0-0.1,0-0.2,0
		c-0.1,0.2-0.1,0.6-0.3,0.7c-1,0.6-0.5,1.5-0.3,2.2c0.4-0.9,0.6-1.8,1-2.7c0,0,0,0,0,0c0.2-0.1,0.3-0.3,0.5-0.4
		c0.3-0.4,0.8-0.8,1.1-1.2c0.2-0.2,0.4-0.4,0.4-0.7c-0.1-0.6-0.1-0.6,0.5-0.6c0.2,0,0.3-0.1,0.4-0.2c0.6-1.2,1.7-0.5,2.8-0.8
		c-0.5,0.8-0.9,1.3-1.2,1.9l0.1,0.1c0.5-0.5,1-1.1,1.5-1.6c0.1,0,0.1,0.1,0.2,0.1c-0.2,0.5-0.3,1.1-0.4,1.6c0.4,0.1,0.7,0.1,1.3,0.2
		c-2.3,1.2-3.6,3-4.9,4.8c1.7-1.4,3.3-2.8,5-4.2c0.5,0.8,0.8,1.5,1.3,2.3c-0.1,0.2-0.3,0.7-0.6,1.1c0.1,0,0.1,0.1,0.2,0.1
		c0.3-0.3,0.6-0.5,1.1-0.9c0.2,2.1-1.1,3.4-1.7,5c1.2-1.1,2.3-2.2,3.6-3.5c-0.8,1.2-1.6,2.3-2.4,3.3c0.9-1.1,1.9-2.1,2.9-3.2
		c0.1,0.1,0.1,0.1,0.2,0.2c-1,1.2-2,2.4-3,3.6c-0.1-0.1-0.2-0.2-0.3-0.3c-0.2,0.4-0.5,0.7-0.7,1.1c-0.2,0.3-0.1,0.8-0.1,1.2
		c0.1,0,0.2,0,0.3,0.1c1-1.1,2.1-2.3,3.1-3.5c0,0.1,0.1,0.1,0.2,0.1c-0.9,1.4-1.8,2.8-2.7,4.2c0.1,0.1,0.1,0.1,0.2,0.2
		c0.3-0.2,0.5-0.4,0.7-0.6c0.1,0.1,0.1,0.1,0.2,0.2c-1,1.6-1.9,3.1-2.9,4.7c0.1,0.1,0.3,0.2,0.3,0.2c1.8-2.4,3.6-4.9,5.4-7.3
		c0.2,0.4,0.3,0.8,0.2,1.1c-0.7,1.4-1.5,2.7-2.3,4c-0.6,1-1.2,1.9-1.8,2.9c0.1,0.1,0.2,0.2,0.3,0.3c0.1-0.1,0.2-0.3,0.3-0.4
		c1.4-2,2.8-4.1,4.2-6c1.1-1.6,2.1-3.1,2.2-5.1c0-0.2,0.2-0.3,0.4-0.7c0.4,1.4-0.3,2.4-0.7,3.5c-0.9,2.3-1.8,4.5-2.7,6.8
		c-0.1,0.3-0.2,0.7-0.3,1c0.1,0,0.2,0,0.3,0.1c0.4-0.9,0.8-1.8,1.3-2.7c0.4-0.8,0.7-1.7,1.1-2.5c0.4-1.4,0.9-2.8,1.4-4.2
		c1,3,0.7,5.8-0.4,8.6c0.2-1.1,0.3-2.2,0.4-3.4c0.1-1.1,0.2-2.2,0.2-3.4c-0.1,0-0.2,0-0.3-0.1c-0.1,0.5-0.2,1-0.4,1.5
		c-0.7,2.6-1.3,5.3-2.3,7.8c-0.5,1.1-1.8,2-2.8,2.9c1.1-1.6,1.9-3.4,2.6-5.1c-1.2,2.8-2.8,5.5-4.8,7.9c-0.1-0.3-0.1-0.4-0.2-0.6
		c-0.5,0.6-0.8,1.1-1.3,1.7c-0.1-0.3-0.1-0.5-0.3-0.9c-0.9,1-1.7,1.9-2.6,2.9c0.2-0.7,0.3-1.2,0.4-1.7c-0.1,0-0.2-0.1-0.2-0.1
		c-0.9,1.1-1.9,2.3-2.8,3.5c0.3-0.8,0.5-1.4,0.7-2.1c-0.1,0-0.1,0-0.2,0c-0.7,1-1.3,2-2,3h-0.1c0.2-0.6,0.4-1.2,0.6-1.8
		c-0.1,0-0.1,0-0.2-0.1c-0.4,0.8-0.9,1.5-1.5,2.5c0.1-0.5,0.1-0.7,0.1-1c-0.9,1.1-1.8,2.2-2.7,3.2c-0.1,0-0.1-0.1-0.2-0.2
		c0.4-0.6,0.8-1.2,1.1-1.8c-1,0.8-1.7,1.8-2.5,2.7c-0.3,0.3-0.7,0.5-1,0.7c-0.4,0.3-1,0.4-1.3,0.7c-0.7,0.7-1.2-0.3-1.8-0.1
		c0-0.2,0-0.5,0.1-0.7c0.1-0.2,0.4-0.2,0.6-0.3c0,0,0-0.1-0.1-0.1c-1.4,0.4-2.9,0.8-4.3,1.2c0-0.1-0.1-0.2-0.1-0.3
		c0.3-0.2,0.5-0.4,0.8-0.7c-1.1,0.3-2,0.6-2.8,0.8c0-0.1-0.1-0.2-0.1-0.2c0.6-0.3,1.1-0.7,1.7-1c0,0,0-0.1-0.1-0.1
		c-1.1,0.3-2.2,0.5-3.3,0.8c0-0.1-0.1-0.2-0.1-0.3c0.3-0.2,0.5-0.3,0.6-0.3c-1.7-0.6-3.4-1.3-5.3-2c0.5-0.3,0.9-0.5,1.6-0.9
		c-1,0.1-1.7,0.2-2.7,0.3c0.2-0.3,0.3-0.5,0.3-0.6c-0.8-0.2-1.6-0.4-2.5-0.6c0.1-0.3,0.1-0.5,0.2-0.7c-0.3,0-0.5-0.1-0.7-0.1
		c-0.1-0.1-0.1-0.1-0.2-0.2c0.3-0.1,0.5-0.2,0.8-0.3c0-0.1-0.1-0.1-0.2-0.2c-0.5-0.1-1.1-0.2-1.7-0.3c0.3-0.3,0.4-0.4,0.7-0.7
		c-0.6-0.1-1.1-0.1-1.6-0.2c0.2-0.3,0.4-0.5,0.6-0.8c-0.6,0.1-1.1,0.2-1.6,0.3c0.2-0.5,0.3-0.9,0.5-1.3c-2.7,1.3-4.5,3.3-5.8,5.8
		c0.8-0.9,1.6-1.7,2.4-2.6c-0.9,1.6-2.2,3-2.6,5c0.3-0.5,0.7-1.1,1-1.6c0,0,0.1,0,0.1,0.1c-0.6,1.5-1.1,2.9-1.7,4.4
		c0.1,0,0.2,0.1,0.3,0.1c0.3-0.8,0.7-1.6,1-2.5c0.1,0,0.1,0,0.2,0.1c-0.4,1.6-0.7,3.3-1.1,4.9c0.1,0,0.2,0.1,0.3,0.1
		c0.2-0.2,0.3-0.4,0.6-0.8c-0.1,1-0.3,1.7-0.3,2.4c0.1,0,0.2,0,0.3,0c0.2-0.3,0.3-0.6,0.5-1c0.3,0.8,0.5,1.6,0.8,2.3
		c0.2-0.1,0.3-0.2,0.6-0.5c-0.4,1.2-0.8,2.2-1.1,3.2c0.7-0.5,1.2-0.9,2-1.4c0.1,0.8,0.2,1.3,0.3,1.7c0.1,0,0.3-0.1,0.5-0.2
		c-0.2,0.5-0.3,0.8-0.5,1.4c0.4-0.3,0.7-0.5,1.1-0.8c-0.3,0.8-0.4,1.4-0.6,2c0,0,0.1,0,0.1,0.1c0.3-0.3,0.5-0.7,0.9-1.1
		c-0.2,0.7-0.3,1.1-0.4,1.7c0.2-0.1,0.4-0.2,0.5-0.2c0.1,0.7,0.2,1.4,0.3,2.2c0,0,0.2,0,0.4,0.1c-0.2,0.3-0.3,0.6-0.4,0.9
		c0.3,0,0.5,0,0.5,0c0.6,1.1,1.1,2.2,1.6,3.1c0.4,0.8,0.8,1.5,1.2,2.2c0.6-0.1,1.4-0.3,2.2-0.4c-0.1,0.5-0.1,0.7-0.2,1.1
		c0.5-0.2,0.8-0.3,1.2-0.5c-0.1,0.4-0.2,0.6-0.2,0.8c1-0.1,1.9-0.3,3-0.4c0,0.3-0.1,0.5-0.1,0.6c1.1-0.4,2.2-0.9,3.2-1.3
		c0,0.1,0,0.2,0,0.5c2-2.2,4.8-1.9,7.2-3.2c0,0.6,0,1,0.1,1.3c0.3,1.3-0.3,2.9,1.3,3.9c0.8,0.5,1.9,0.7,2.4-0.1
		c0.5-0.7,0.9-1.4,1.2-1.9c0.3,0.1,0.5,0.2,0.6,0.1c0.7-0.4,1.3-0.9,1.9-1.4c0.8-0.9,1.7-0.9,2.9-0.5c-0.9,0.8-1.8,1.4-2.5,2.2
		c-0.7,0.8-1,1.8-1.5,2.8l0.1,0.1c0.9-0.8,1.8-1.6,2.7-2.4c0.1,0.1,0.2,0.2,0.2,0.3c-0.3,0.6-0.6,1.2-0.9,1.9c1.2-1.1,2.4-2,3.6-3
		c0.1,0.1,0.1,0.2,0.2,0.2c-0.4,0.7-0.8,1.5-1.1,2.2l0.1,0.1c0.2-0.2,0.3-0.3,0.5-0.5c0.2,0.2,0.4,0.4,0.6,0.6
		c0.6-0.9,1-1.7,1.5-2.5c0.1,0,0.2,0.1,0.3,0.1c-0.5,1.2-1,2.4-1.5,3.6c0.1,0,0.1,0,0.2,0c0.6-0.9,1.2-1.9,1.9-2.8
		c0.1,0,0.1,0.1,0.2,0.1v1.2c0.4-0.5,0.7-0.8,1.2-1.4c-0.2,1-0.4,1.7-0.6,2.4c0.1,0,0.1,0.1,0.2,0.1c0.4-0.6,0.7-1.2,1.1-1.8
		c0.1,0,0.1,0.1,0.1,0.1c-0.1,0.6-0.3,1.2-0.4,1.8c0,0,0.1,0,0.1,0.1c0.4-0.7,0.9-1.3,1.3-2c0.1,0,0.1,0.1,0.2,0.1
		c-0.1,0.5-0.1,1-0.3,1.7c0.8-0.8,1.2-1.4,1.7-1.9c1.2-0.2,0.4,0.8,0.7,1.2c0.7-0.8,1.3-1.6,1.9-2.3c0.3,0.3,0.6,0.8,1,1.3
		c0.3-0.7,0.6-1.2,0.8-1.8c0.4,0.6,0.7,1,1.1,1.7c0.2-0.9,0.3-1.4,0.5-2.1c1.4-0.3,1.6,1.6,2.9,1.7c-0.5-0.9-1-1.6-1.5-2.3
		c0.1-0.1,0.2-0.2,0.2-0.3c0.9,0.6,1.9,1.2,2.8,1.7c0.1-0.1,0.1-0.2,0.2-0.3c-0.3-0.4-0.5-0.8-0.7-1.3l0.1-0.1
		c1.2,0.9,2.3,1.8,3.6,2.8c-0.4-1.2-0.8-2.3-1.2-3.4c0.9,0.8,1.8,1.6,2.7,2.4l0.2-0.2c-0.4-0.9-0.8-1.8-1.2-2.7
		c0.1,0,0.1-0.1,0.2-0.1c1,1.3,2,2.6,3,3.8c0.1,0,0.2-0.1,0.3-0.1c-0.6-1.1-1.2-2.2-1.8-3.4c0.1,0,0.1-0.1,0.2-0.1
		c0.8,1.1,1.7,2.2,2.5,3.4c0.1,0,0.2-0.1,0.2-0.1c-0.3-0.8-0.6-1.5-0.9-2.2c0.1,0,0.1-0.1,0.2-0.1c0.5,0.9,1,1.8,1.4,2.7
		c0.1,0,0.2-0.1,0.3-0.1c-0.4-1.2-0.8-2.5-1.2-3.8c0.1,0,0.2,0,0.2-0.1c0.4,0.9,0.7,1.7,1.1,2.7c0.3-1.3,0.5-2.6,0.7-3.8
		c0.1,0,0.2,0.1,0.3,0.1c0.5,3.6,0.1,10.5-2.7,11.8c-0.1-0.2-0.2-0.3-0.4-0.6c-0.2,0.4-0.3,0.8-0.5,1.1c-0.2-0.2-0.3-0.3-0.5-0.5
		c-0.2,0.6-0.4,1.2-0.6,1.7c-0.2-0.2-0.3-0.3-0.5-0.4c-0.3,1-0.6,1.9-0.8,2.7c-0.1,0-0.2,0-0.3,0v-2.3h-0.2
		c-0.2,0.8-0.3,1.7-0.6,2.7c-0.3-0.6-0.4-1-0.6-1.5c-0.3,1.1-0.4,2-0.6,2.9h-0.2c-0.3-0.8-0.7-1.7-1.1-2.5c-0.1,0.3-0.2,0.7-0.3,1.1
		c-0.1-0.1-0.1-0.1-0.2-0.2c-0.4,0.5-0.8,1.1-1.3,1.6c-0.1,0-0.3,0-0.4-0.1v-5c-0.1,0-0.3,0-0.4,0c-0.3,1.7-0.5,3.4-0.8,5h-0.3v-4
		c-0.1,0-0.1,0-0.2,0c-0.3,1.4-0.5,2.7-0.7,4.1h-0.2c-0.1-0.3-0.3-0.6-0.5-1.2c-0.3,1.1-0.5,1.8-0.7,2.8c-0.3-0.7-0.5-1.2-0.8-1.9
		c-0.3,0.8-0.5,1.3-0.8,1.9c-0.1,0-0.2,0-0.3-0.1v-5.3h-0.2c-0.4,1.1-0.9,2.2-1.3,3.2c0,0-0.1,0-0.1-0.1c0.2-0.9,0.3-1.9,0.5-2.8
		c-0.3,0.4-0.5,0.9-0.7,1.3c-0.2,0.4-0.1,1.1-0.9,0.9c0.2-0.8,0.3-1.5,0.5-2.3c-0.7,0.9-1.3,1.7-1.8,2.5c-0.3-0.8-0.6-1.3-0.9-2.1
		c-0.6,1.1-1,1.9-1.4,2.7c-0.1,0-0.1-0.1-0.2-0.1c0.2-0.8,0.4-1.6,0.7-2.4c-0.1,0-0.1,0-0.2,0c-0.5,1-0.9,2-1.3,3
		c-0.1,0-0.1,0-0.2,0c0.3-1,0.5-2,0.8-3.1c-0.1,0-0.1,0-0.2-0.1c-0.5,1-1,2-1.5,3c-0.1,0-0.1,0-0.2-0.1c0.4-1.3,0.8-2.6,1.2-3.9
		c-0.1,0-0.1,0-0.2-0.1c-0.6,1.2-1.2,2.5-1.8,3.7c-0.1,0-0.1-0.1-0.2-0.1c0.2-0.6,0.4-1.2,0.6-1.8h-0.1c-0.3,0.4-0.6,0.8-0.8,1.3
		c0,0-0.1,0-0.1-0.1c0.2-0.7,0.4-1.4,0.7-2.1h-0.1c-0.6,0.9-1.2,1.9-1.8,2.9c-0.1-0.1-0.2-0.1-0.3-0.2l1.3-2.8c0,0-0.1,0-0.2-0.1
		c-0.6,0.7-1.2,1.4-1.7,2.1c-0.4-0.3-0.7-0.6-1.1-0.9c0.2-0.8,0.4-1.7,0.6-2.5c-0.2-0.1-0.3-0.1-0.4-0.1c-0.7,0.3-1.4,0.5-2.2,0.8
		c-1.8,0.7-2.6,0.5-3.9-0.8c-0.3-0.4-0.7-0.7-1-1.1c-0.9-1.3-2.2-1.9-3.7-1.9c-4.6-0.2-9.1-0.4-13.7-0.6c-0.2,0-0.4,0-0.8,0.1
		c0.9,1.1,1.7,2.1,2.5,3c0.1,0,0.1-0.1,0.2-0.1c-0.2-0.4-0.3-0.9-0.4-1.3l0.1-0.1c0.5,0.7,1.1,1.3,1.7,2.1c0.3-0.6,0.5-0.9,0.7-1.2
		c0.4,0.6,0.8,1.2,1.2,1.7c0-0.1,0.1-0.1,0.2-0.1c-0.1-0.3-0.2-0.6-0.3-1.1c0.9,0.9,1.5,1.7,2.2,2.4c0.1,0,0.1-0.1,0.2-0.1
		c-0.1-0.5-0.2-0.9-0.3-1.7c0.6,1,1.1,1.8,1.5,2.6c0.1,0,0.1-0.1,0.2-0.1c-0.3-0.8-0.6-1.6-0.9-2.4c0.1-0.1,0.2-0.1,0.3-0.2
		c0.5,0.9,1,1.7,1.6,2.6c0.1,0,0.1-0.1,0.2-0.1c-0.2-0.7-0.3-1.4-0.5-2.1c0.1,0,0.1,0,0.2-0.1c0.4,0.6,0.8,1.2,1.3,2
		c0.1-0.7,0.1-1.2,0.2-1.7c0.1,0,0.2-0.1,0.3-0.1c0.2,0.2,0.3,0.5,0.5,0.7c0-0.3,0.1-0.4,0.1-0.7c0.5,0.6,0.8,1.1,1.2,1.6
		c0.1,0,0.1-0.1,0.2-0.1V216c0.3,0.7,0.6,1.1,0.8,1.5c0.2,0.3,0.5,0.6,0.9,1.1c0.1,0.8,0.2,1.9,0.3,3.2c0.7-2-0.2-3.9,0.3-5.6
		c0.2,0,0.3,0,0.4-0.1c0.3,0.6,0.5,1.2,0.8,1.8c0.1-0.3,0.3-0.7,0.4-1c0.7,0.5,0.7,1.1,0.5,1.8c-0.3,1.6-0.7,3.1-1,4.6
		c0.1,0,0.2,0,0.3,0.1c0.4-1.4,0.8-2.8,1.3-4.4c0.1,0.7,0.1,1,0.1,1.4c0.2-0.3,0.4-0.5,0.6-0.9c0.1,1,0.1,1.8,0.2,2.8
		c0.3-0.7,0.6-1.2,0.8-1.6c0.1,0,0.2,0.1,0.3,0.1c-0.4,1.4-0.8,2.8-1.2,4.2c0,0,0.1,0,0.1,0.1c0.3-0.8,0.7-1.5,1-2.3
		c0.2,0.6,0.2,1.1,0.2,1.6c-0.2,3.2-0.4,6.4-0.5,9.6c0,0.3,0.3,0.6,0.5,1c0.2-0.3,0.4-0.6,0.5-0.9c0.2-1.2,0.2-2.5,0.3-3.7
		c0-0.1,0-0.2,0.1-0.4c0.1,0.3,0.1,0.6,0.2,0.7c0.7-0.6,1.4-1.2,2.2-1.9c0.1,0.7,0.1,1.1,0.1,1.5c0.3-0.2,0.4-0.4,0.8-0.7
		c-0.1,1.9-0.3,3.5-0.3,5.1c0.1,0,0.1,0,0.2,0c0.3-1.2,0.5-2.3,0.8-3.4h0.1v4.2c0.5-1.3,1.1-2.8,1.7-4.3c0.3,1.5,0.6,3,0.7,4.5
		c0.1,1.1,0.7,1.4,1.6,1.2c0.1-2.1,0.2-4.1,0.3-6.1h0.3v6h0.2v-1.6c0.1,0.7,0.2,1.3,0.3,1.9c0.2,0,0.3,0,0.5,0c0-0.9,0-1.7,0-2.6
		c0-0.8,0.1-1.7,0.2-2.5c0.1,0,0.1,0,0.2,0c0.1,0.3,0.2,0.7,0.3,1h0.3c0.3-1.8,0.7-3.6,1-5.4c0.1,0,0.1,0,0.2,0
		c0.1,1.2,0.3,2.4,0.4,3.6h0.1c0-0.2,0.1-0.4,0.1-0.6c0.1,0.2,0.2,0.3,0.3,0.8c0.2-2.1,0.4-3.9,0.6-5.6c0.1,0,0.2,0,0.3,0
		c0.2,0.5,0.3,1.1,0.5,1.8c0.3-0.7,0.4-1.1,0.6-1.4c1.1,0.4,0.4,1.3,0.7,2c0.2-0.5,0.4-1,0.6-1.5c0.2,1.1,0.4,2.1,0.6,3.1
		c0.1,0,0.1,0,0.2,0l1.7-4c0.1,0,0.1,0,0.2,0c0.3,3.5,0.6,6.9,0.9,10.5c1.1-0.1,1.4-0.7,1.4-1.7c0-2.7,0.1-5.5,0.1-8.3h0.4
		c-0.1,1.1-0.2,2.2-0.3,3.3c0,1.1,0,2.2,0,3.2c0.3-2.9,0.3-5.8,2.2-8.4c-0.1,1.9-0.2,3.8-0.3,5.7h0.1c0.1-0.4,0.3-0.9,0.4-1.3
		c0.1,0.7,0.2,1.3,0.3,2c0.6-1.4,0.2-2.9,1.2-4.4c0.1,0.6,0.1,1,0.2,1.5c0.2-0.8,0.3-1.5,0.4-2.1c0,0,0.1,0,0.2,0v2.2h0.1
		c0.1-1.3,0.3-2.6,0.4-3.8c0.1,0,0.2,0,0.2,0c0.2,1.2,0.4,2.4,0.6,3.6h0.2V226c0.1,0,0.1,0,0.2,0c0.2,1.2,0.3,2.4,0.5,3.6h0.3
		c0.1-1,0.1-2,0.2-3.2c0.2,0.4,0.3,0.6,0.5,0.8c0.5-2.7,0.9-5.3,1.4-8h1.5c0.2-0.8,0.3-1.6,0.5-2.3c0.1,0,0.2,0,0.3,0
		c0.1,0.4,0.3,0.9,0.4,1.4h0.1c0.1-1.6,0.3-3.2,0.4-4.8c0.1,0,0.1,0,0.2,0v10.1h0.1c0.2-2,0.3-3.9,0.5-5.9h0.1
		c0.1,1.4,0.1,2.7,0.2,4.1c0.2-0.1,0.3-0.2,0.3-0.3c-0.1-3.6-0.2-7.2-0.4-10.8c-0.1-2.6-0.3-5.2-0.5-7.8c-0.2-2.3,0.1-2.9,2.3-3.5
		c0.6,2.2,1.1,4.4,1.7,6.6c0.1,0,0.2,0,0.2-0.1c0.1-0.7,0.2-1.3,0.3-1.9h0.3c0.1,0.5,0.2,1,0.2,1.4c0,0.7,0.2,1.5-0.6,2
		c0.5,1.5,0.7,3.3,1.6,4.4c1.4,1.7,2,3.5,1.6,5.6c-0.2,1,0,1.9,0.7,2.7c1,1.1,1.8,2.4,2.7,3.6c1.7,2.4,2.4,5.1,1.9,8
		c0,0.1-0.1,0.2-0.1,0.3c-0.3,0.2-0.7,0.5-1,0.7c-0.2-0.3-0.5-0.5-0.7-0.8c-0.3-0.5-0.4-1.1-0.6-1.6c-0.7-1.2-1.5-2.5-2.2-3.7
		c-0.1,0.1-0.3,0.1-0.4,0.2c1.3,1.9,2.1,4,2.2,6.3c0,0.2,0,0.4,0.1,0.6c-14.6,9.6-32.1,15.2-50.9,15.2c-10.4,0-20.4-1.7-29.7-4.9
		L126.6,244.2z M118.2,118.7c-0.8-1.7,0.3-3,0.8-4.4c0.4-1.2,1.1-2.4,1.6-3.6c0.1-0.2,0-0.4-0.1-0.6c-0.1,0-0.2,0-0.3,0
		c0.9-1.6,1.8-3.2,2.8-4.9c-0.3,0.2-0.6,0.3-0.8,0.4c1.1-1.7,2.1-3.3,3.2-5c-0.3,0.1-0.5,0.1-0.8,0.1c0.8-0.8,1.4-1.6,2.2-2.5
		c-0.6,0.3-0.8,0.4-1.4,0.8c0.3-0.4,0.5-0.6,0.6-0.8c1.1-1.5,2.4-2.9,3.3-4.6c1.2-2.1,3-3.5,4.9-4.8c-0.6,0.9-1.2,1.8-2.1,3
		c0.7-0.3,1.1-0.5,1.7-0.7c-0.9,1.1-1.8,2-2.7,3.1h0.9c-1,1.3-1.3,2.1-0.9,2.3c-0.2,0.3-0.4,0.6-0.8,1.2c0.6-0.3,0.8-0.4,1.4-0.7
		c-0.7,0.9-1.2,1.5-1.7,2.1c1.8,0.6,3.2-0.6,4.6-1.5c1.2-0.8,2.5-1.2,4.1-0.9c-1.5,1-3.6,1.2-3.9,3.5c1.1-0.8,2.1-2,4-2.1
		c-1.3,1-2.5,1.7-3.6,2.6c0.1,0.1,0.1,0.1,0.1,0.2c0.8-0.4,1.5-0.8,2.2-1.3c0,0.1,0.1,0.1,0.1,0.2c-0.7,0.6-1.4,1.2-2.1,1.7
		c0.1,0.1,0.1,0.2,0.2,0.2c0.8-0.6,1.5-1.1,2.4-1.8c-0.6,1.4-2.1,2.2-2.2,3.6c0.1,0.1,0.2,0.1,0.3,0.2c0.5-0.3,1-0.7,1.5-1
		c0.1,0,0.1,0.1,0.2,0.1c-0.3,0.7-0.7,1.4-1.1,2.2c0.5-0.1,0.8-0.1,1.3-0.2c-0.7,0.5-1.1,0.9-1.8,1.5c0.6-0.1,1-0.2,1.6-0.3
		c-0.8,0.8-1.4,1.5-2.1,2.2l0.1,0.2c0.5-0.2,1.1-0.4,1.5-0.6c0.3,0.4,0.6,0.8,0.8,1.1c-0.7,0.9-1.3,1.9-2,2.8c0.2,0,0.3,0.1,0.5,0.2
		c-0.8,0.7-1.6,1.3-2.3,1.9l0.1,0.2c0.4-0.1,0.8-0.3,1.4-0.4c-1.5,1.2-2.7,2.3-3.9,3.4l0.2,0.3c0.5-0.2,0.9-0.4,1.4-0.7
		c-1.8,1.9-3.8,3.6-4.3,6.5c0.3-0.2,0.4-0.3,0.7-0.4c-0.8,1.3-1.4,2.5-2.2,3.8l0.3,0.2c0.4-0.5,0.8-1,1.2-1.5h0.1
		c-0.1,0.2-0.1,0.4-0.2,0.7c-0.3,1.1-0.7,2.3-1.1,3.4c-0.2,0.7-0.5,1.3-0.9,1.8c-0.9,1.2-1.9,2.4-3.1,3.5c0.5-0.9,1.1-1.8,1.6-2.7
		c-0.1,0-0.1-0.1-0.2-0.1c-0.9,1-1.7,2.1-2.6,3.1l-0.2-0.1c0.6-1.1,1.2-2.3,1.9-3.4l-0.1-0.1c-0.4,0.3-0.8,0.6-1.4,1
		c0.1-0.3,0.2-0.5,0.3-1c-0.8,0.9-1.5,1.6-2.2,2.4c-0.1-1.5,1.3-2.3,1.6-3.6c-0.1,0-0.2-0.1-0.2,0c-1.1,0.9-2.1,1.8-3.2,2.7
		l-0.3-0.2l2.2-3.7c-1.4,0.2-1.9,1.7-3.5,2c0.4-0.7,0.7-1.1,0.9-1.5l-0.1-0.1c-0.3,0.2-0.5,0.4-1.1,0.8c0.4-1.2,0.8-2.2,1.1-3.2
		c-1,1.2-1.9,2.2-2.8,3.4c-0.1-0.1-0.2-0.1-0.3-0.2c0.4-0.9,0.8-1.7,1.2-2.6c1.2-2.1,1.2-4.4,1.4-6.6
		C118.4,120,118.5,119.2,118.2,118.7z M140.9,86.4c2.8-0.8,6.9-0.4,9.3,0.8c-1.5,0.1-3,0.2-4.4,0.3v0.2c1.2,0.1,2.3,0.2,3.5,0.3
		c-1.7,0.2-3.3,0.4-5,0.6V89c0.6,0,1.1,0.1,1.6,0.1c3.2,0.2,5.9,1.2,8.2,3.6c-1.8-0.3-3.4-0.5-5.1-0.8v-0.1h3.6
		c-0.8-1-1.8-1.1-2.7-1c-1,0.1-1.9,0.2-2.9,0.5c-0.9,0.3-1.8,0.7-2.8,0.9c1.1-0.5,2.2-1,3.3-1.5c0-0.1,0-0.2,0-0.2
		c-1.4,0.4-2.8,0.8-4.5,1.2c0.6-0.5,1-0.9,1.3-1.2l-0.1-0.2c-0.9,0.3-1.9,0.6-2.8,0.9v-0.1c0.8-0.5,1.5-1,2.3-1.5v-0.2
		c-1.1,0.1-2.2,0.2-3.7,0.3c0.8-0.6,1.2-1,1.7-1.4c0-0.1,0-0.1-0.1-0.2l-2.2,0.4c0-0.1-0.1-0.2-0.1-0.3c1.4-0.6,2.8-1.2,4.2-1.7
		L140.9,86.4z M151.8,112.2c-0.1,0.1-0.1,0.1-0.2,0.2c-0.3-0.4-0.7-0.7-0.9-1.1c-0.5-1.1-0.9-2.3-1.3-3.6c0.6,1,1.2,1.9,1.8,2.9
		c0.4-1.7-0.7-2.7-1.4-4l1.6,1.8c0.1,0,0.1-0.1,0.2-0.1l-1.3-2c2.3,1.5,1.7,3.9,1.9,6.1c-0.2-1-0.3-1.9-0.5-2.9c-0.1,0-0.2,0-0.3,0
		L151.8,112.2z M151,104.9c1.7,0.6,2.4,1.6,2.7,3c0.5-1.4-0.5-2.3-1.2-3.5c2.7,2.1,2.9,6.7,0.8,8.3C153.1,109.9,153.6,107,151,104.9
		z M146.6,108.4c0.1-0.1,0.2-0.1,0.3-0.2c0.7,1,1.4,1.9,2.1,2.9c-0.1,0.1-0.2,0.1-0.3,0.2L146.6,108.4z M148.5,112.3
		c-0.3-0.2-0.5-0.3-0.6-0.4c-0.2,0.2-0.3,0.4-0.6,0.7c-0.5-1.1-1-2.1-1.5-3.1C146.7,109.4,147.8,110.5,148.5,112.3z M140.9,119.8
		c-0.1-0.9,0.6-1.1,2.1-0.6c0.1-0.2,0.1-0.4,0.2-0.6c1.4,0.6,2.9,1.2,4.3,1.8c0,0,0-0.2,0.1-0.2c0.8,0.6,1.5,1.1,2.4,1.8
		c0.1-0.2,0.2-0.3,0.3-0.5c0.8,0.5,0.6,1.8,1.9,1.8c0.2,0.6,0.3,1.2,0.7,2.2c0.3-0.6,0.5-1,0.8-1.7c-0.2,2-0.4,3.8-0.7,5.5
		c-0.2,0.9-0.7,1.3-1.7,1.4c-2,0.2-4.1,0.7-6.1,1.1c-0.6,0.1-1.2,0.3-1.7,0.4c0,0.6,0.1,1.1,0.1,1.8c0.3-0.2,0.6-0.3,0.8-0.5
		c-0.1,0.4-0.1,0.8-0.2,1.4c0.5-0.2,0.9-0.4,1.6-0.7c-1,1.1-1.8,2.1-2.7,3.1c0-1.1-0.7-1.3-1.4-1.7c-0.5,0.4-1,0.8-1.7,1.4
		c0.1-0.4,0.2-0.7,0.3-1.1c-0.3,0.1-0.5,0.2-0.8,0.3c0.2-0.5,0.4-1,0.6-1.5l-0.1-0.1l-1,1.2c-0.1-0.1-0.1-0.1-0.2-0.1
		c0.3-0.8,0.6-1.5,0.9-2.4c-0.9,0.7-1.6,1.4-2.3,2c-0.1-0.1-0.2-0.1-0.2-0.2c0.5-0.8,1-1.5,1.5-2.2l-0.1-0.1
		c-0.4,0.3-0.8,0.5-1.3,0.9c0.1-0.3,0.2-0.6,0.3-0.9c-0.3,0-0.6,0.1-1,0.2c0.4-0.3,0.8-0.6,1.1-0.8c0,0,0-0.1-0.1-0.2
		c-1.1,0.2-2.2,0.4-3.5,0.6c0.3-0.4,0.8-0.8,1.1-1.3c0.3-0.5,0.5-1,0.7-1.6c1.2,0.4,2.4,1,3.6,1.2c1.1,0.1,2.4,0,3.3-0.5
		c2.7-1.4,5.5-2.4,8.5-2.8c1-0.1,1.2-0.5,0.5-1.2c-1.4-1.5-2.9-2.8-4.4-4.1c-0.5-0.5-1.1-0.8-1.7-1.2c-1.9-1.3-4.2-1.2-5.9,0.4
		c-0.6,0.6-1.3,1.2-1.7,2c-0.5,1-1,0.8-1.7,0.2c0.9-1,1.2-2.6,2.8-3c-0.1-0.5-0.3-0.7-0.4-0.8C139.5,119.9,140.2,119.8,140.9,119.8z
		 M134.5,148c0,0.1,0.1,0.2,0.1,0.3c-1.1,0.6-2.2,1.3-3.5,2c0.3,0.1,0.5,0.1,0.8,0.2c-0.5,0.5-0.9,1-1.4,1.5c0,0.1,0.1,0.2,0.1,0.2
		c0.6-0.2,1.1-0.4,1.7-0.7l0.1,0.1c-0.8,0.7-1.7,1.3-2.8,2.2c0.5-0.1,0.7-0.1,0.9-0.1c-0.6,1.1-1.2,2.2-1.8,3.1
		c0.6-0.1,1.3-0.3,2.2-0.5c-0.3,0.3-0.4,0.6-0.7,0.9c0.5-0.2,0.8-0.3,1.3-0.4c-0.5,0.6-0.9,1-1.3,1.5c0,0,0.1,0.1,0.1,0.2
		c0.4-0.3,0.8-0.5,1.2-0.7l3.9-0.5c-2,1.5-3.9,2.9-5.9,4.3c-0.2,0.5-0.1,0.6,0,0.7c0.7-0.4,1.4-0.8,2.1-1.2l0.1,0.1
		c-0.2,0.2-0.3,0.4-0.4,0.6c-1.4,2.1-3.3,3.7-5,5.4c-0.3,0.3-0.5,0.9-0.4,1.2c0.3,0.6-0.2,0.7-0.5,0.9c-0.6,0.5-1.2,0.9-1.7,1.4
		c0,0.1,0.1,0.2,0.1,0.3l1.7-0.5c-1,1.1-1.9,2.2-2.9,3.3l0.3,0.3c0.6-0.5,1.2-1,1.8-1.5l0.1,0.1c-0.7,1-1.3,2.1-1.9,3.1
		c0.1,0.1,0.1,0.1,0.2,0.2c0.3-0.2,0.5-0.4,0.8-0.7l0.1,0.1c-0.4,0.7-0.8,1.4-1.3,2.2c0.4-0.2,0.7-0.3,1.2-0.5
		c-0.8,1.4-1.5,2.7-2.2,4c0,0.1,0.1,0.1,0.1,0.1c0.3-0.3,0.6-0.5,0.9-0.8c0.1,0,0.1,0.1,0.2,0.1c-0.8,1.4-1.5,2.9-2.3,4.3l-0.3-0.1
		c0.8-6,1.1-12,2.7-17.8c0.1,0,0.2,0,0.3-0.1c0.1,0.3,0.2,0.5,0.3,0.7c0,0,0.1,0,0.2-0.1c1.2-3.5,3.5-6.4,6-9
		c0.1-0.1-0.1-0.3-0.2-0.6c-1.8,0.5-2.8,1.9-4.2,3.3c-0.1-0.6-0.2-1-0.3-1.5c-0.1,0.1-0.3,0.2-0.6,0.4c-0.2-1.1,0.6-1.7,1.1-2.4
		c0.5-0.7,1-1.4,1.4-2.2c-0.3,0.1-0.5,0.3-0.9,0.5c0.2-0.4,0.3-0.7,0.4-0.9c-0.5-0.2-0.9-0.4-1.4-0.7c0.5-0.4,0.8-0.7,1.2-1
		c-0.3-0.1-0.7-0.2-1.1-0.3c0.6-0.8,1.1-1.6,1.6-2.3c-0.3-0.1-0.4-0.2-0.7-0.3c0.4-0.4,0.7-0.8,1.1-1.2c-0.1-0.1-0.2-0.2-0.2-0.3
		c-0.8,0.6-1.8,1.1-2.6,1.8c-0.6,0.6-1.6,1-1.7,2.2c0,0.6-1,1.1-1.8,1.8c0.3-0.9,0.5-1.5,0.7-2.1c-0.2,0-0.4,0-0.6,0.1l-0.2-0.2
		c1.1-1,2.2-2,3.4-3l-0.1-0.1c-1.3,0.6-2.6,1.1-3.8,1.7c-0.1-0.1-0.2-0.3-0.3-0.4l1.6-1.2c-0.1-0.1-0.2-0.2-0.3-0.3
		c-0.4,0.1-0.8,0.1-1.1,0.2c0.8-0.8,1.5-1.6,2.4-2.5H121c0.5-0.3,0.7-0.4,1-0.5c0.6-0.2,0.9-0.5,0.8-1.1c0-0.2,0-0.5,0.2-0.7
		c0.7-0.9,1.3-1.7,2-2.6c-0.2-0.1-0.3-0.2-0.4-0.3c0.2-0.1,0.4-0.3,0.6-0.4c-0.2-0.1-0.3-0.3-0.4-0.3c0.1-0.1,0.1-0.2,0.2-0.2
		c0.3-0.2,0.8-0.3,1.1-0.6c0.7-0.9,1.4-1.9,2.1-2.9c0.1-0.2,0.2-0.3,0.2-0.5c0-2.1,0-2.1,2-2.6c0.3-0.1,0.6-0.2,1.1-0.3
		c-0.3,0.4-0.5,0.6-0.8,0.8c0.4,0.2,0.7,0.4,1,0.6c-0.4,0.3-0.8,0.5-1.3,0.9c0.8-0.1,1.2-0.1,1.8-0.2c-0.2,0.2-0.3,0.3-0.5,0.6
		c0.6,0,1.1,0.1,1.7,0.1l0.1,0.2c-1.3,0.6-2.6,1.2-4.2,1.9c0.9,0.1,1.7,0.2,2.6,0.3c-0.7,0.4-1.2,0.8-1.9,1.2
		c0.7,0.1,1.2,0.1,1.9,0.1c-0.3,0.3-0.5,0.4-0.9,0.8c0.7,0,1.2,0.1,1.4,0.1c0.3,0.4,0.5,0.7,0.7,1c-0.3,0.1-0.7,0.2-1.4,0.4
		c1.1,0.2,1.9,0.3,2.9,0.4c-0.8,0.2-1.3,0.4-1.9,0.6v0.3h2.7c-0.9,0.6-1.4,1.1-1.5,1.6c0.6-0.1,1.2-0.2,2-0.3
		c-0.7,1.6-2.3,1.8-3.3,3C133.4,148.2,133.9,148.1,134.5,148z M118.9,166.7l-0.1-0.1c0.4-0.7,0.9-1.4,1.5-2.4
		c-0.5,0.3-0.8,0.4-1.3,0.7c0.9-2.1,2.1-3.8,3.6-5.1c0.1,0,0.2,0.1,0.3,0.1c-0.1,1.5-0.1,2.9-0.2,4.5c0.1,0,0.3,0.1,0.5,0.1
		c-0.1,0.1-0.2,0.2-0.3,0.3c-1.3,0.8-1.7,2.2-2,3.6c-0.1,0.8-0.2,1.5-0.4,2.2c-0.2,0.6-0.5,1-0.8,1.6l-0.4-0.1c0-1.2,0-2.5,0-3.8
		c0-0.7,0-1.3,0.1-2C119.3,166.5,119.1,166.6,118.9,166.7z M122,185.7c-0.8,2.1-1.6,4-2.3,5.9C119.7,189.4,120.2,187.3,122,185.7z
		 M120.5,187.1c0-1.6,0.9-3.2,2.2-4.5c0.1,0.1,0.2,0.1,0.3,0.2C122.2,184.1,121.4,185.5,120.5,187.1z M122.1,186.4
		c0.1,0,0.3,0.1,0.4,0.1c-0.7,2.1-1.4,4.2-2.2,6.3c-0.1,0-0.3-0.1-0.4-0.1C120.7,190.6,121.4,188.5,122.1,186.4z M122.6,192.1
		l-0.8,1.2c0-0.1-0.1-0.1-0.1-0.2c0.3-0.7,0.7-1.5,1.1-2.4c0.4,1.9-0.3,4.7-1.5,6.4l1.5-4.9L122.6,192.1z M125.6,203.2l0.3,0.3
		c-0.9,1-1.9,2.1-2.8,3.1c-0.1-0.1-0.1-0.2-0.2-0.3L125.6,203.2z M124.7,206.5c0.6-0.5,1.1-0.9,1.7-1.4c-0.3,1.7-1.3,2.6-2.8,3.2
		c0.6-0.6,1.2-1.2,2-1.9C125.3,206.4,125,206.4,124.7,206.5z M123.5,204.5c-0.1-0.1-0.2-0.1-0.3-0.2c0.8-1.2,1.6-2.4,2.4-3.6
		c0.1,0.1,0.2,0.1,0.3,0.2C125.1,202.2,124.3,203.3,123.5,204.5z M123.2,201.7c0.6-0.9,1.1-1.7,1.6-2.7
		C124.8,200.6,124,201.8,123.2,201.7z M143.2,124.3c-0.6,0-1.2-0.2-1.7-0.3c-0.1,0-0.2-0.7-0.1-0.7c0.5-0.3,1.1-0.8,1.7-0.9
		c0.9-0.2,2.6,1.4,2.9,2.3c0.3,0.9-0.2,2.2-1.2,2.8c-1.8,1.3-3.2,1.3-4.6-0.2c-0.4-0.4-0.4-1.1-0.7-1.8c1.5,0.1,1.7,2.1,3.2,1.1
		c1-0.6,2.1-1.1,2.2-2.7C144.2,124,143.7,124.2,143.2,124.3z M141.7,129.8c-1,0-2,0-3.1,0c-0.2,0-0.4-0.3-0.5-0.5
		c-0.1-0.6-0.2-1.3-0.2-1.8C139.3,128.3,140.5,129.1,141.7,129.8z M146.1,127.7c0.4-1.1,0.8-2,1.2-3.1c0.8,0.7,1.6,1.2,2.5,2
		C148.5,127,147.4,127.4,146.1,127.7z M154.8,112.6c0-0.3,0-0.5,0-0.8c0.3-1.4,0.7-2.7,1-4.1c0.1-0.2,0-0.5,0.1-0.7
		c0-0.5,0.1-0.9,0.1-1.4h0.3c0.8,2.6-0.7,4.7-1.2,7H154.8z M209.5,192.4v4C208.6,195,209.5,193.7,209.5,192.4z M206.7,201.2
		c-0.1,0-0.2,0.1-0.3,0.1c-0.2-0.2-0.3-0.4-0.6-0.7c-0.1,1.1-0.2,2.2-0.3,3.2h-0.3c-0.1-2-0.2-4.1-0.3-6.1h0.2
		c0,0.3,0.1,0.6,0.1,1.1c0.1-0.3,0.2-0.4,0.3-0.7C206,199.3,206.4,200.3,206.7,201.2z M204.6,202.9c-1.3-1-0.8-2.3-0.7-3.5
		C204.1,200.5,204.4,201.7,204.6,202.9z M196.1,197.6c-0.1,0.3-0.2,0.5-0.3,0.8c-0.2,0.3-0.4,0.5-0.6,0.8c-0.5,1.1-1.3,2-2.4,2.4
		c-0.1-0.1-0.2-0.1-0.3-0.2c0.2-0.3,0.3-0.5,0.4-0.8c0.8-0.9,1.5-1.9,2.2-2.8c0.2-0.2,0.4-0.3,0.6-0.5
		C195.9,197.3,196.1,197.5,196.1,197.6z M190.5,198.3c-2.4,2.6-5,4.8-8.9,4.7c-2.7-0.1-5.4,0.3-8,0c-4.1-0.4-7.2-2.8-10.1-5.4
		c-0.5-0.5-1.1-0.8-1.7-1.2c-0.8-0.7-1.7-1.4-2.3-2.2c-0.8-1.1-1.7-2-3.2-1.7c1.4-1.4,3-2.2,4.9-2.4c2.4-0.3,4.9-0.5,7.4-0.7
		c0.4,0,0.8,0.3,1.2,0.4c0.7,0.2,1.5,0.3,2.2,0.4c0.9,0,1.4,0.4,1.9,1.1c0.4,0.7,1.2,1.1,2.1,1.9c-1-0.4-1.7-0.8-2.4-1.1
		c0,0.1-0.1,0.2-0.1,0.3c0.7,0.4,1.5,0.8,2.2,1.2c0.4,0.3,0.8,0.7,1,1.2c0.4,1.2,0.8,2.4,1.2,3.6c0.1,0,0.2-0.1,0.3-0.1
		c0-1.9,0-3.9,0-5.8c0-0.5,0.2-1.1,0.6-1.6c2.2-2.4,5-2.8,8-2.5c0.5,0.1,1,0.2,1.4,0.2c0,0,0.1,0.1,0.1,0.2h-3.1v0.1
		c1.4,0.3,2.8,0.5,4.1,0.9c0.4,0.1,1,0.6,1.2,1c0.9,2.2,0.9,4.5,0.5,6.8C190.9,197.8,190.7,198.1,190.5,198.3z M190.8,202.3
		c-0.7,0.3-1.3,0.7-2,1c-0.1-0.1-0.1-0.3-0.2-0.3c0.6-0.4,1.2-0.8,1.9-1.1C190.6,202,190.7,202.1,190.8,202.3z M168.5,203.4
		c0,0.1,0,0.1-0.1,0.2c-1.1-0.3-2.2-0.7-3.4-1c0.1-0.2,0.1-0.3,0.2-0.5C166.4,202.6,167.4,203,168.5,203.4z M158.5,201
		c-0.8-0.2-1.4-0.5-2.2-0.8c-0.5-0.1-0.9-0.1-1.4-0.2c-0.5,0-0.9,0-1.4,0c0-0.1-0.1-0.2-0.1-0.3c0.2-0.2,0.5-0.6,0.7-0.5
		c1.6,0.3,3.3-0.2,4.7,0.8c0.2,0.1,0.3,0.4,0.5,0.7C159,200.8,158.7,201,158.5,201z M158.6,204c-0.4,0.8-0.8,1.4-1.2,2.3v-2.5
		C157.6,203.9,157.9,203.9,158.6,204z M166.4,140.9c0.8,2.6,2.9,4.5,5.6,4.6c1.9,0.1,3.9,0.1,5.8,0c1.7-0.1,2.5-0.9,2.9-2.5
		c0.3-1,0.7-2.1,1.2-3c0.1-0.3,0.5-0.4,0.8-0.5c0.1,0.3,0.3,0.5,0.3,0.8c0.2,2.3-0.4,4.6-2,6.2c-1.6,1.5-3.6,2.9-5.9,2.4
		c-2.7-0.6-5.4-1.3-7.5-3.2c-1.6-1.4-2.7-3-2.7-5.2c0-1.4,0.6-2.5,1.5-3.5c0.5,1.7,0.9,3.3,1.4,4.8l-0.1,0.1
		c-0.4-0.8-0.9-1.6-1.3-2.4c-0.1,0-0.1,0-0.2,0C166.3,140,166.3,140.5,166.4,140.9z M181.6,134c-2.2-0.7-3.9,0.1-5.6,1.2
		c-0.2,0.1-0.3,0.2-0.6,0.3c-0.4-0.5-0.8-1-1.2-1.5c-1.6,1.3-3.2,2.5-3.8,4.8c0.3-0.3,0.6-0.5,0.8-0.7c0.9-0.8,1.1-0.8,1.9,0.2
		c0.1,0.1,0.3,0.2,0.4,0.3c1.5,0.5,1.8,2.1,0.6,3.5c-0.1-0.3-0.2-0.6-0.3-0.9c-0.2-0.4-0.4-0.9-0.8-1.3c-0.8-0.7-1.3-0.5-1.8,0.4
		c-0.2,0.4-0.6,0.8-0.8,1.2c-0.3-0.4-0.8-0.8-1-1.2c-1.2-2.2-0.6-4.9,1.5-6.3c1.4-1,3-2.1,4.6-2.4c2.6-0.6,5.2-0.5,7.8-0.7
		c0.7,0,1,0.5,0.9,1.2C184,133.3,182.8,134.4,181.6,134z M184.3,145c0.1,0,0.3,0,0.3,0c0.1,3.6,0,7.2-0.8,10.7c-0.1,0-0.2,0-0.3-0.1
		C183.8,152.1,184.1,148.6,184.3,145z M188.8,144.9c1,1.3,2.2,2.5,4,2.9c0.6,0.1,1,0.5,1.6,0.8c-0.3,0.5-0.6,0.9-0.9,1.4
		c-1.1-1-2.1-0.4-3.1-0.5c-1-0.1-2.1-0.3-3.1-0.5v-0.4c0.7-0.2,1.3-0.4,2.2-0.7c-0.4-0.5-0.8-1-1.2-1.4c-2.3-2.6-2.3-5.6-1.4-8.7
		c0.4-1.5,2.5-3.4,4-2.9c-0.1,0.1-0.1,0.2-0.2,0.2c-2.1,0.5-3,1.7-3.2,3.8C187.1,141.1,187.5,143.1,188.8,144.9z M193.7,132.7
		c2.4,0.5,5,4.1,5.4,6.8c0.1,0.7,0.3,1.5-0.6,1.9c0.1-2.3-0.2-3.5-1.4-5c-0.2,0.3-0.4,0.7-0.5,0.9c-1.4-1.4-2.8-2.8-4.4-4.4
		c0.6,0.2,1.1,0.3,1.6,0.4c0.5,0.2,1,0.5,1.5,0.7c0.1-0.1,0.1-0.2,0.2-0.2C194.8,133.5,194.3,133.1,193.7,132.7z M196.3,141.2
		c-0.3,0.7-1,0.7-1.7,0.5c-0.3-0.1-0.7-0.3-1.3-0.5c0.2-0.5,0.4-1.1,0.8-1.6c0.4-0.6,1.1-0.7,1.7-0.2
		C196.4,139.9,196.7,140.5,196.3,141.2z M189.3,133.9c-0.3,0.2-0.9,0.2-1.2,0c-0.9-0.6-1.8-1.3-2.6-2c0.5-0.7,0.9-0.7,1.4-0.3
		c0.6,0.5,1.1,0.7,1.9,0.4c0.3-0.1,0.8,0.5,1.1,0.9C190,133.2,189.6,133.8,189.3,133.9z M141,201c1.4,1,2.7,2.1,4.1,3.2
		c-2.1,0.7-4,0.1-4.8-1.6c-1.7-3.2-2.7-6.7-3.8-10.1c2.1,0,1.9,1.5,2.2,2.7c0.3,1.4,0.6,2.8,0.8,4.2c0.3,1.7,1,3.1,2.7,3.8
		C141.8,202.5,141.4,201.7,141,201z"/>
	<path class="st0" d="M118.4,226.6c-0.5-2.1,0.2-4,1.2-5.9c0.2-0.4,0.5-0.9,0.7-1.3c-3.4,4.1-3.2,9.3,0.7,12.6
		c-0.8-1.4-1.5-2.9-2.2-4.3C118.7,227.3,118.5,227,118.4,226.6z"/>
	<path class="st0" d="M170.6,110.5c-0.5,4.3,0.5,8.3,2.2,12.2C171.8,118.7,170.8,114.7,170.6,110.5z"/>
	<path class="st0" d="M170.3,154.7c-0.1-0.1-0.2-0.1-0.2-0.2c-1.1,1.4-2.9,2.4-3.1,4.7C168.1,157.7,169.2,156.2,170.3,154.7z"/>
	<path class="st0" d="M193,159.8c-0.2-0.2-0.4-0.5-0.7-1c0.5,0.3,0.8,0.5,1.1,0.7c0.1-0.1,0.1-0.2,0.2-0.2c-1.5-1-3-2.1-4.6-3.1
		l-0.1,0.1c1.3,1.2,2.7,2.5,4,3.7C192.9,159.9,193,159.8,193,159.8z"/>
	<path class="st0" d="M126.3,212.7c1.5-0.4,2.6-1.4,3.5-3c-0.9,0.5-1.5,0.9-2.2,1.3C127.2,211.5,126.8,212.1,126.3,212.7z"/>
	<path class="st0" d="M188.6,164c0.8,1.5,1.6,3,2.4,4.5c0.1-0.1,0.2-0.1,0.3-0.2c-0.8-1.5-1.5-3-2.3-4.5
		C188.9,163.9,188.8,163.9,188.6,164z"/>
	<path class="st0" d="M168.9,98.5c-0.7-1.2-1.3-2.5-2-3.7c-0.1,0.1-0.2,0.1-0.4,0.2c0.7,1.2,1.3,2.5,2,3.8
		C168.7,98.7,168.8,98.6,168.9,98.5z"/>
	<path class="st0" d="M168.7,150.8c-0.1-0.1-0.2-0.2-0.3-0.2c-0.9,1.1-1.9,2.2-2.8,3.3c0.1,0.1,0.2,0.2,0.3,0.2
		C166.9,153,167.8,151.9,168.7,150.8z"/>
	<path class="st0" d="M186.7,161.8c0.6,1.4,1.2,2.8,1.8,4.1c0.1,0,0.2-0.1,0.3-0.1c-0.6-1.4-1.2-2.8-1.8-4.2
		C186.9,161.7,186.8,161.8,186.7,161.8z"/>
	<path class="st0" d="M198.2,148c0.7,0.9,1.4,1.8,2.1,2.7c0.1-0.1,0.2-0.2,0.3-0.3c-0.7-0.9-1.4-1.7-2.1-2.6
		C198.4,147.8,198.3,147.9,198.2,148z"/>
	<path class="st0" d="M205.7,221.9c-0.3-0.7-0.7-1.4-1.1-2.3C204,221,204.9,221.4,205.7,221.9z"/>
	<path class="st0" d="M198.7,163.1c0.1-0.1,0.1-0.2,0.2-0.2c-0.9-0.8-1.8-1.7-2.7-2.5C197,161.3,197.9,162.2,198.7,163.1z"/>
	<path class="st0" d="M194.6,172.7c0.2,1.1,0.4,2.2,0.5,3.2c0.1,0,0.3,0,0.4,0c-0.2-1.1-0.4-2.2-0.5-3.3
		C194.8,172.6,194.7,172.7,194.6,172.7z"/>
	<path class="st0" d="M197.6,148.7c0.7,0.9,1.5,1.7,2.2,2.5c0.1-0.1,0.2-0.1,0.3-0.2c-0.7-0.9-1.4-1.7-2.2-2.6
		C197.8,148.5,197.7,148.6,197.6,148.7z"/>
	<path class="st0" d="M195.6,165.5c-0.9-1-1.7-2.1-2.6-3.1c-0.1,0.1-0.2,0.1-0.2,0.2c0.9,1,1.7,2.1,2.6,3.1
		C195.4,165.6,195.5,165.6,195.6,165.5z"/>
	<path class="st0" d="M169.6,159c0.7-0.9,1.5-1.9,2.2-2.8c-0.1-0.1-0.2-0.1-0.3-0.2c-0.7,0.9-1.5,1.9-2.2,2.8L169.6,159z"/>
	<path class="st0" d="M194.6,167.3c0.4,1,0.7,2,1.1,2.9c0.1,0,0.2-0.1,0.3-0.1c-0.4-1-0.7-1.9-1.1-2.9
		C194.8,167.2,194.7,167.2,194.6,167.3z"/>
	<path class="st0" d="M181.9,231.4c-0.1,0-0.1,0-0.2,0v5c0.1,0,0.1,0,0.2,0V231.4z"/>
	<path class="st0" d="M107.8,163.4c-0.2-0.8-0.6-1.5-0.8-2.3c0,0-0.1,0-0.1,0.1c0.3,1.3,0.5,2.6,0.8,3.9c-0.1,0-0.1,0.1-0.2,0.1
		c-0.5-0.7-0.9-1.4-1.5-2.2c0,0.6,0,1-0.1,1.5c-0.4-0.7-0.6-1.1-0.9-1.6c-0.1,0-0.1,0.1-0.2,0.1c0.3,1.3,0.6,2.7,0.9,4.1h-0.1
		c-0.2-0.4-0.5-0.8-0.7-1.2l-0.1,0.1c0,0.5,0.1,1,0.1,1.7c-0.5-0.6-0.9-1-1.2-1.4c-0.1,0.1-0.1,0.1-0.2,0.2c0.4,1.3,0.7,2.5,1.1,4
		c-0.4-0.1-0.6-0.2-0.8-0.2c-0.3,0.8-0.6,1.7-0.9,2.7c-0.4-1.4-0.4-2.7-1.6-3.5c0,1.1,0.1,2.1,0.1,3.1c-0.1,0-0.1,0-0.2,0
		c-0.5-1.8-0.8-3-1.1-4.1c-0.1,0-0.1,0-0.2,0.1c-0.1,0.3-0.1,0.7-0.2,1.1c-0.2-0.8-0.3-1.5-0.4-2.3c-0.5,1.5-0.8,2.8,0,4.1
		c0.4,0.6,0.6,1.3,0.7,2.1c0.8,4,0.2,7.8-1.6,11.5c-0.2,0.5-0.4,0.9-0.7,1.5c1.2-0.5,2.2-0.9,3.2-1.3c0,0.3-0.1,0.4-0.1,0.5
		c0.7-0.1,1.4,0,1.7-0.3c1.9-2.1,4-4.1,5.6-6.4c1-1.4,1.2-3.4,1.4-5.2c0.1-1.3,0.3-2.6,0.1-3.8C109.2,167.8,108.4,165.6,107.8,163.4
		z"/>
	<path class="st0" d="M126.1,122c-0.5,1.2-0.9,2.1-1.3,3.1c0.2,0,0.3,0,0.4-0.1c2.5-3.8,5.1-7.6,7.6-11.5c0.1-0.1-0.1-0.4-0.2-0.8
		c0.2-0.3,0.5-0.9,0.9-1.6c-0.7,0.3-1.1,0.6-1.6,0.8c-0.1-0.1-0.2-0.1-0.2-0.2c0.8-1.2,1.5-2.3,2.3-3.5c-2.9,2.4-5.3,5.1-7.2,8.4
		c0.2-0.1,0.3-0.2,0.5-0.2c-0.9,2.2-1.7,4.4-2.6,6.6c0.1,0.1,0.2,0.1,0.3,0.2C125.2,122.8,125.5,122.5,126.1,122z"/>
	<path class="st0" d="M124.3,111.4c-0.1-0.1-0.2-0.1-0.2-0.2c-0.8,1.2-1.6,2.4-2.5,3.5c0.1,0.1,0.2,0.1,0.3,0.2
		C122.8,113.7,123.5,112.6,124.3,111.4z"/>
	<path class="st0" d="M155.5-0.1C69.7-0.1-0.1,69.7-0.1,155.6c0,85.8,69.8,155.6,155.6,155.6s155.7-69.9,155.6-155.7
		C311.1,69.7,241.3-0.1,155.5-0.1z M155.5,308.1c-84.1,0-152.6-68.4-152.6-152.6S71.3,2.9,155.5,2.9s152.7,68.4,152.6,152.6
		C308.1,239.6,239.6,308.1,155.5,308.1z"/>
	<path class="st0" d="M40.8,116.6c1.4-1.5,2.5-2.8,3.4-3.6c0.9-0.9,1.9-1.5,3-1.9c1.1-0.4,2.3-0.4,3.5,0c1.5,0.6,2.6,1.6,3.3,3
		c0.7,1.5,0.7,3.2,0,5.1c-0.6,1.8-1.8,3.2-3.7,4.2c-1.9,1.1-4,1.5-6.5,1.4l2.7,6.5c2.3-1,4.3-2.5,5.9-4.4c1.6-1.9,2.9-4.1,3.6-6.8
		c0.8-2.2,1.1-4.3,0.9-6.4c-0.2-2.1-0.8-3.9-1.9-5.4s-2.6-2.6-4.5-3.3c-1.8-0.7-3.5-0.7-5.1-0.2c-1.5,0.5-2.9,1.3-4.1,2.4
		c-1.2,1.1-2.6,2.6-4.2,4.5c-1.4,1.6-2.5,2.8-3.4,3.7c-0.8,0.8-1.8,1.5-2.9,1.9c-1,0.4-2.2,0.4-3.3,0c-1.3-0.4-2.3-1.3-2.8-2.6
		c-0.6-1.3-0.5-2.8,0.1-4.5c0.5-1.5,1.5-2.7,3.1-3.6c1.6-0.9,3.4-1.2,5.4-1.1l-1.4-6.4c-1.8,0.5-3.5,1.6-5.2,3.3
		c-1.7,1.7-3,3.9-3.9,6.5c-0.8,2.3-1.2,4.5-1,6.4c0.1,1.9,0.7,3.6,1.7,4.9s2.3,2.3,4,2.9c1.9,0.7,3.6,0.8,5.1,0.3
		c1.6-0.5,2.9-1.3,4.1-2.4S39.2,118.4,40.8,116.6z"/>
	<path class="st0" d="M44.9,97.3c0.8,0.5,1.8,0.8,3.1,0.9l1.2-5.1c-1.1-0.1-2-0.4-2.7-0.9c-1-0.6-1.7-1.5-1.9-2.6
		c-0.3-1.1,0-2.2,0.7-3.3c0.9-1.4,2.2-2.2,3.8-2.3c1.6-0.1,3.4,0.5,5.3,1.7l1,0.7l-1.2,3l-0.3,0.9c-0.8,2.4-1.4,4.4-1.7,6.1
		c-0.3,1.7-0.2,3.2,0.2,4.5c0.5,1.3,1.3,2.4,2.7,3.3c1.7,1.1,3.4,1.4,5.2,1s3.3-1.5,4.4-3.2c1-1.5,1.5-3.1,1.5-4.8
		c0-1.6-0.6-3.2-1.6-4.9l4.4,2.9l0.7-1l2.5-8l-1.4-0.9l-0.3,0.5c-0.7,1.1-1.3,1.6-2,1.7S67,87.3,66,86.6l-8.3-5.4
		c-2.5-1.7-5-2.3-7.4-1.8c-2.4,0.5-4.4,2-6.1,4.7c-1.1,1.6-1.8,3.3-2.1,5.1c-0.3,1.8-0.2,3.4,0.3,4.8C42.9,95.4,43.7,96.5,44.9,97.3
		z M63.1,91.3c0.6,1.2,1,2.3,1,3.5c0,1.2-0.3,2.2-0.9,3.2c-0.7,1-1.5,1.5-2.5,1.7c-1.1,0.1-2.1-0.1-3.1-0.8c-0.9-0.5-1.5-1.2-1.9-2
		c-0.4-0.8-0.6-1.7-0.5-2.8c0.1-1.1,0.4-2.5,1-4.1l0.9-2.6L63.1,91.3z"/>
	<path class="st0" d="M58.8,69.6c0.8-0.6,1.6-0.9,2.2-0.8c0.6,0.1,1.2,0.5,1.9,1.2l9.9,10.9c0.6,0.8,0.9,1.4,0.8,2.1
		c-0.1,0.7-0.5,1.5-1.2,2.5l1.1,1.2l9.2-8.4l-1.1-1.2c-1.1,0.6-1.9,0.9-2.6,1c-0.7,0.1-1.4-0.3-2-1l-9.4-10.3c-0.1-1.6,0-2.9,0.3-4
		c0.3-1.2,0.9-2.2,1.7-2.9c1-0.9,2.1-1.3,3.3-1.2c1.1,0.2,2.3,0.9,3.5,2.3l8.4,9.2c0.7,0.8,1,1.5,0.9,2.1c-0.1,0.6-0.4,1.4-1.1,2.3
		l1.1,1.2l9-8.2l-1.1-1.2c-1.1,0.6-1.9,0.9-2.6,1c-0.7,0.1-1.3-0.3-2-1l-8.7-9.6c-1.2-1.4-2.5-2.3-3.8-2.8c-1.4-0.5-2.7-0.6-4-0.3
		s-2.6,1-3.7,2c-1.3,1.2-2.1,2.7-2.5,4.6c-0.3,1.4-0.3,3.1,0,5.1l-3.8-4.2L61.6,62l-4.4,6.8l1,1.1L58.8,69.6z"/>
	<path class="st0" d="M94.1,32.6c0.9,0.2,1.6,1,2.1,2.2l8.5,21.3c0.4,1.1,0.4,2-0.1,2.8c-0.5,0.7-1.5,1.5-3,2.3l0.6,1.5l15.5-6.2
		c2.5-1,4.5-2.2,6-3.7s2.4-3.1,2.8-4.7c0.4-1.6,0.3-3.3-0.4-5c-0.9-2.4-2.5-3.9-4.6-4.6c-2.1-0.7-4.8-0.7-7.9,0.2
		c1.2-0.7,2.3-1.5,3.1-2.6c0.9-1.1,1.4-2.2,1.7-3.5c0.3-1.2,0.1-2.6-0.4-3.9c-1-2.5-2.7-4-5.2-4.5c-2.4-0.5-5.5,0-9.3,1.9l-13.8,5.5
		l0.6,1.5C92,32.5,93.2,32.4,94.1,32.6z M116.5,41.3c1.8,0.7,3,2.1,3.8,4c0.8,2.2,1,4.1,0.3,5.6c-0.7,1.6-2.1,2.7-4.2,3.6l-1.1,0.5
		c-1,0.4-1.8,0.6-2.4,0.7c-0.7,0.1-1.2,0-1.6-0.3c-0.4-0.2-0.7-0.7-1-1.3L106,43.4l4.2-1.8C112.6,40.7,114.7,40.6,116.5,41.3z
		 M103.1,28.2c2.3-0.9,4.2-1.1,5.8-0.5c1.5,0.6,2.6,1.7,3.3,3.3c0.9,2.2,1,4,0.4,5.5c-0.7,1.5-2,2.7-4.2,3.6l-3.2,1.3l-4.8-12.1
		L103.1,28.2z"/>
	<path class="st0" d="M131.6,45.9c1.2,1.8,2.7,3.2,4.6,4.1c1.9,1,4,1.3,6.4,1c2.6-0.3,4.8-1.4,6.5-3.1c1.6-1.7,2.7-3.8,3.1-6.2
		l-1.4-0.4c-0.6,1.4-1.5,2.6-2.7,3.5c-1.2,0.9-2.5,1.5-4.1,1.7c-2.4,0.3-4.5-0.4-6.2-2c-1.7-1.7-2.8-4-3.4-7.1l17-2.2
		c-0.3-2.4-0.9-4.4-1.9-6.2c-0.9-1.8-2.3-3.1-3.9-4c-1.7-0.9-3.6-1.1-5.7-0.8c-2.4,0.3-4.5,1.1-6.2,2.5c-1.7,1.4-2.9,3.2-3.7,5.4
		c-0.8,2.3-1,4.8-0.6,7.7C129.7,42.1,130.4,44.1,131.6,45.9z M135.3,29.1c0.9-1.5,2.2-2.4,4-2.6c1.6-0.2,3,0.3,4,1.6
		c1,1.3,1.7,3.1,2.2,5.6l-11.3,1.4C134.1,32.6,134.5,30.6,135.3,29.1z"/>
	<path class="st0" d="M167.7,48.4c-1.8-0.4-3-0.8-3.6-1.3c-0.6-0.4-0.9-1.2-0.8-2.2l0.9-12c0.7-1.2,1.4-2.2,2.4-2.9
		c1.2-0.8,2.4-1.2,3.7-1.2c0.6,0.1,1.3,0.2,2,0.5c0.7,0.2,1.3,0.6,1.7,1.1l1.2-5.9c-0.3-0.2-0.7-0.3-1.2-0.4c-0.5-0.1-1-0.1-1.5-0.1
		c-1.7-0.1-3.3,0.6-4.8,1.9c-1.2,1.2-2.3,2.8-3.3,5l0.5-7.3l-1.2-0.1l-7.9,1.5l-0.1,1.5l0.6,0.2c1,0.1,1.8,0.5,2.1,1
		s0.5,1.2,0.4,2.2l-1.1,14.5c0,1-0.3,1.7-0.8,2.1c-0.4,0.4-1.4,0.7-2.8,0.8L154,49l13.6,1.1L167.7,48.4z"/>
	<path class="st0" d="M173.9,48.4l-0.5,1.6l11.8,3.7l0.5-1.6c-1.1-0.7-1.8-1.3-2.2-1.8c-0.4-0.5-0.4-1.3,0-2.1l4.2-13.6
		c1.2-0.8,2.4-1.3,3.4-1.6c1.2-0.3,2.3-0.3,3.3,0c1.3,0.5,2.2,1.2,2.7,2.3c0.5,1.1,0.5,2.4,0,4l-3.7,11.9c-0.3,1-0.7,1.6-1.3,1.8
		c-0.6,0.2-1.5,0.3-2.6,0.2l-0.5,1.6l11.5,3.7l0.5-1.6c-1.1-0.7-1.8-1.3-2.2-1.8c-0.3-0.5-0.4-1.3-0.1-2.2l3.9-12.3
		c0.6-1.7,0.7-3.3,0.5-4.7c-0.2-1.4-0.8-2.6-1.7-3.6c-0.9-1-2.1-1.7-3.6-2.2c-1.7-0.5-3.4-0.4-5.2,0.2c-1.3,0.5-2.8,1.4-4.3,2.6
		l1.6-5.2l-1.2-0.4l-8-0.3l-0.4,1.4l0.5,0.3c1,0.4,1.6,0.9,1.8,1.5c0.2,0.6,0.2,1.4-0.1,2.3l-4.4,14c-0.3,0.9-0.8,1.5-1.4,1.7
		C176.1,48.4,175.1,48.5,173.9,48.4z"/>
	<path class="st0" d="M203.3,59.1c0.4,1.8,1.5,3.2,3.3,4.3c1.6,1,3.2,1.5,4.9,1.4c1.7,0,3.3-0.7,5-1.8l0.9-1.5
		c-1.1,0.7-2.3,1.1-3.5,1.2c-1.1,0.1-2.2-0.2-3.2-0.8c-0.9-0.6-1.5-1.4-1.7-2.4s0.1-2.1,0.7-3.1c0.6-0.9,1.2-1.6,2-2
		c0.8-0.5,1.7-0.6,2.8-0.6c1.1,0.1,2.5,0.4,4.1,0.9l2.7,0.8l-7.6,12.2l1,0.6l8.1,2.3l0.9-1.4l-0.5-0.3c-1-0.7-1.6-1.3-1.7-2
		c-0.1-0.6,0.2-1.5,0.8-2.5l5.2-8.4c1.6-2.5,2.1-5,1.6-7.4c-0.5-2.4-2.1-4.4-4.8-5.9c-1.7-1.1-3.4-1.7-5.2-2
		c-1.8-0.2-3.4-0.1-4.8,0.4c-1.4,0.5-2.4,1.4-3.2,2.6c-0.5,0.8-0.8,1.8-0.9,3.1l5.2,1.1c0.1-1.2,0.4-2.1,0.8-2.8
		c0.7-1,1.5-1.6,2.6-1.9c1.1-0.3,2.2-0.1,3.3,0.6c1.5,0.9,2.3,2.2,2.4,3.8c0.1,1.6-0.4,3.4-1.6,5.3l-0.6,1l-3.2-1.1l-0.9-0.3
		c-2.5-0.8-4.5-1.4-6.2-1.6c-1.7-0.3-3.2-0.1-4.5,0.3c-1.4,0.4-2.5,1.3-3.3,2.7C203.2,55.6,202.9,57.3,203.3,59.1z"/>
	<path class="st0" d="M239.3,58.8c-0.1,0.6-0.4,1.3-1.1,2l-10.1,10.5c-0.7,0.7-1.4,1.1-2,1.1c-0.7,0-1.6-0.4-2.8-1.2l-1.2,1.2
		l9.9,9.5l1.2-1.2c-1.1-1.4-1.7-2.5-1.9-3.3c-0.2-0.7,0.1-1.5,0.8-2.2l8.1-8.4c1.3-0.6,2.6-0.9,3.9-0.8c1.4,0.1,2.6,0.6,3.6,1.4
		c0.5,0.5,0.9,1,1.3,1.7c0.4,0.7,0.6,1.4,0.6,2l4.7-3.8c-0.1-0.3-0.3-0.7-0.7-1.1c-0.4-0.4-0.7-0.8-1.1-1.1c-1.4-1.2-3-1.7-5-1.6
		c-1.8,0.1-3.8,0.8-6.1,2l5.5-5.7L246,59l-7-3.9l-1,1.1l0.3,0.5C239,57.5,239.3,58.2,239.3,58.8z"/>
	<path class="st0" d="M246,78.7c-2,1.4-3.6,2.9-4.7,4.7c-1.1,1.8-1.6,3.6-1.6,5.6c0.1,2,0.7,3.9,2,5.7c0.7,1.1,1.7,2,3.1,2.6
		c1.4,0.6,2.9,0.9,4.5,0.8l-3.7,2.5l0.7,1l6.3,5.4l1.4-0.9l-0.6-0.8c-0.5-0.8-0.7-1.5-0.5-2.1c0.2-0.6,0.7-1.2,1.7-1.8l24.5-16.3
		l-0.7-1l-6.1-5.4l-1.2,0.8l0.3,0.6c0.4,0.9,0.6,1.7,0.4,2.3c-0.2,0.6-0.7,1.2-1.5,1.7l-3.9,2.6c0.1-0.9,0-1.8-0.2-2.7
		s-0.7-1.9-1.3-2.8c-1.3-1.9-3-3.4-5-4.3c-2.1-0.9-4.3-1.3-6.7-1C250.8,76.2,248.4,77.1,246,78.7z M255.7,80.3
		c1.6-0.4,3-0.4,4.2-0.1c1.2,0.4,2.1,1,2.8,2c0.7,1.1,1.1,2.1,1,3.2c-0.1,1.1-0.4,2.1-1.1,3.1c-0.7,0.9-1.6,1.9-2.7,2.7l-9.1,6.1
		c-1,0-2-0.2-2.9-0.7c-0.9-0.5-1.7-1.2-2.3-2.1c-0.8-1.2-1.1-2.5-0.9-3.9c0.2-1.4,0.8-2.8,1.9-4.2c1.1-1.4,2.5-2.7,4.2-3.8
		C252.5,81.4,254.1,80.7,255.7,80.3z"/>
	<path class="st0" d="M280.2,111.3c-0.8-2.2-2-4-3.8-5.4c-1.8-1.4-3.8-2.3-6.2-2.6c-2.4-0.3-4.9,0-7.4,0.9c-2.4,0.8-4.3,2-5.8,3.6
		c-1.5,1.6-2.5,3.5-2.9,5.6c-0.4,2.1-0.2,4.4,0.6,6.7c0.8,2.2,2,4,3.8,5.4c1.8,1.5,3.8,2.4,6.2,2.7c2.4,0.3,4.8,0,7.4-0.9
		c2.4-0.9,4.3-2.1,5.8-3.7c1.5-1.6,2.5-3.5,2.9-5.6C281.2,115.9,281,113.7,280.2,111.3z M277.4,115.8c-0.8,1.4-2.1,2.7-3.7,3.9
		c-1.7,1.2-3.5,2.1-5.4,2.8c-1.8,0.6-3.5,1-5,1c-1.5,0.1-2.8-0.2-3.9-0.8c-1.1-0.6-1.8-1.5-2.1-2.7c-0.6-1.5-0.4-3,0.4-4.4
		c0.8-1.4,2-2.7,3.7-3.9c1.7-1.1,3.5-2.1,5.5-2.8c1.8-0.7,3.4-1,4.9-1s2.8,0.3,3.9,0.9c1.1,0.6,1.8,1.5,2.2,2.6
		C278.4,112.9,278.2,114.3,277.4,115.8z"/>
	<path class="st0" d="M47,223c0.8,0,1.6-0.2,2.2-0.6l0.1-0.1c2.9-1.6,3.4-4.7,1.3-8.4c-0.2-0.5-0.6-1.1-0.9-1.6
		c-0.2-0.4-0.5-0.9-0.7-1.2c-0.3-0.4-0.5-0.8-0.6-1.1c-0.1-0.2-0.2-0.4-0.3-0.6c-0.2-0.3-0.4-0.5-0.6-0.5s-0.3,0-0.5,0.1
		c-0.5,0.3-0.4,0.7-0.4,1c0,0.4,0,0.7-0.5,1l-8.6,4.8c-0.5,0.3-0.8,0.1-1.1-0.1c-0.2-0.2-0.6-0.4-1-0.2c-0.1,0.1-0.2,0.2-0.3,0.4
		c-0.1,0.2-0.1,0.4,0.1,0.7c0.1,0.2,0.2,0.4,0.3,0.6c0.2,0.3,0.4,0.6,0.7,1.1c0.3,0.6,0.5,1,0.7,1.4c0.2,0.3,0.3,0.5,0.4,0.7
		c0.1,0.3,0.4,0.5,0.5,0.5c0.1,0,0.3,0,0.5-0.1c0.5-0.3,0.5-0.8,0.4-1.2c-0.1-0.5-0.1-0.8,0.4-1.1l1.8-1c0.1,0,0.1,0,0.1,0
		c0.1,0.1,0.2,0.3,0.3,0.5c0.1,0.2,0.3,0.5,0.5,0.9C43.5,222,45.4,223,47,223z M42.9,216.8c0-0.2,0-0.3,0.2-0.4l4.6-2.6
		c0.1,0,0.2-0.1,0.3-0.1c0.2,0,0.5,0.2,1.1,1c0.5,1,0.7,1.9,0.5,2.7c-0.2,0.8-0.7,1.5-1.7,2l-0.1,0.1c-1.9,0.9-3.3,0.4-4.5-1.7
		C43,217.4,42.9,217,42.9,216.8z"/>
	<path class="st0" d="M56.4,230.4c0.5-0.9,1.1-1.8,1.6-2.5c0.7-1,0.8-1.4,0-2.4c-0.7-1.1-1-1.2-2.3-0.8c-0.8,0.2-1.9,0.5-2.9,0.8
		l-8.4,2.2c-0.6,0.2-1,0-1.3-0.2c-0.3-0.1-0.7-0.3-1.1,0c-0.2,0.1-0.3,0.2-0.3,0.4s0.1,0.4,0.2,0.6c0.1,0.2,0.3,0.3,0.4,0.5
		c0.1,0.2,0.3,0.4,0.5,0.7c0.2,0.3,0.3,0.6,0.5,0.8c0.2,0.3,0.3,0.5,0.5,0.7c0.2,0.3,0.5,0.5,0.7,0.5c0.2,0.1,0.3,0,0.5-0.1
		c0.4-0.3,0.3-0.7,0.2-1.1c-0.1-0.4-0.2-0.6,0-0.7c0.1-0.1,0.3-0.1,0.6-0.2l2.1-0.5c0.3-0.1,0.4-0.1,0.5,0.1l2.6,3.6
		c0.2,0.2,0.2,0.3,0,0.5l-1.1,1.8c-0.2,0.3-0.3,0.4-0.4,0.5c-0.2,0.1-0.4,0-0.7-0.2c-0.3-0.2-0.7-0.5-1.1-0.2
		c-0.2,0.1-0.3,0.2-0.3,0.4c0,0.3,0.1,0.5,0.3,0.8c0.1,0.2,0.3,0.4,0.5,0.7c0.3,0.4,0.6,0.8,0.9,1.2c0.4,0.4,0.6,0.8,0.8,1.1
		c0.1,0.2,0.2,0.4,0.3,0.5c0.1,0.1,0.1,0.1,0.2,0.2l-0.1,0.1h0.2c0.1,0.1,0.2,0.1,0.3,0.1c0.1,0,0.3,0,0.3-0.1l0.6-0.5h-0.3
		c0-0.2,0-0.4,0-0.6c0-0.4-0.1-0.8,0.3-1.4L56.4,230.4z M55,227.2l-2.8,4.1l-2.1-2.9c0,0,0,0,0.1,0L55,227.2z"/>
	<path class="st0" d="M58.3,248C58.3,248,58.3,247.9,58.3,248C58.3,247.9,58.3,248,58.3,248z"/>
	<path class="st0" d="M58.4,247.9c0.3-0.4,0.1-0.7,0-1.1c-0.2-0.4-0.3-0.7,0.1-1.1l7.2-6.6c0.1-0.1,0.2-0.1,0.3-0.2
		c0.2-0.1,0.3,0,0.5,0.2l0.4,0.4c0.9,0.9,0.9,2.1,0.7,4c0,0.5,0,0.8,0.2,1.1c0.1,0.1,0.3,0.2,0.5,0.2c0.2,0,0.3,0,0.5-0.1
		c0,0,0,0-0.1,0c0.1,0,0.1-0.1,0.2-0.1c0.3-0.2,0.4-0.5,0.7-1.1l0.8-1.8c0.4-0.7,0.5-1.2,0.1-1.6c-0.2-0.2-0.4-0.3-0.6-0.3
		c-0.2,0-0.4-0.1-0.6-0.3l-5.6-6.2c-0.1-0.2-0.2-0.4-0.2-0.6c-0.1-0.2-0.1-0.4-0.3-0.6c-0.4-0.4-0.9-0.4-1.6-0.1l-1.6,0.6
		c-0.8,0.3-1.1,0.5-1.4,0.7c-0.2,0.2-0.3,0.4-0.3,0.6s0.1,0.4,0.2,0.5c0.3,0.3,0.7,0.3,1.1,0.3c1.9,0,3.1,0.1,3.9,1l0.4,0.4
		c0.1,0.2,0.2,0.3,0.2,0.4c0,0.1-0.1,0.2-0.3,0.4l-7.2,6.6c-0.4,0.3-0.7,0.2-1.1,0c-0.3-0.1-0.5-0.2-0.8-0.2v-0.2l-0.4,0.4
		c-0.1,0.1-0.2,0.3-0.2,0.5c0,0.1,0.1,0.4,0.3,0.6c0.2,0.2,0.4,0.4,0.6,0.6c0.3,0.3,0.6,0.7,1,1.1c0.3,0.4,0.6,0.8,0.9,1.1
		c0.2,0.3,0.4,0.5,0.6,0.7s0.4,0.3,0.6,0.3C58.3,248.4,58.5,248.3,58.4,247.9c-0.1,0.1-0.1,0.1-0.1,0.1
		C58.3,248,58.3,248,58.4,247.9C58.3,248,58.3,247.9,58.4,247.9C58.4,247.9,58.4,247.9,58.4,247.9z M63.2,232.7c0,0.1,0,0.1,0,0.2
		C63.3,232.8,63.3,232.8,63.2,232.7z M58.2,246.3C58.1,246.3,58.1,246.3,58.2,246.3C58.1,246.3,58.1,246.3,58.2,246.3z M58.2,246.2
		c0-0.1,0.1-0.1,0.1-0.2C58.3,246,58.2,246.1,58.2,246.2z M70.3,241.8c0.1-0.1,0.1-0.3,0.1-0.4C70.4,241.5,70.4,241.7,70.3,241.8z"
		/>
	<path class="st0" d="M68.9,244.6c0,0-0.1,0.1-0.1,0.1C68.8,244.7,68.9,244.7,68.9,244.6z"/>
	<path class="st0" d="M76.8,246.1c-0.9-0.8-1.3-0.9-2.4-0.2c-0.7,0.4-1.7,0.9-2.6,1.4l-7.7,4c-0.6,0.3-1,0.2-1.4,0.1
		c-0.4-0.1-0.8-0.2-1.1,0.2c-0.3,0.3-0.2,0.7,0.1,1c0.2,0.1,0.3,0.3,0.5,0.4c0.2,0.1,0.5,0.3,0.7,0.5c0.3,0.2,0.5,0.4,0.7,0.6
		c0.2,0.2,0.4,0.4,0.6,0.6c0.2,0.2,0.5,0.3,0.7,0.3c0.2,0,0.4,0,0.5-0.2c0.3-0.3,0.1-0.8-0.1-1.1c-0.2-0.3-0.2-0.5-0.1-0.7
		c0.1-0.1,0.3-0.2,0.5-0.3l2-1c0.3-0.2,0.3-0.2,0.5,0l3.4,2.9c0.2,0.2,0.2,0.2,0.1,0.5l-0.7,2c-0.1,0.3-0.2,0.5-0.3,0.6
		c-0.1,0.2-0.3,0.1-0.7,0c-0.3-0.1-0.8-0.3-1.1,0.1c-0.2,0.2-0.5,0.6,0.2,1.2c0.2,0.1,0.4,0.3,0.6,0.5c0.4,0.3,0.8,0.6,1.2,1
		c0.4,0.4,0.7,0.7,1,0.9c0.2,0.2,0.4,0.4,0.5,0.5c0.1,0.1,0.3,0.2,0.5,0.2c0.2,0,0.4-0.1,0.4-0.2c0.3-0.4,0.2-0.8,0.1-1.1
		c-0.1-0.4-0.2-0.8,0-1.4l2.9-8.2c0.3-1,0.7-2.1,1-2.8C77.8,247.3,77.8,246.9,76.8,246.1z M74.1,248.3l-1.7,4.5l-0.1,0.1l-2.7-2.3
		h0.1L74.1,248.3z M65.2,254.2c-0.1-0.4-0.4-0.7-0.3-1.1c0,0.2,0.1,0.4,0.2,0.6C65.2,253.9,65.3,254.1,65.2,254.2z M71.1,257.7
		c-0.1,0.1-0.1,0.2-0.2,0.3c-0.3,0.4-0.8,0.1-1.2,0c0.1,0,0.1-0.1,0.2-0.2C70.2,258,70.7,258.1,71.1,257.7z"/>
	<path class="st0" d="M92.4,260.8l0.4-1.8c0.1-0.6,0.2-1.3-0.3-1.6c-0.3-0.2-0.6-0.1-0.8-0.1s-0.2,0-0.3,0c-0.1-0.1-0.3-0.3-0.5-0.5
		c-0.4-0.5-1-1.1-2-1.8c-2.8-1.9-7.4-1.4-10.2,2.8l-0.1,0.2c-1.1,1.7-1.4,3.5-1.1,5.2c0.4,2.1,1.8,3.9,3.9,5.3
		c1.8,1.3,3.8,1.9,4.6,2.1c0.2,0.1,0.4,0.1,0.5,0.1c0.2,0,0.4-0.1,0.7-0.3c0.2-0.2,0.1-0.4,0.1-0.6s0-0.3,0.2-0.7l1.4-2.1
		c0.3-0.5,0.6-0.5,1-0.4c0.3,0.1,0.7,0.1,1-0.3c0.1-0.1,0.4-0.6-0.3-1.1l-3.3-2.2c-0.2-0.2-0.5-0.2-0.7-0.2c-0.1,0-0.3,0.1-0.4,0.3
		c-0.3,0.5-0.1,0.8,0.1,1.1c0.3,0.3,0.4,0.6,0.1,1.1l-1.5,2.3c-0.2,0.3-0.8,0.3-1.8-0.4c-1.3-0.8-2.1-1.9-2.3-3.1
		c-0.3-1.4,0.1-3,1.1-4.5c0.9-1.3,2-2.3,3.2-2.8c0.9-0.4,2.2-0.6,3.4,0.2c1.7,1.1,1.8,3,2,4.8c0,0.5,0.1,0.8,0.4,1
		c0.3,0.2,0.8,0.1,1.1-0.3c0.1-0.2,0.2-0.5,0.3-1C92.3,261.3,92.3,261.1,92.4,260.8z M92,257.5c-0.2,0-0.4,0.1-0.6,0
		c0.1,0,0.1,0,0.2,0C91.8,257.4,91.9,257.4,92,257.5z M86.5,263c0.1,0,0.1,0,0.2,0c-0.1,0-0.2,0-0.3,0.1c0,0,0,0,0,0
		C86.4,263,86.5,263,86.5,263z M85,267.5l1.5-2.3c0.1-0.1,0.2-0.3,0.2-0.4c0,0.2-0.1,0.4-0.2,0.6l-1.5,2.3c-0.1,0.2-0.4,0.3-1,0.2
		C84.5,267.9,84.8,267.8,85,267.5z M90.7,261.4c-0.1-0.8-0.2-1.7-0.4-2.5c0.3,0.9,0.4,1.9,0.5,2.8c0,0.1,0,0.1,0,0.2
		C90.8,261.8,90.8,261.7,90.7,261.4z"/>
	<path class="st0" d="M107.6,267.9c-0.6-2-2.1-3.6-4-4.5c-1.9-0.9-4-1.1-5.9-0.4c-2,0.7-3.6,2.2-4.6,4.2l-0.2,0.4
		c-0.8,1.9-0.9,3.8-0.2,5.5c0.7,1.8,2.1,3.3,4.1,4.2c1.3,0.6,2.6,0.9,3.8,0.9c2.8,0,5.2-1.5,6.5-4.2
		C108.1,272,108.2,269.8,107.6,267.9z M104,272.3c-0.8,1.7-2,2.9-3.4,3.4c-1,0.3-2,0.3-3-0.2c-1.1-0.6-1.9-1.6-2.1-2.9
		c-0.2-1.2,0-2.7,0.7-4.1s1.7-2.6,2.9-3.2c0.7-0.4,1.3-0.6,2-0.6c0.6,0,1.1,0.2,1.5,0.5C105.2,266.4,105.3,269.7,104,272.3z"/>
	<path class="st0" d="M112.3,282.8c0,0,0.1,0,0.1-0.1c0,0,0,0,0-0.1C112.4,282.7,112.3,282.8,112.3,282.8
		C112.3,282.8,112.3,282.8,112.3,282.8z"/>
	<path class="st0" d="M125.7,272.8c0.1-0.2,0.1-0.3,0-0.5c-0.1-0.2-0.2-0.4-0.6-0.5c-0.3-0.1-0.5-0.1-0.8-0.2
		c-0.2-0.1-0.5-0.1-0.7-0.2c-0.3-0.1-0.5-0.2-0.8-0.3c-0.3-0.1-0.5-0.2-0.8-0.3c-0.6-0.2-1,0.1-1.1,0.4c-0.2,0.5,0.2,0.9,0.5,1.1
		c0.4,0.3,0.7,0.5,0.5,1l-2.1,6.5l-3.8-10.4c-0.2-0.5-0.4-0.7-0.9-0.9c-0.2,0-0.3-0.1-0.5-0.1c-0.1-0.1-0.3-0.1-0.5-0.2
		c-0.2-0.1-0.4-0.1-0.6-0.2c-0.2-0.1-0.4-0.1-0.6-0.2c-0.4-0.1-0.7-0.1-0.8,0c-0.1,0.1-0.2,0.2-0.3,0.4c-0.1,0.5,0.2,0.8,0.4,1
		c0.3,0.3,0.5,0.5,0.3,1.1l-3,9.4c-0.2,0.6-0.5,0.7-0.9,0.7c-0.2,0.1-0.4,0.1-0.6,0.2c-0.1,0-0.1,0.1-0.1,0.1
		c-0.1,0.1-0.2,0.2-0.2,0.3c-0.1,0.1-0.1,0.3,0,0.5c0.1,0.1,0.3,0.3,0.6,0.4c0.3,0.1,0.5,0.1,0.8,0.2c0.2,0.1,0.5,0.1,0.7,0.2
		c0.3,0.1,0.5,0.2,0.8,0.3s0.5,0.2,0.8,0.3c0.4,0.1,0.7,0.1,0.8,0c0,0,0.1-0.1,0.1-0.1c-0.1,0.1-0.2,0.1-0.4,0
		c-0.2-0.1-0.3-0.1-0.5-0.2c0.3,0.1,0.6,0,0.7-0.3c0,0,0-0.1,0-0.1c0.3,0.2,0.3,0.3,0.3,0.4c0,0,0.1-0.1,0.1-0.1
		c0.2-0.5-0.2-0.9-0.5-1.1c-0.4-0.3-0.7-0.5-0.5-1l2.4-7.6l4.4,11.7c0.2,0.4,0.4,0.8,0.9,1c0.1,0.1,0.2,0.1,0.3,0.1
		c0.2,0,0.3,0,0.4,0c0.3-0.1,0.4-0.3,0.5-0.6l3.5-10.9c0.2-0.6,0.5-0.7,0.9-0.7C125.1,273.3,125.5,273.3,125.7,272.8z M109.6,282
		c-0.3-0.1-0.6-0.1-0.8-0.2c-0.1,0-0.2-0.1-0.2-0.1C109,281.8,109.3,281.9,109.6,282c0.2,0,0.2,0.1,0.3,0.1
		C109.8,282.1,109.7,282,109.6,282z M111.4,280.5c-0.1,0.3-0.1,0.5-0.1,0.7c-0.2-0.2-0.4-0.5-0.2-1l2.2-6.6L111.4,280.5z"/>
	<path class="st0" d="M133.2,274.4c0-0.3-0.1-0.8-0.7-0.9c-0.2,0-0.4-0.1-0.6-0.1c-0.4,0-0.8-0.1-1.4-0.2c-0.5-0.1-0.9-0.2-1.2-0.3
		c-0.3-0.1-0.5-0.2-0.7-0.2c-0.3-0.1-0.6,0-0.7,0.1c-0.2,0.1-0.3,0.2-0.3,0.4c-0.1,0.5,0.3,0.7,0.5,0.9c0.3,0.2,0.5,0.4,0.4,1
		l-2,9.6c-0.1,0.6-0.4,0.7-0.8,0.8c-0.3,0.1-0.7,0.2-0.8,0.7c-0.1,0.4,0.1,0.8,0.7,0.9c0.2,0,0.4,0.1,0.7,0.1s0.7,0.1,1.2,0.2
		s1,0.2,1.3,0.3c0.3,0.1,0.5,0.2,0.7,0.2c0.1,0,0.2,0,0.3,0c0.2,0,0.3-0.1,0.4-0.1c0.2-0.1,0.3-0.2,0.3-0.4c0.1-0.5-0.3-0.7-0.5-0.9
		c-0.3-0.2-0.5-0.4-0.4-1l2-9.6c0.1-0.6,0.4-0.7,0.8-0.8C132.7,275,133.1,274.9,133.2,274.4z"/>
	<path class="st0" d="M147.9,288.9c-0.3-0.2-0.6-0.4-0.8-1.1l-2.3-8.4c-0.2-1-0.5-2.1-0.7-2.9c-0.2-1.2-0.4-1.5-1.7-1.6
		c-0.3,0-0.6,0-0.8,0c-0.9,0-1.1,0.1-1.6,1.1c-0.3,0.8-0.8,1.8-1.3,2.7l-4.1,7.7c-0.7,1.3-1.7,0.8-1.8,1.6c0,0.2,0.1,0.4,0.3,0.5
		c0.1,0.2,0.3,0.4,0.7,0.4c0.2,0,0.4,0,0.6,0c0.2,0.1,0.5,0.1,0.8,0.1s0.6,0.1,0.9,0.1c0.3,0,0.5,0.1,0.8,0.1c0.3,0,0.6-0.1,0.8-0.2
		c0.1-0.1,0.2-0.3,0.2-0.5c0.1-0.5-0.4-0.7-0.7-0.9c-0.4-0.2-0.5-0.3-0.5-0.5c0-0.1,0.1-0.3,0.2-0.5l1.1-2c0.1-0.2,0.2-0.2,0.4-0.2
		l4.4,0.5c0.3,0,0.3,0,0.4,0.3l0.6,2.1c0.1,0.3,0.1,0.5,0.1,0.6c0,0.1,0,0.1-0.1,0.1c-0.1,0.1-0.3,0.2-0.5,0.3
		c-0.4,0.1-0.8,0.2-0.9,0.7v0l0,0l0,0c0,0.2,0,0.7,0.9,0.8c0.3,0.1,0.6,0.1,1,0.1c0.4,0,0.9,0,1.4,0.1c0.5,0.1,0.9,0.1,1.3,0.2
		c0.2,0.1,0.4,0.1,0.6,0.1h0.1c0.2,0,0.3-0.1,0.6,0c0.1-0.2,0.2-0.3,0.2-0.5v-0.4h-0.1C148.3,289.2,148.1,289,147.9,288.9z
		 M139,282.6L139,282.6l2.3-4.5l1.3,4.9L139,282.6z M138.9,282.3c-0.1,0.2-0.1,0.4,0,0.5c-0.3,0-0.3-0.2-0.2-0.4l2.6-4.9l0,0.2
		L138.9,282.3z M143.6,276.5c0.1,0.8,0.4,1.9,0.7,2.9l2.3,8.4c0,0.1,0.1,0.2,0.1,0.3c-0.1-0.1-0.2-0.3-0.3-0.5l-2.3-8.4
		c-0.2-1-0.5-2.1-0.7-2.9c-0.1-0.3-0.1-0.6-0.2-0.8C143.4,275.7,143.5,276,143.6,276.5z M136.7,286.2L136.7,286.2
		c-0.2,0.4-0.3,0.6-0.3,0.8c0,0.6,0.4,0.8,0.8,1c0.3,0.2,0.4,0.3,0.4,0.4l-0.1,0.1c0,0.1-0.1,0.1-0.2,0.1c0,0,0-0.1,0-0.1
		c0.1-0.7-1.3-0.6-1.2-1.4c0-0.2,0.1-0.4,0.3-0.7l1-1.9c0.1-0.2,0.2-0.3,0.4-0.4c0,0.1-0.1,0.1-0.1,0.2L136.7,286.2z"/>
	<path class="st0" d="M170.5,288.2c-0.3-0.2-0.7-0.4-1-1l-3.6-7.9c-0.4-0.9-0.9-2-1.2-2.7c-0.5-1.1-0.7-1.4-2-1.3
		c-1.3,0-1.6,0.3-1.9,1.5c-0.3,0.9-0.7,2.1-0.9,2.8l-2.7,8.3c-0.2,0.6-0.6,0.8-0.9,1c-0.3,0.2-0.6,0.4-0.6,0.9
		c0,0.2,0.1,0.4,0.2,0.5c0.2,0.1,0.4,0.2,0.6,0.2c0.3,0,0.5,0,0.6-0.3c0.3,0,0.6-0.1,0.9-0.1c0,0,0,0,0,0c0.6,0,1.1,0,1.7,0
		c0,0,0,0,0,0c0.1,0,0.2,0,0.3,0c0,0,0.1,0,0.1,0c0.4-0.2,0.5-0.6,0.5-0.7c-0.1-0.5-0.5-0.7-0.9-0.8c-0.4-0.1-0.6-0.2-0.6-0.4
		c0,0,0-0.1,0-0.1c0-0.1,0.1-0.2,0.1-0.3l0.7-2c0.1-0.3,0.2-0.5,0.6-0.5l4.4-0.3c0.2,0,0.2,0.1,0.3,0.3l0.9,2
		c0.1,0.3,0.2,0.5,0.2,0.6c0,0.2-0.1,0.3-0.5,0.5c-0.4,0.2-0.8,0.4-0.8,0.9c0,0.2,0.1,0.4,0.2,0.5c0.2,0.2,0.5,0.2,0.8,0.2
		c0.3,0,0.6-0.1,1-0.1c0.4,0,0.9-0.1,1.4-0.1s0.9,0,1.3,0c0.3,0,0.5,0,0.7,0c0.3,0,0.5-0.1,0.6-0.2c0,0,0.1-0.1,0.1-0.2h0.1V289
		C171.2,288.5,170.8,288.3,170.5,288.2z M164.4,283.3l-3.6,0.3c0,0,0,0,0-0.1l1.5-4.7l1.4,3.1l-0.2-0.3L164.4,283.3z"/>
	<path class="st0" d="M187.2,285c-0.4-0.1-1-0.3-1.7-0.9l-2.5-2.3c1.8-1,2.6-2.7,2.2-4.7c-0.3-1.5-1.1-2.6-2.4-3.2
		c-1.4-0.7-3.2-0.8-5.4-0.4c-0.6,0.1-1.2,0.2-1.8,0.4c-0.6,0.1-1,0.2-1.4,0.3c-0.4,0.1-0.8,0.2-1.1,0.2c-0.3,0-0.5,0.1-0.7,0.1
		c-0.3,0.1-0.6,0.2-0.7,0.4c-0.1,0.1-0.1,0.3-0.1,0.5c0.1,0.5,0.5,0.6,0.8,0.7c0.4,0.1,0.7,0.2,0.8,0.8l1.8,9.7
		c0.2,0.6-0.1,0.8-0.4,1c-0.3,0.1-0.6,0.4-0.5,0.9c0,0.3,0.2,0.6,0.7,0.6c0,0,0.1-0.1,0.4-0.1c0.2,0,0.4,0,0.6-0.1
		c0.3-0.1,0.8-0.2,1.3-0.3c0.5-0.1,0.9-0.1,1.3-0.2c0.3,0,0.5-0.1,0.7-0.1c0.3,0,0.5-0.1,0.6-0.3c0.1-0.1,0.1-0.3,0.1-0.5
		c-0.1-0.5-0.5-0.6-0.8-0.7c-0.4-0.1-0.7-0.2-0.8-0.8l-0.5-2.5c0-0.2,0-0.2,0-0.2s0-0.1,0.2-0.1c0.6-0.1,1.1-0.2,1.7-0.3
		c0.2-0.1,0.3-0.1,0.4,0c0.1,0.1,0.2,0.1,0.4,0.2l0,0l2.1,1.9c0.3,0.3,0.4,0.5,0.5,0.7c0,0.1-0.1,0.2-0.3,0.3
		c-0.2,0.2-0.6,0.4-0.5,0.9c0,0,0,0,0,0c0,0,0,0.1,0,0.1c0.1,0.3,0.2,0.4,0.5,0.4c0.2,0.1,0.3,0.1,0.6,0.1c0.2,0,0.5-0.1,0.9-0.2
		c0.4-0.1,0.8-0.2,1.2-0.3c0.5-0.1,1.1-0.2,1.5-0.3c0.3,0,0.5-0.1,0.7-0.1s0.4-0.1,0.5-0.3c0.1-0.1,0.1-0.3,0.1-0.5
		C188.1,285.3,187.7,285.2,187.2,285z M178.7,281.4c-1.5,0.2-1.6,0-1.6-0.2l-0.9-4.8c-0.1-0.4-0.1-0.7,1.3-1
		c0.4-0.1,0.8-0.1,1.1-0.1c1.7,0,2.8,0.8,3.2,2.6v0.1C182.1,279.9,181.2,280.9,178.7,281.4z"/>
	<path class="st0" d="M203.6,280.2c0-0.1,0-0.1,0-0.2c-0.1-0.3-0.3-0.4-0.4-0.5c-0.1-0.1-0.2-0.1-0.3-0.2l-0.8-2.3
		c-0.4-1.3,1-1.2,0.7-2c0-0.1-0.1-0.2-0.2-0.2c0-0.1,0-0.1,0-0.2c0-0.2-0.1-0.3-0.3-0.4c-0.2-0.1-0.5-0.1-0.8,0l-3.7,1.2
		c-0.3,0.1-0.5,0.3-0.6,0.5c-0.1,0.1-0.1,0.3,0,0.5c0.1,0.5,0.6,0.6,0.9,0.6c0.4,0,0.7,0,0.9,0.6l0.9,2.6c0.1,0.3-0.3,0.7-1.4,1.1
		c-1.4,0.5-2.7,0.5-3.8-0.1c-1.2-0.6-2.2-1.9-2.8-3.6c-0.3-0.8-0.4-1.5-0.4-2.2c0-1.3,0.3-2.5,1-3.3c0.4-0.5,0.9-0.9,1.6-1.1
		c1.9-0.6,3.5,0.4,5,1.4c0.4,0.3,0.7,0.4,1.1,0.3c0.4-0.2,0.6-0.6,0.5-1.1c0-0.3-0.2-0.5-0.6-0.9c-0.1-0.2-0.2-0.3-0.4-0.5l-1.2-1.5
		c-0.4-0.5-0.8-1-1.4-0.8c-0.3,0.1-0.4,0.4-0.5,0.6c-0.1,0.1-0.1,0.2-0.2,0.2c-0.1,0.1-0.3,0.1-0.6,0.1c-0.6,0.1-1.5,0.1-2.6,0.5
		c-3.2,1.1-5.7,5.1-4.1,9.8l0.4,1.5v-0.3c0.8,1.5,1.9,2.7,3.4,3.3c0.9,0.4,1.9,0.6,2.9,0.6c0.7,0,1.4-0.1,2.1-0.3
		c0.4-0.1,0.8-0.1,1.2-0.3c2.1-0.7,3.7-1.8,4.4-2.3c0.4-0.3,0.5-0.5,0.4-0.8C203.8,280.3,203.7,280.2,203.6,280.2z M197,282.1
		C197,282.1,197,282.1,197,282.1C197,282.1,197,282.1,197,282.1z M197.8,276c0-0.1,0.1-0.1,0.3-0.2l3.7-1.2c0.2,0,0.3,0,0.4,0
		c0,0,0.1,0,0.1,0.1c-0.1,0-0.2,0-0.3,0l-3.7,1.2c-0.3,0.1-0.4,0.2-0.5,0.3c0,0,0,0,0,0C197.8,276.1,197.8,276,197.8,276z
		 M198.8,281.8c1.1-0.4,1.6-0.9,1.7-1.3C200.5,280.9,200.1,281.4,198.8,281.8c-0.5,0.2-1.1,0.3-1.6,0.3
		C197.7,282.1,198.2,282,198.8,281.8z M197.3,268.2c-0.1,0-0.1,0-0.2,0C197.2,268.2,197.2,268.2,197.3,268.2z M197.1,268.2
		c-0.1,0-0.1,0.1-0.1,0.1C197,268.2,197,268.2,197.1,268.2z M195.9,269.1c-0.6,0.1-1.5,0.1-2.7,0.5c1.1-0.4,1.9-0.5,2.5-0.5
		C195.7,269.1,195.8,269.1,195.9,269.1z"/>
	<path class="st0" d="M218.5,270.4c0-0.2-0.2-0.3-0.4-0.4c-0.2-0.1-0.4-0.1-0.6,0c-0.4,0.2-0.5,0.5-0.6,0.9
		c-0.6,1.9-0.9,3.1-2.4,3.8l-2,1c-0.5,0.3-0.8,0.4-1,0.3c-0.1,0-0.2-0.1-0.3-0.4l-1.6-3.4c0-0.2,0-0.2,0-0.2s0-0.1,0.2-0.2l1.4-0.7
		c0.5-0.3,0.8,0,1.2,0.2c0.3,0.3,0.7,0.5,1.1,0.3c0.2-0.1,0.3-0.2,0.4-0.4s0-0.4-0.1-0.7c-0.1-0.2-0.2-0.4-0.3-0.6
		c-0.2-0.2-0.3-0.5-0.4-0.7c-0.1-0.3-0.2-0.5-0.3-0.7c-0.1-0.3-0.2-0.5-0.3-0.7c-0.3-0.5-0.7-0.7-1.1-0.5c-0.4,0.2-0.5,0.6-0.5,1
		c-0.1,0.4-0.1,0.9-0.6,1.1l-1.4,0.7c-0.2,0.1-0.3,0.1-0.3,0.1s0,0-0.1-0.1l-1.5-3.2c-0.2-0.5-0.3-0.7,0.7-1.2l1.3-0.6
		c1.4-0.6,2.4-0.2,4.2,0.5h0.1c0.5,0.2,0.8,0.3,1.1,0.1c0.2-0.1,0.3-0.2,0.4-0.4c0.1-0.2,0.1-0.4,0-0.6c-0.2-0.4-0.5-0.7-1.2-1.2
		l-1.4-1.1c-0.6-0.5-1.1-0.7-1.6-0.5c-0.3,0.1-0.5,0.4-0.5,0.5c0,0.1-0.1,0.3-0.4,0.4l-5.2,2.5c-0.5,0.3-1,0.5-1.3,0.6
		c-0.2,0.1-0.4,0.1-0.5,0.2c-0.7,0.4-0.6,0.9-0.5,1.1c0.2,0.4,0.6,0.4,0.9,0.4c0.4-0.1,0.7-0.1,1,0.5l4.3,8.9c0.2,0.6,0,0.8-0.2,1.1
		c-0.2,0.2-0.4,0.6-0.2,1c0.1,0.2,0.2,0.3,0.4,0.4c0,0,0.1,0,0.2,0c0.2,0,0.3,0,0.5,0c0.1-0.1,0.3-0.2,0.5-0.3
		c0.3-0.1,0.7-0.4,1.2-0.6l5.9-2.9c0.3-0.1,0.5-0.1,0.7-0.1c0.2,0,0.4,0,0.7-0.1c0.5-0.3,0.6-0.8,0.6-1.4v-2c0-0.8,0-1.3-0.1-1.6
		L218.5,270.4z M212.5,271.1c-0.1-0.1-0.3-0.2-0.4-0.3c0.4,0.2,0.7,0.4,1,0.5C212.9,271.4,212.8,271.3,212.5,271.1z M202.4,267.1
		c-0.1-0.1-0.1-0.2,0.1-0.3C202.5,266.9,202.5,266.9,202.4,267.1c0.2,0.1,0.4,0.2,0.5,0.2c0,0,0,0,0,0
		C202.6,267.3,202.5,267.2,202.4,267.1z"/>
	<path class="st0" d="M227.6,255c-0.4-0.5-0.2-0.8,0-1.1c0.2-0.3,0.4-0.6,0.2-1v-0.1c-0.1-0.3-0.5-0.4-1.1-0.1c0,0,0,0,0,0
		c0,0,0,0,0,0c-0.2,0.1-0.4,0.3-0.6,0.4c-0.2,0.2-0.5,0.3-0.7,0.5c-0.3,0.2-0.5,0.3-0.8,0.5c-0.2,0.2-0.4,0.3-0.6,0.4
		c-0.3,0.1-0.5,0.4-0.5,0.6s0,0.4,0.1,0.5c0.3,0.5,0.8,0.4,1.2,0.3c0.5-0.1,0.8-0.1,1.1,0.3l3.7,5.7l-10.5-3.6
		c-0.5-0.2-0.9-0.2-1.3,0.1c-0.1,0.1-0.2,0.2-0.4,0.3c-0.1,0.1-0.2,0.2-0.4,0.3c-0.2,0.2-0.4,0.3-0.6,0.4c-0.2,0.1-0.4,0.2-0.5,0.3
		c-0.4,0.2-0.5,0.4-0.5,0.6s0,0.3,0.1,0.5c0.3,0.4,0.7,0.4,1,0.3c0.4-0.1,0.7-0.1,1,0.4l5.4,8.2c0.4,0.5,0.2,0.8,0,1.1
		c-0.1,0.2-0.4,0.6-0.1,1c0.1,0.1,0.2,0.3,0.4,0.3c0.1,0,0.1,0,0.2,0c0.1,0,0.3-0.1,0.6-0.1c0.2-0.2,0.5-0.3,0.7-0.5
		c0.2-0.1,0.4-0.3,0.6-0.4c0.2-0.1,0.5-0.3,0.7-0.4c0.2-0.1,0.5-0.3,0.7-0.4c0.6-0.4,0.6-0.8,0.4-1.1c-0.3-0.5-0.8-0.4-1.2-0.3
		c-0.5,0.1-0.8,0.1-1.1-0.3l-4.3-6.6l11.9,4c0.4,0.1,0.8,0.2,1.3-0.1c0.2-0.2,0.3-0.4,0.4-0.6c0-0.1,0-0.4-0.2-0.7L227.6,255z"/>
	<path class="st0" d="M245.5,255.2c-0.4-0.4-0.9-0.2-1.2-0.1c-0.4,0.1-0.7,0.2-1.1-0.2l-6.4-7.4c-0.1-0.2-0.2-0.4-0.2-0.5
		c0-0.1,0-0.2,0.2-0.4c0,0,0,0,0,0l0.4-0.4c0,0,0,0,0,0c0.9-0.8,2.1-0.8,4-0.5c0.3,0,0.5,0,0.7,0c0.2,0,0.3-0.1,0.4-0.2
		c0.1-0.1,0.1-0.1,0.1-0.2c0.1-0.2,0.1-0.6-0.1-0.9c-0.3-0.2-0.6-0.4-1.2-0.7l-1.7-0.8c-0.7-0.3-1.2-0.5-1.6-0.1
		c-0.2,0.2-0.2,0.4-0.3,0.6c0,0.2-0.1,0.4-0.3,0.6l-6.3,5.5c-0.2,0.2-0.4,0.2-0.6,0.2s-0.4,0-0.6,0.2c-0.4,0.4-0.3,0.9-0.1,1.6
		l0.5,1.7c0.2,0.7,0.4,1.1,0.6,1.4c0.3,0.3,0.8,0.4,1.1,0.1c0.3-0.3,0.3-0.7,0.3-1.1c0-2,0.2-3.1,1.1-3.9l0.4-0.4
		c0.3-0.3,0.4-0.3,0.8,0.1l6.4,7.4c0.4,0.4,0.2,0.7,0,1.1c-0.2,0.3-0.4,0.7-0.1,1.1l0.1,0.1c0.1,0.2,0.3,0.3,0.5,0.3
		c0.1,0,0.2,0,0.4-0.1c0.1,0,0.1,0,0.2,0.1c0.4-0.4,0.9-0.9,1.7-1.6s1.4-1.1,1.8-1.5c0.2-0.2,0.2-0.3,0.2-0.5
		C245.7,255.6,245.6,255.4,245.5,255.2z"/>
	<path class="st0" d="M253.5,245.8c-0.4,0.1-0.6,0.2-1.1-0.2l-7.1-6.8c-0.4-0.5-0.3-0.7-0.2-1.1c0.1-0.2,0.3-0.6-0.1-1
		c-0.1-0.1-0.3-0.2-0.5-0.2c-0.1,0-0.4,0-0.6,0.3c-0.1,0.2-0.3,0.3-0.4,0.5c-0.2,0.2-0.5,0.6-0.9,1c-0.4,0.4-0.7,0.7-0.9,0.9
		c-0.2,0.2-0.4,0.4-0.5,0.5c-0.4,0.4-0.4,0.9-0.1,1.1c0.4,0.4,0.8,0.2,1.1,0.1c0.4-0.1,0.6-0.2,1.1,0.2l7.1,6.8
		c0.4,0.5,0.3,0.7,0.2,1.1c-0.1,0.2-0.3,0.6,0.1,1c0.2,0.1,0.3,0.2,0.5,0.2s0.4-0.1,0.5-0.2c0.1-0.1,0.2-0.3,0.4-0.5
		c0.3-0.3,0.5-0.6,0.9-1c0.4-0.4,0.7-0.8,1-1c0.2-0.2,0.4-0.4,0.5-0.5c0.4-0.4,0.4-0.9,0.1-1.1C254.2,245.5,253.8,245.7,253.5,245.8
		z"/>
	<path class="st0" d="M256.2,225.7c-0.5-0.4-0.4-0.7-0.3-1.1c0.1-0.3,0.2-0.7-0.2-1l-0.1-0.1c-0.2-0.2-0.6-0.2-1,0.3
		c-0.2,0.2-0.3,0.4-0.5,0.6c0,0.1-0.1,0.1-0.1,0.2c-0.1,0.1-0.1,0.1-0.2,0.2c0,0.1-0.1,0.1-0.1,0.2c-0.2,0.3-0.4,0.5-0.6,0.7
		c-0.2,0.2-0.3,0.4-0.5,0.6c0,0,0,0.1-0.1,0.1c0,0.1-0.1,0.1-0.1,0.2c-0.2,0.3-0.2,0.6,0,0.8c0.1,0,0.1,0.1,0.2,0.1c0,0,0,0,0,0
		c0.5,0.4,1,0.1,1.3-0.1c0.3-0.2,0.5-0.3,0.8-0.3c0,0,0.1,0,0.1,0.1l5,3.8l0.6,0.5l-11,0.1c-0.5,0-0.9,0.1-1.2,0.5
		c0,0,0,0.1-0.1,0.1c0,0-0.1,0.1-0.1,0.2c0,0,0,0,0,0c0,0,0,0,0,0c-0.1,0.1-0.2,0.2-0.3,0.4c0,0-0.1,0.1-0.1,0.1
		c-0.2,0.2-0.4,0.4-0.5,0.6c-0.1,0.1-0.2,0.3-0.3,0.4c0,0.1-0.1,0.1-0.1,0.2c0,0-0.1,0.1-0.1,0.1c-0.3,0.3-0.2,0.6,0,0.8
		c0.1,0,0.1,0.1,0.2,0.1c0,0,0,0,0,0c0.4,0.3,0.7,0.1,1,0c0.3-0.2,0.6-0.4,1.1,0l7.8,6c0.2,0.2,0.3,0.4,0.4,0.5c0,0.2,0,0.4-0.1,0.6
		c-0.1,0.3-0.2,0.7,0.2,1c0.1,0.1,0.2,0.2,0.4,0.2c0.2,0,0.5-0.1,0.8-0.3c0.2-0.2,0.3-0.5,0.5-0.7c0.1-0.2,0.3-0.4,0.4-0.6
		c0.1-0.2,0.3-0.4,0.5-0.6c0.1-0.3,0.3-0.5,0.5-0.7c0.4-0.6,0.3-1,0-1.2c-0.4-0.4-0.9-0.1-1.2,0.1c-0.4,0.3-0.7,0.4-1.1,0.1
		l-6.3-4.9l12.5-0.1c0.5,0,0.9,0,1.3-0.5c0.2-0.2,0.2-0.5,0.2-0.7s-0.2-0.4-0.4-0.6L256.2,225.7z"/>
	<path class="st0" d="M274.4,216.5c-0.4,0.2-0.7,0.4-1.4,0.3l-8.6-1.3c-0.9-0.1-2-0.3-2.9-0.5c-1.2-0.3-1.5-0.2-2.2,0.9
		c-0.7,1.1-0.7,1.4,0.2,2.4c0.5,0.6,1.2,1.4,1.9,2.3l5.4,6.8c0.4,0.5,0.4,0.9,0.4,1.3c0,0.3-0.1,0.6,0.3,0.9c0,0.1,0.1,0.1,0.2,0.2
		c0.3,0.2,0.5,0.1,0.7-0.1c0.1,0,0.2-0.1,0.2-0.2c0.1-0.1,0.2-0.3,0.3-0.5c0.1-0.3,0.2-0.5,0.4-0.8c0.2-0.3,0.3-0.6,0.5-0.8
		c0.1-0.2,0.3-0.5,0.4-0.7c0.4-0.7,0-1.1-0.2-1.2c-0.4-0.2-0.8,0.1-1.1,0.3c-0.4,0.3-0.5,0.4-0.7,0.3c-0.1-0.1-0.2-0.2-0.3-0.4
		l-1.4-1.8c-0.2-0.2-0.2-0.3-0.1-0.5l2.3-3.9c0.2-0.2,0.2-0.3,0.5-0.2l2.1,0.3c0.3,0.1,0.5,0.1,0.6,0.2c0.2,0.1,0.2,0.3,0.1,0.7
		c-0.1,0.3-0.1,0.8,0.3,1.1c0.1,0.1,0.3,0.1,0.5,0.1s0.4-0.2,0.6-0.5c0.1-0.2,0.2-0.5,0.4-0.8c0.2-0.4,0.4-0.9,0.7-1.3
		c0.3-0.5,0.5-0.8,0.7-1.1c0.2-0.2,0.3-0.4,0.4-0.6c0.1-0.2,0.1-0.4,0.1-0.6l0.3-0.1l-0.5-0.3C275,216.1,274.7,216.3,274.4,216.5z
		 M275.2,216.4l0.1,0.1c0.1,0,0.1,0.1,0.1,0.1s0,0.1-0.1,0.1c0-0.1-0.1-0.1-0.1-0.1c-0.1-0.1-0.2-0.1-0.3-0.1
		C275,216.4,275.1,216.4,275.2,216.4z M261.9,218.2l5,0.9l-1.8,3.1l-0.1-0.1L261.9,218.2z M260.6,215.3c0.2,0,0.4,0.1,1-0.1
		c0.9,0.2,2,0.4,2.9,0.5l8.6,1.3c0.5,0.1,0.8,0,1.1-0.1c-0.3,0.2-0.7,0.4-1.3,0.4l-8.6-1.3c-1-0.2-2.1-0.3-2.9-0.5
		c-0.7-0.1-1-0.2-1.3,0C260.2,215.4,260.4,215.3,260.6,215.3z M267.4,225.6l0.1,0.1c0.2,0.2,0.3,0.4,0.5,0.5
		c0.5,0.3,0.9-0.1,1.2-0.3s0.5-0.3,0.6-0.2c0.1,0,0.1,0.1,0.1,0.2c0,0,0,0,0,0c-0.6-0.4-1.1,0.9-1.8,0.5c-0.2-0.1-0.3-0.2-0.5-0.5
		l-1.3-1.7c0-0.1-0.1-0.1-0.1-0.2L267.4,225.6z"/>
</g>
</svg>
